<svg width="1312" height="229" viewBox="0 0 1312 229" fill="none" xmlns="http://www.w3.org/2000/svg">
<g clip-path="url(#clip0_1_984)">
<mask id="mask0_1_984" style="mask-type:luminance" maskUnits="userSpaceOnUse" x="0" y="54" width="1312" height="561">
<path d="M1312 54.293H0V614.348H1312V54.293Z" fill="white"/>
</mask>
<g mask="url(#mask0_1_984)">
<g filter="url(#filter0_f_1_984)">
<path d="M598.328 875.787L157 605.407L1715.67 -583.941L2157 -313.56L598.328 875.787Z" fill="url(#paint0_linear_1_984)"/>
</g>
<path d="M131.2 124.348H0V159.348H131.2V124.348Z" fill="white" fill-opacity="0.01"/>
<path d="M131.2 124.348H0V159.348H131.2V124.348Z" stroke="#203435" stroke-width="0.5"/>
<path d="M131.2 159.348H0V194.348H131.2V159.348Z" fill="white" fill-opacity="0.01"/>
<path d="M131.2 159.348H0V194.348H131.2V159.348Z" stroke="#203435" stroke-width="0.5"/>
<path d="M131.2 194.348H0V229.348H131.2V194.348Z" fill="white" fill-opacity="0.01"/>
<path d="M131.2 194.348H0V229.348H131.2V194.348Z" stroke="#203435" stroke-width="0.5"/>
<path d="M262.399 54.3477H131.199V89.3477H262.399V54.3477Z" fill="white" fill-opacity="0.01"/>
<path d="M262.399 124.348H131.199V159.348H262.399V124.348Z" fill="#02181A"/>
<path d="M262.399 159.348H131.199V194.348H262.399V159.348Z" fill="white" fill-opacity="0.01"/>
<path d="M262.399 159.348H131.199V194.348H262.399V159.348Z" stroke="#203435" stroke-width="0.5"/>
<path d="M262.399 194.348H131.199V229.348H262.399V194.348Z" fill="white" fill-opacity="0.01"/>
<path d="M262.399 194.348H131.199V229.348H262.399V194.348Z" stroke="#203435" stroke-width="0.5"/>
<path d="M393.6 124.348H262.4V159.348H393.6V124.348Z" fill="white" fill-opacity="0.01"/>
<path d="M393.6 124.348H262.4V159.348H393.6V124.348Z" stroke="#203435" stroke-width="0.5"/>
<path d="M393.6 159.348H262.4V194.348H393.6V159.348Z" fill="white" fill-opacity="0.01"/>
<path d="M393.6 159.348H262.4V194.348H393.6V159.348Z" stroke="#203435" stroke-width="0.5"/>
<path d="M393.6 194.348H262.4V229.348H393.6V194.348Z" fill="white" fill-opacity="0.01"/>
<path d="M393.6 194.348H262.4V229.348H393.6V194.348Z" stroke="#203435" stroke-width="0.5"/>
<path d="M524.8 89.3477H393.6V124.348H524.8V89.3477Z" stroke="#203435" stroke-width="0.5"/>
<path d="M524.8 194.348H393.6V229.348H524.8V194.348Z" fill="white" fill-opacity="0.01"/>
<path d="M524.8 194.348H393.6V229.348H524.8V194.348Z" stroke="#203435" stroke-width="0.5"/>
<path d="M656.001 54.3477H524.801V89.3477H656.001V54.3477Z" fill="white" fill-opacity="0.01"/>
<path d="M656.001 54.3477H524.801V89.3477H656.001V54.3477Z" stroke="#203435" stroke-width="0.5"/>
<path d="M656.001 89.3477H524.801V124.348H656.001V89.3477Z" fill="#02181A" stroke="#203435" stroke-width="0.5"/>
<path d="M656.001 54.3477H524.801V89.3477H656.001V54.3477Z" fill="#02181A" stroke="#203435" stroke-width="0.5"/>
<path d="M656.001 124.348H524.801V159.348H656.001V124.348Z" fill="#02181A" stroke="#203435" stroke-width="0.5"/>
<path d="M656.001 159.348H524.801V194.348H656.001V159.348Z" fill="white" fill-opacity="0.01"/>
<path d="M656.001 159.348H524.801V194.348H656.001V159.348Z" stroke="#203435" stroke-width="0.5"/>
<path d="M656.001 194.348H524.801V229.348H656.001V194.348Z" fill="white" fill-opacity="0.01"/>
<path d="M656.001 194.348H524.801V229.348H656.001V194.348Z" stroke="#203435" stroke-width="0.5"/>
<path d="M787.2 54.3477H656V89.3477H787.2V54.3477Z" fill="white" fill-opacity="0.01"/>
<path d="M787.2 54.3477H656V89.3477H787.2V54.3477Z" stroke="#203435" stroke-width="0.5"/>
<path d="M787.2 89.3477H656V124.348H787.2V89.3477Z" fill="white" fill-opacity="0.01"/>
<path d="M787.2 89.3477H656V124.348H787.2V89.3477Z" stroke="#203435" stroke-width="0.5"/>
<path d="M787.2 124.348H656V159.348H787.2V124.348Z" fill="white" fill-opacity="0.01"/>
<path d="M787.2 124.348H656V159.348H787.2V124.348Z" stroke="#203435" stroke-width="0.5"/>
<path d="M787.2 159.348H656V194.348H787.2V159.348Z" fill="white" fill-opacity="0.01"/>
<path d="M787.2 159.348H656V194.348H787.2V159.348Z" stroke="#203435" stroke-width="0.5"/>
<path d="M787.2 194.348H656V229.348H787.2V194.348Z" fill="white" fill-opacity="0.01"/>
<path d="M787.2 194.348H656V229.348H787.2V194.348Z" stroke="#203435" stroke-width="0.5"/>
<path d="M918.399 54.3477H787.199V89.3477H918.399V54.3477Z" fill="white" fill-opacity="0.01"/>
<path d="M918.399 54.3477H787.199V89.3477H918.399V54.3477Z" stroke="#203435" stroke-width="0.5"/>
<path d="M918.399 89.3477H787.199V124.348H918.399V89.3477Z" fill="#02181A" stroke="#203435" stroke-width="0.5"/>
<path d="M918.399 54.3477H787.199V89.3477H918.399V54.3477Z" fill="#02181A" stroke="#203435" stroke-width="0.5"/>
<path d="M787.202 89.3477H656.002V124.348H787.202V89.3477Z" fill="#02181A"/>
<path d="M787.202 54.3477H656.002V89.3477H787.202V54.3477Z" fill="#02181A" stroke="#203435" stroke-width="0.5"/>
<path d="M918.399 124.348H787.199V159.348H918.399V124.348Z" fill="white" fill-opacity="0.01"/>
<path d="M918.399 124.348H787.199V159.348H918.399V124.348Z" stroke="#203435" stroke-width="0.5"/>
<path d="M918.399 159.348H787.199V194.348H918.399V159.348Z" fill="white" fill-opacity="0.01"/>
<path d="M918.399 159.348H787.199V194.348H918.399V159.348Z" stroke="#203435" stroke-width="0.5"/>
<path d="M918.399 194.348H787.199V229.348H918.399V194.348Z" fill="white" fill-opacity="0.01"/>
<path d="M918.399 194.348H787.199V229.348H918.399V194.348Z" stroke="#203435" stroke-width="0.5"/>
<path d="M1049.6 54.3477H918.398V89.3477H1049.6V54.3477Z" fill="white" fill-opacity="0.01"/>
<path d="M1049.6 54.3477H918.398V89.3477H1049.6V54.3477Z" stroke="#203435" stroke-width="0.5"/>
<path d="M1049.6 89.3477H918.398V124.348H1049.6V89.3477Z" fill="#02181A" stroke="#203435" stroke-width="0.5"/>
<path d="M1049.6 54.3477H918.398V89.3477H1049.6V54.3477Z" fill="#02181A" stroke="#203435" stroke-width="0.5"/>
<path d="M1180.41 54.3477H1049.21V89.3477H1180.41V54.3477Z" fill="#02181A"/>
<path d="M787.2 124.348H656V159.348H787.2V124.348Z" fill="#02181A" stroke="#203435" stroke-width="0.5"/>
<path d="M918.401 124.348H787.201V159.348H918.401V124.348Z" fill="#02181A" stroke="#203435" stroke-width="0.5"/>
<path d="M1049.6 159.348H918.398V194.348H1049.6V159.348Z" fill="white" fill-opacity="0.01"/>
<path d="M1049.6 159.348H918.398V194.348H1049.6V159.348Z" stroke="#203435" stroke-width="0.5"/>
<path d="M1049.6 194.348H918.398V229.348H1049.6V194.348Z" fill="white" fill-opacity="0.01"/>
<path d="M1049.6 194.348H918.398V229.348H1049.6V194.348Z" stroke="#203435" stroke-width="0.5"/>
<path d="M1180.8 54.3477H1049.6V89.3477H1180.8V54.3477Z" fill="white" fill-opacity="0.01"/>
<path d="M1180.8 54.3477H1049.6V89.3477H1180.8V54.3477Z" stroke="#203435" stroke-width="0.5"/>
<path d="M1180.8 89.3477H1049.6V124.348H1180.8V89.3477Z" fill="white" fill-opacity="0.01"/>
<path d="M1155.55 71.8477H1024.35V106.848H1155.55V71.8477Z" fill="white" fill-opacity="0.01"/>
<path d="M1180.8 89.3477H1049.6V124.348H1180.8V89.3477Z" stroke="#203435" stroke-width="0.5"/>
<path d="M1180.8 124.348H1049.6V159.348H1180.8V124.348Z" fill="white" fill-opacity="0.01"/>
<path d="M1180.8 124.348H1049.6V159.348H1180.8V124.348Z" stroke="#203435" stroke-width="0.5"/>
<path d="M1180.8 159.348H1049.6V194.348H1180.8V159.348Z" fill="white" fill-opacity="0.01"/>
<path d="M1180.8 159.348H1049.6V194.348H1180.8V159.348Z" stroke="#203435" stroke-width="0.5"/>
<path d="M1180.8 194.348H1049.6V229.348H1180.8V194.348Z" fill="white" fill-opacity="0.01"/>
<path d="M1180.8 194.348H1049.6V229.348H1180.8V194.348Z" stroke="#203435" stroke-width="0.5"/>
<path d="M1312 54.3477H1180.8V89.3477H1312V54.3477Z" fill="white" fill-opacity="0.01"/>
<path d="M1312 54.3477H1180.8V89.3477H1312V54.3477Z" stroke="#203435" stroke-width="0.5"/>
<path d="M1312 89.3477H1180.8V124.348H1312V89.3477Z" fill="white" fill-opacity="0.01"/>
<path d="M1312 89.3477H1180.8V124.348H1312V89.3477Z" stroke="#203435" stroke-width="0.5"/>
<path d="M1312 124.348H1180.8V159.348H1312V124.348Z" fill="white" fill-opacity="0.01"/>
<path d="M1312 124.348H1180.8V159.348H1312V124.348Z" stroke="#203435" stroke-width="0.5"/>
<path d="M1312 159.348H1180.8V194.348H1312V159.348Z" fill="white" fill-opacity="0.01"/>
<path d="M1312 159.348H1180.8V194.348H1312V159.348Z" stroke="#203435" stroke-width="0.5"/>
<path d="M1312 194.348H1180.8V229.348H1312V194.348Z" fill="white" fill-opacity="0.01"/>
<path d="M1312 194.348H1180.8V229.348H1312V194.348Z" stroke="#203435" stroke-width="0.5"/>
</g>
</g>
<defs>
<filter id="filter0_f_1_984" x="107" y="-633.941" width="2100" height="1559.73" filterUnits="userSpaceOnUse" color-interpolation-filters="sRGB">
<feFlood flood-opacity="0" result="BackgroundImageFix"/>
<feBlend mode="normal" in="SourceGraphic" in2="BackgroundImageFix" result="shape"/>
<feGaussianBlur stdDeviation="25" result="effect1_foregroundBlur_1_984"/>
</filter>
<linearGradient id="paint0_linear_1_984" x1="1377.66" y1="281.114" x2="1084.87" y2="-102.603" gradientUnits="userSpaceOnUse">
<stop stop-color="#E7F8F5"/>
<stop offset="0.2" stop-color="#0BFAEE"/>
<stop offset="0.4" stop-color="#00DF9C"/>
<stop offset="0.6" stop-color="#055D5D"/>
<stop offset="0.8" stop-color="#05393B"/>
<stop offset="1" stop-color="#052528"/>
</linearGradient>
<clipPath id="clip0_1_984">
<rect width="1312" height="229" fill="white"/>
</clipPath>
</defs>
</svg>
