<svg xmlns="http://www.w3.org/2000/svg" width="1312" height="229" fill="none" viewBox="0 0 1312 229"><g clip-path="url(#a)"><mask id="b" width="1312" height="561" x="0" y="54" maskUnits="userSpaceOnUse" style="mask-type:luminance"><path fill="#fff" d="M1312 54.293H0v560.055h1312z"/></mask><g mask="url(#b)"><g filter="url(#c)"><path fill="url(#d)" d="M598.328 875.787 157 605.407 1715.67-583.941 2157-313.56z"/></g><path fill="#fff" fill-opacity=".01" d="M131.2 124.348H0v35h131.2z"/><path stroke="#203435" stroke-width=".5" d="M131.2 124.348H0v35h131.2z"/><path fill="#fff" fill-opacity=".01" d="M131.2 159.348H0v35h131.2z"/><path stroke="#203435" stroke-width=".5" d="M131.2 159.348H0v35h131.2z"/><path fill="#fff" fill-opacity=".01" d="M131.2 194.348H0v35h131.2z"/><path stroke="#203435" stroke-width=".5" d="M131.2 194.348H0v35h131.2z"/><path fill="#fff" fill-opacity=".01" d="M262.399 54.348h-131.2v35h131.2z"/><path fill="#02181a" d="M262.399 124.348h-131.2v35h131.2z"/><path fill="#fff" fill-opacity=".01" d="M262.399 159.348h-131.2v35h131.2z"/><path stroke="#203435" stroke-width=".5" d="M262.399 159.348h-131.2v35h131.2z"/><path fill="#fff" fill-opacity=".01" d="M262.399 194.348h-131.2v35h131.2z"/><path stroke="#203435" stroke-width=".5" d="M262.399 194.348h-131.2v35h131.2z"/><path fill="#fff" fill-opacity=".01" d="M393.6 124.348H262.4v35h131.2z"/><path stroke="#203435" stroke-width=".5" d="M393.6 124.348H262.4v35h131.2z"/><path fill="#fff" fill-opacity=".01" d="M393.6 159.348H262.4v35h131.2z"/><path stroke="#203435" stroke-width=".5" d="M393.6 159.348H262.4v35h131.2z"/><path fill="#fff" fill-opacity=".01" d="M393.6 194.348H262.4v35h131.2z"/><path stroke="#203435" stroke-width=".5" d="M393.6 194.348H262.4v35h131.2zm131.2-105H393.6v35h131.2z"/><path fill="#fff" fill-opacity=".01" d="M524.8 194.348H393.6v35h131.2z"/><path stroke="#203435" stroke-width=".5" d="M524.8 194.348H393.6v35h131.2z"/><path fill="#fff" fill-opacity=".01" d="M656.001 54.348h-131.2v35h131.2z"/><path stroke="#203435" stroke-width=".5" d="M656.001 54.348h-131.2v35h131.2z"/><path fill="#02181a" stroke="#203435" stroke-width=".5" d="M656.001 89.348h-131.2v35h131.2zm0-35h-131.2v35h131.2zm0 70h-131.2v35h131.2z"/><path fill="#fff" fill-opacity=".01" d="M656.001 159.348h-131.2v35h131.2z"/><path stroke="#203435" stroke-width=".5" d="M656.001 159.348h-131.2v35h131.2z"/><path fill="#fff" fill-opacity=".01" d="M656.001 194.348h-131.2v35h131.2z"/><path stroke="#203435" stroke-width=".5" d="M656.001 194.348h-131.2v35h131.2z"/><path fill="#fff" fill-opacity=".01" d="M787.2 54.348H656v35h131.2z"/><path stroke="#203435" stroke-width=".5" d="M787.2 54.348H656v35h131.2z"/><path fill="#fff" fill-opacity=".01" d="M787.2 89.348H656v35h131.2z"/><path stroke="#203435" stroke-width=".5" d="M787.2 89.348H656v35h131.2z"/><path fill="#fff" fill-opacity=".01" d="M787.2 124.348H656v35h131.2z"/><path stroke="#203435" stroke-width=".5" d="M787.2 124.348H656v35h131.2z"/><path fill="#fff" fill-opacity=".01" d="M787.2 159.348H656v35h131.2z"/><path stroke="#203435" stroke-width=".5" d="M787.2 159.348H656v35h131.2z"/><path fill="#fff" fill-opacity=".01" d="M787.2 194.348H656v35h131.2z"/><path stroke="#203435" stroke-width=".5" d="M787.2 194.348H656v35h131.2z"/><path fill="#fff" fill-opacity=".01" d="M918.399 54.348h-131.2v35h131.2z"/><path stroke="#203435" stroke-width=".5" d="M918.399 54.348h-131.2v35h131.2z"/><path fill="#02181a" stroke="#203435" stroke-width=".5" d="M918.399 89.348h-131.2v35h131.2zm0-35h-131.2v35h131.2z"/><path fill="#02181a" d="M787.202 89.348h-131.2v35h131.2z"/><path fill="#02181a" stroke="#203435" stroke-width=".5" d="M787.202 54.348h-131.2v35h131.2z"/><path fill="#fff" fill-opacity=".01" d="M918.399 124.348h-131.2v35h131.2z"/><path stroke="#203435" stroke-width=".5" d="M918.399 124.348h-131.2v35h131.2z"/><path fill="#fff" fill-opacity=".01" d="M918.399 159.348h-131.2v35h131.2z"/><path stroke="#203435" stroke-width=".5" d="M918.399 159.348h-131.2v35h131.2z"/><path fill="#fff" fill-opacity=".01" d="M918.399 194.348h-131.2v35h131.2z"/><path stroke="#203435" stroke-width=".5" d="M918.399 194.348h-131.2v35h131.2z"/><path fill="#fff" fill-opacity=".01" d="M1049.6 54.348H918.398v35H1049.6z"/><path stroke="#203435" stroke-width=".5" d="M1049.6 54.348H918.398v35H1049.6z"/><path fill="#02181a" stroke="#203435" stroke-width=".5" d="M1049.6 89.348H918.398v35H1049.6zm0-35H918.398v35H1049.6z"/><path fill="#02181a" d="M1180.41 54.348h-131.2v35h131.2z"/><path fill="#02181a" stroke="#203435" stroke-width=".5" d="M787.2 124.348H656v35h131.2zm131.201 0h-131.2v35h131.2z"/><path fill="#fff" fill-opacity=".01" d="M1049.6 159.348H918.398v35H1049.6z"/><path stroke="#203435" stroke-width=".5" d="M1049.6 159.348H918.398v35H1049.6z"/><path fill="#fff" fill-opacity=".01" d="M1049.6 194.348H918.398v35H1049.6z"/><path stroke="#203435" stroke-width=".5" d="M1049.6 194.348H918.398v35H1049.6z"/><path fill="#fff" fill-opacity=".01" d="M1180.8 54.348h-131.2v35h131.2z"/><path stroke="#203435" stroke-width=".5" d="M1180.8 54.348h-131.2v35h131.2z"/><path fill="#fff" fill-opacity=".01" d="M1180.8 89.348h-131.2v35h131.2z"/><path fill="#fff" fill-opacity=".01" d="M1155.55 71.848h-131.2v35h131.2z"/><path stroke="#203435" stroke-width=".5" d="M1180.8 89.348h-131.2v35h131.2z"/><path fill="#fff" fill-opacity=".01" d="M1180.8 124.348h-131.2v35h131.2z"/><path stroke="#203435" stroke-width=".5" d="M1180.8 124.348h-131.2v35h131.2z"/><path fill="#fff" fill-opacity=".01" d="M1180.8 159.348h-131.2v35h131.2z"/><path stroke="#203435" stroke-width=".5" d="M1180.8 159.348h-131.2v35h131.2z"/><path fill="#fff" fill-opacity=".01" d="M1180.8 194.348h-131.2v35h131.2z"/><path stroke="#203435" stroke-width=".5" d="M1180.8 194.348h-131.2v35h131.2z"/><path fill="#fff" fill-opacity=".01" d="M1312 54.348h-131.2v35H1312z"/><path stroke="#203435" stroke-width=".5" d="M1312 54.348h-131.2v35H1312z"/><path fill="#fff" fill-opacity=".01" d="M1312 89.348h-131.2v35H1312z"/><path stroke="#203435" stroke-width=".5" d="M1312 89.348h-131.2v35H1312z"/><path fill="#fff" fill-opacity=".01" d="M1312 124.348h-131.2v35H1312z"/><path stroke="#203435" stroke-width=".5" d="M1312 124.348h-131.2v35H1312z"/><path fill="#fff" fill-opacity=".01" d="M1312 159.348h-131.2v35H1312z"/><path stroke="#203435" stroke-width=".5" d="M1312 159.348h-131.2v35H1312z"/><path fill="#fff" fill-opacity=".01" d="M1312 194.348h-131.2v35H1312z"/><path stroke="#203435" stroke-width=".5" d="M1312 194.348h-131.2v35H1312z"/></g></g><defs><linearGradient id="d" x1="1377.66" x2="1084.87" y1="281.114" y2="-102.603" gradientUnits="userSpaceOnUse"><stop stop-color="#e7f8f5"/><stop offset=".2" stop-color="#0bfaee"/><stop offset=".4" stop-color="#00df9c"/><stop offset=".6" stop-color="#055d5d"/><stop offset=".8" stop-color="#05393b"/><stop offset="1" stop-color="#052528"/></linearGradient><clipPath id="a"><path fill="#fff" d="M0 0h1312v229H0z"/></clipPath><filter id="c" width="2100" height="1559.73" x="107" y="-633.941" color-interpolation-filters="sRGB" filterUnits="userSpaceOnUse"><feFlood flood-opacity="0" result="BackgroundImageFix"/><feBlend in="SourceGraphic" in2="BackgroundImageFix" result="shape"/><feGaussianBlur result="effect1_foregroundBlur_1_984" stdDeviation="25"/></filter></defs></svg>