<svg xmlns="http://www.w3.org/2000/svg" width="495" height="123" fill="none" viewBox="0 0 495 123"><g opacity=".5"><path fill="url(#a)" d="M0 0h150v30H0z" transform="matrix(1 0 0 -1 0 123)"/><path fill="url(#b)" d="M0 0h150v30H0z" transform="matrix(1 0 0 -1 0 92)"/><path fill="url(#c)" d="M0 0h150v30H0z" transform="matrix(1 0 0 -1 0 61)"/><path fill="url(#d)" d="M0 0h150v30H0z" transform="matrix(1 0 0 -1 151 61)"/><path fill="url(#e)" d="M0 0h150v30H0z" transform="matrix(1 0 0 -1 0 30)"/><path fill="url(#f)" d="M0 0h150v30H0z" transform="matrix(1 0 0 -1 151 30)"/><path fill="url(#g)" d="M0 0h150v30H0z" transform="matrix(1 0 0 -1 302 30)"/></g><defs><linearGradient id="a" x1="0" x2="99.095" y1="15" y2="0" gradientUnits="userSpaceOnUse"><stop stop-color="#00df9c"/><stop offset="1" stop-color="#007955" stop-opacity="0"/></linearGradient><linearGradient id="b" x1="53.816" x2="144.131" y1="34.149" y2="7.395" gradientUnits="userSpaceOnUse"><stop stop-color="#00df9c"/><stop offset="1" stop-color="#00df9c" stop-opacity="0"/></linearGradient><linearGradient id="c" x1="122.478" x2="3.105" y1="25.762" y2="4.357" gradientUnits="userSpaceOnUse"><stop stop-color="#00df9c" stop-opacity=".5"/><stop offset="1" stop-color="#00df9c"/></linearGradient><linearGradient id="d" x1="0" x2="150" y1="15" y2="15" gradientUnits="userSpaceOnUse"><stop stop-color="#00df9c"/><stop offset="1" stop-color="#007955" stop-opacity="0"/></linearGradient><linearGradient id="e" x1="141.819" x2="0" y1="5.392" y2="15" gradientUnits="userSpaceOnUse"><stop stop-color="#00df9c" stop-opacity=".3"/><stop offset="1" stop-color="#00df9c"/></linearGradient><linearGradient id="f" x1="141.819" x2="0" y1="5.392" y2="15" gradientUnits="userSpaceOnUse"><stop stop-color="#00df9c" stop-opacity=".5"/><stop offset="1" stop-color="#00df9c"/></linearGradient><linearGradient id="g" x1="0" x2="150" y1="15" y2="15" gradientUnits="userSpaceOnUse"><stop stop-color="#00df9c"/><stop offset="1" stop-color="#00df9c" stop-opacity="0"/></linearGradient></defs></svg>