<svg width="495" height="123" viewBox="0 0 495 123" fill="none" xmlns="http://www.w3.org/2000/svg">
<g opacity="0.5">
<rect width="150" height="30" transform="matrix(-1 0 0 1 495 0)" fill="url(#paint0_linear_1_888)"/>
<rect width="150" height="30" transform="matrix(-1 0 0 1 495 31)" fill="url(#paint1_linear_1_888)"/>
<rect width="150" height="30" transform="matrix(-1 0 0 1 495 62)" fill="url(#paint2_linear_1_888)"/>
<rect width="150" height="30" transform="matrix(-1 0 0 1 344 62)" fill="url(#paint3_linear_1_888)"/>
<rect width="150" height="30" transform="matrix(-1 0 0 1 495 93)" fill="url(#paint4_linear_1_888)"/>
<rect width="150" height="30" transform="matrix(-1 0 0 1 344 93)" fill="url(#paint5_linear_1_888)"/>
<rect width="150" height="30" transform="matrix(-1 0 0 1 193 93)" fill="url(#paint6_linear_1_888)"/>
</g>
<defs>
<linearGradient id="paint0_linear_1_888" x1="-8.9407e-08" y1="15" x2="99.0947" y2="5.01018e-07" gradientUnits="userSpaceOnUse">
<stop stop-color="#00DF9C"/>
<stop offset="1" stop-color="#007955" stop-opacity="0"/>
</linearGradient>
<linearGradient id="paint1_linear_1_888" x1="53.8158" y1="34.1493" x2="144.131" y2="7.39529" gradientUnits="userSpaceOnUse">
<stop stop-color="#00DF9C"/>
<stop offset="1" stop-color="#00DF9C" stop-opacity="0"/>
</linearGradient>
<linearGradient id="paint2_linear_1_888" x1="122.478" y1="25.762" x2="3.1048" y2="4.35719" gradientUnits="userSpaceOnUse">
<stop stop-color="#00DF9C" stop-opacity="0.5"/>
<stop offset="1" stop-color="#00DF9C"/>
</linearGradient>
<linearGradient id="paint3_linear_1_888" x1="0" y1="15" x2="150" y2="15" gradientUnits="userSpaceOnUse">
<stop stop-color="#00DF9C"/>
<stop offset="1" stop-color="#007955" stop-opacity="0"/>
</linearGradient>
<linearGradient id="paint4_linear_1_888" x1="141.819" y1="5.39203" x2="2.49874e-06" y2="15" gradientUnits="userSpaceOnUse">
<stop stop-color="#00DF9C" stop-opacity="0.3"/>
<stop offset="1" stop-color="#00DF9C"/>
</linearGradient>
<linearGradient id="paint5_linear_1_888" x1="141.819" y1="5.39203" x2="2.49874e-06" y2="15" gradientUnits="userSpaceOnUse">
<stop stop-color="#00DF9C" stop-opacity="0.5"/>
<stop offset="1" stop-color="#00DF9C"/>
</linearGradient>
<linearGradient id="paint6_linear_1_888" x1="0" y1="15" x2="150" y2="15" gradientUnits="userSpaceOnUse">
<stop stop-color="#00DF9C"/>
<stop offset="1" stop-color="#00DF9C" stop-opacity="0"/>
</linearGradient>
</defs>
</svg>
