<svg xmlns="http://www.w3.org/2000/svg" width="50" height="50" fill="none" viewBox="0 0 50 50"><path stroke="#000" stroke-linecap="round" stroke-width="1.25" d="M28.75 30.625v-2.664a1.25 1.25 0 0 1 1.943-1.04l11.497 7.664a1.25 1.25 0 0 1 0 2.08l-11.497 7.664a1.25 1.25 0 0 1-1.943-1.04v-2.664m0-31.25V6.711a1.25 1.25 0 0 1 1.943-1.04l11.497 7.664a1.25 1.25 0 0 1 0 2.08l-11.497 7.664a1.25 1.25 0 0 1-1.943-1.04v-2.664"/><path stroke="#000" stroke-linecap="round" stroke-width="1.25" d="M15 30.625v-2.664a1.25 1.25 0 0 1 1.943-1.04l11.497 7.664a1.25 1.25 0 0 1 0 2.08l-11.497 7.664A1.25 1.25 0 0 1 15 43.29v-2.664"/><path stroke="#00df9c" stroke-linecap="round" stroke-width="1.25" d="M15 9.375V6.711a1.25 1.25 0 0 1 1.943-1.04l11.497 7.664a1.25 1.25 0 0 1 0 2.08l-11.497 7.664A1.25 1.25 0 0 1 15 22.04v-2.664M1.25 30.625v-2.664a1.25 1.25 0 0 1 1.943-1.04l11.497 7.664a1.25 1.25 0 0 1 0 2.08L3.193 44.329a1.25 1.25 0 0 1-1.943-1.04v-2.664"/><path stroke="#00df9c" stroke-linecap="round" stroke-opacity=".2" stroke-width="1.25" d="M1.25 9.375V6.711a1.25 1.25 0 0 1 1.943-1.04l11.497 7.664a1.25 1.25 0 0 1 0 2.08L3.193 23.079a1.25 1.25 0 0 1-1.943-1.04v-2.664"/></svg>