<svg xmlns="http://www.w3.org/2000/svg" width="60" height="60" fill="none" viewBox="0 0 60 60"><path stroke="#fff" stroke-width="1.481" d="M27.72 35.024a5.93 5.93 0 0 1 4.56 0L55.025 44.5a.74.74 0 0 1 0 1.367l-22.747 9.479a5.93 5.93 0 0 1-4.558 0L4.974 45.87a.74.74 0 0 1 0-1.367z"/><path stroke="#fff" stroke-opacity=".5" stroke-width="1.481" d="M27.72 24.654a5.93 5.93 0 0 1 4.56 0l22.746 9.476a.74.74 0 0 1 0 1.368l-22.747 9.478a5.93 5.93 0 0 1-4.558 0L4.974 35.5a.74.74 0 0 1 0-1.368z"/><path stroke="#fff" stroke-width="1.481" d="M27.72 14.283a5.93 5.93 0 0 1 4.56 0l22.746 9.477a.74.74 0 0 1 0 1.367l-22.747 9.479a5.93 5.93 0 0 1-4.558 0L4.974 25.129a.74.74 0 0 1 0-1.367z"/><path stroke="#fff" stroke-opacity=".5" stroke-width="1.481" d="M27.72 3.913a5.93 5.93 0 0 1 4.56 0l22.746 9.477a.74.74 0 0 1 0 1.367l-22.747 9.479a5.93 5.93 0 0 1-4.558 0L4.974 14.759a.74.74 0 0 1 0-1.368z"/></svg>