<svg width="60" height="60" viewBox="0 0 60 60" fill="none" xmlns="http://www.w3.org/2000/svg">
<path fill-rule="evenodd" clip-rule="evenodd" d="M25.0772 13.919V31.3889C25.0772 31.7451 24.788 32.0344 24.4318 32.0344C24.0755 32.0344 23.7863 31.7451 23.7863 31.3889V13.2736C23.7863 13.1024 23.8543 12.9382 23.9753 12.8172L29.3754 7.41715C29.4353 7.3572 29.5065 7.30964 29.5848 7.27719C29.6631 7.24474 29.747 7.22804 29.8317 7.22803H50.6611C50.8323 7.22803 50.9965 7.29603 51.1175 7.41708C51.2386 7.53813 51.3066 7.70231 51.3066 7.87349V34.1333C51.3066 34.4895 51.0173 34.7787 50.6611 34.7787C50.3048 34.7787 50.0157 34.4895 50.0157 34.1333V8.51896H30.4772V13.2736C30.4772 13.4447 30.4092 13.6089 30.2882 13.73C30.1671 13.851 30.0029 13.919 29.8317 13.919H25.0772ZM29.1863 9.43183L25.99 12.6281H29.1863V9.43183ZM19.4907 47.8574L19.8462 48.7115L19.8465 48.7122C20.0558 49.2182 20.0562 49.7281 19.8495 50.2368L19.8484 50.2396C19.6392 50.7417 19.2785 51.1037 18.7709 51.3174L18.7693 51.3181L15.6129 52.6266C14.6008 53.0493 13.4289 52.5645 13.009 51.5531C11.2283 47.2742 9.44496 42.9953 7.6643 38.7164C7.45075 38.2114 7.4501 37.6989 7.66052 37.1902C7.87039 36.6828 8.23296 36.3204 8.73707 36.1104L11.8967 34.799C12.9082 34.3792 14.0763 34.8597 14.5003 35.8719L14.5005 35.8725L14.8139 36.6253C16.3869 35.8818 17.9576 35.1337 19.5211 34.3689C21.342 33.478 22.8223 32.8458 24.4456 32.8806C25.879 32.9114 27.4377 33.4524 29.4393 34.8556L35.2827 36.421C36.2752 36.6868 37.0519 37.368 37.4761 38.2277L45.697 35.816C48.2392 35.0702 49.9393 35.2577 50.9767 35.8388C52.0847 36.4595 52.5448 37.5251 52.5005 38.6586C52.439 40.2356 51.3448 41.939 49.7453 42.5562L37.4202 47.3055C35.3639 48.0968 32.6179 49.2104 30.4113 48.5697L23.8449 46.6648L23.8439 46.6646C23.049 46.4325 22.2862 46.497 21.5406 46.8601L19.4907 47.8574ZM18.6534 49.2058C18.4577 48.7357 13.4992 36.8272 13.3089 36.3697C13.1594 36.0134 12.7481 35.8437 12.3917 35.9916L9.23316 37.3025C9.05547 37.3766 8.92776 37.5046 8.85371 37.6837C8.7805 37.8607 8.77949 38.039 8.85491 38.2167L8.85574 38.2187C10.6367 42.4982 12.4202 46.7776 14.2012 51.0573L14.2013 51.0575C14.3488 51.413 14.7605 51.5837 15.117 51.4344L18.2725 50.1263L18.2738 50.1257C18.4524 50.0499 18.5808 49.9228 18.656 49.7442C18.7275 49.5652 18.7273 49.3848 18.6534 49.2058ZM18.9936 46.6633L20.9753 45.6993C22.021 45.19 23.0908 45.0997 24.2047 45.4248L30.7711 47.3297C31.7058 47.601 32.7519 47.4713 33.7826 47.2071C34.9045 46.9197 36.0085 46.4653 36.9562 46.1006L49.2806 41.3515C50.22 40.989 50.9022 40.0866 51.1314 39.1549C51.3386 38.3124 51.1643 37.424 50.3456 36.9653C49.5035 36.4936 48.1243 36.4496 46.0605 37.055L37.8216 39.4719C37.8537 39.8625 37.8181 40.2557 37.7165 40.6341C37.6452 40.9006 37.542 41.1574 37.4091 41.3991C36.6638 42.7531 35.0575 43.4842 33.5033 43.0652L25.5897 40.9463C25.4244 40.9019 25.2834 40.7936 25.1978 40.6454C25.1122 40.4971 25.0889 40.321 25.1331 40.1556C25.1775 39.9902 25.2857 39.8493 25.4339 39.7637C25.5822 39.6781 25.7583 39.6548 25.9237 39.699L33.8373 41.818L33.8383 41.8183C34.8098 42.0802 35.8124 41.6222 36.2778 40.7765C36.3606 40.626 36.4248 40.4661 36.4692 40.3002C36.7748 39.1588 36.09 37.9739 34.9487 37.6682L28.9941 36.0732C28.92 36.0533 28.8501 36.0204 28.7876 35.976C27.0221 34.7231 25.6732 34.1985 24.4178 34.1715C22.9861 34.1408 21.6944 34.7431 20.0885 35.5288C18.5015 36.305 16.9072 37.0643 15.3106 37.8187C16.5379 40.7667 17.7661 43.7149 18.9936 46.6633ZM27.9978 22.8734C27.6415 22.8734 27.3523 22.5841 27.3523 22.2279C27.3523 21.8716 27.6415 21.5825 27.9978 21.5825H47.095C47.4513 21.5825 47.7405 21.8716 47.7405 22.2279C47.7405 22.5841 47.4513 22.8734 47.095 22.8734H27.9978ZM27.9978 18.3697C27.6415 18.3697 27.3523 18.0805 27.3523 17.7242C27.3523 17.368 27.6415 17.0788 27.9978 17.0788H47.095C47.4513 17.0788 47.7405 17.368 47.7405 17.7242C47.7405 18.0805 47.4513 18.3697 47.095 18.3697H27.9978ZM27.9978 27.3789C27.6415 27.3789 27.3523 27.0898 27.3523 26.7335C27.3523 26.3773 27.6415 26.088 27.9978 26.088H47.095C47.4513 26.088 47.7405 26.3773 47.7405 26.7335C47.7405 27.0898 47.4513 27.3789 47.095 27.3789H27.9978ZM33.955 31.8715C33.8244 31.7608 33.7431 31.6029 33.7288 31.4323C33.7146 31.2618 33.7687 31.0925 33.8792 30.9618C33.9898 30.8312 34.1478 30.7499 34.3184 30.7357C34.4889 30.7215 34.6582 30.7755 34.7889 30.886L36.8982 32.6708L40.2925 29.6592C40.5589 29.4228 40.9672 29.4472 41.2037 29.7137C41.4401 29.9802 41.4157 30.3884 41.1493 30.6249L37.3366 34.0077C37.2204 34.1107 37.071 34.1684 36.9158 34.1703C36.7605 34.1721 36.6098 34.1179 36.4913 34.0176L33.955 31.8715Z" fill="#02181A"/>
</svg>
