<svg width="507" height="289" viewBox="0 0 507 289" fill="none" xmlns="http://www.w3.org/2000/svg">
<path d="M8.91704 288.742V255.622C35.8097 236.372 58.3146 219.387 76.4318 204.667C94.832 189.947 109.552 176.359 120.592 163.904C131.632 151.448 139.559 139.7 144.371 128.66C149.467 117.337 152.014 105.872 152.014 94.2657C152.014 79.2624 147.343 67.09 138.002 57.7483C128.66 48.4067 115.638 43.7358 98.9367 43.7358C81.3857 43.7358 67.3732 49.6805 56.8992 61.5699C46.7083 73.1762 40.9051 89.1703 39.4897 109.552L0 91.2934C1.98156 73.4593 7.21855 58.0314 15.711 45.0097C24.2034 31.988 35.6682 21.9386 50.1053 14.8616C64.8255 7.7846 81.8103 4.24609 101.06 4.24609C116.912 4.24609 130.783 6.51073 142.673 11.04C154.845 15.5693 165.036 21.9386 173.245 30.148C181.455 38.0742 187.682 47.4159 191.929 58.1729C196.458 68.93 198.723 80.3948 198.723 92.5672C198.723 110.401 194.335 127.669 185.559 144.371C176.784 160.79 162.913 177.633 143.946 194.901C124.98 212.169 100.069 230.711 69.2132 250.526V251.375C72.6102 250.809 77.281 250.526 83.2257 250.526C89.1704 250.243 95.1151 250.102 101.06 250.102C107.004 249.818 111.817 249.677 115.497 249.677H203.818V288.742H8.91704Z" fill="black"/>
<path d="M321.88 288.742C288.193 288.742 261.725 276.57 242.475 252.225C223.509 227.597 214.026 191.646 214.026 144.371C214.026 97.0966 223.509 61.2869 242.475 36.942C261.725 12.314 288.193 0 321.88 0C355.849 0 382.317 12.314 401.284 36.942C420.533 61.2869 430.158 97.0966 430.158 144.371C430.158 191.646 420.533 227.597 401.284 252.225C382.317 276.57 355.849 288.742 321.88 288.742ZM321.88 250.102C335.467 250.102 346.791 246.28 355.849 238.637C365.191 230.711 372.126 218.963 376.656 203.393C381.468 187.541 383.874 167.867 383.874 144.371C383.874 120.875 381.468 101.343 376.656 85.7734C372.126 69.9209 365.191 58.173 355.849 50.5299C346.791 42.6036 335.467 38.6405 321.88 38.6405C308.292 38.6405 296.827 42.6036 287.485 50.5299C278.427 58.173 271.633 69.9209 267.103 85.7734C262.574 101.343 260.31 120.875 260.31 144.371C260.31 167.867 262.574 187.541 267.103 203.393C271.633 218.963 278.427 230.711 287.485 238.637C296.827 246.28 308.292 250.102 321.88 250.102Z" fill="black"/>
<path d="M456.177 109.125L463.761 113.522L468.475 113.522L468.475 115.516L463.761 115.516L456.177 119.895L456.177 117.678L460.146 115.479L461.972 114.51L460.146 113.541L456.177 111.361L456.177 109.125ZM468.661 104.864C468.661 105.795 468.469 106.615 468.084 107.323C467.699 108.031 467.146 108.584 466.425 108.982C465.692 109.367 464.823 109.559 463.817 109.559C462.81 109.559 461.947 109.367 461.226 108.982C460.493 108.584 459.934 108.038 459.549 107.342C459.164 106.646 458.972 105.857 458.972 104.975C458.972 104.068 459.158 103.298 459.531 102.665C459.903 102.031 460.413 101.547 461.059 101.211C461.705 100.876 462.438 100.708 463.258 100.708C463.481 100.708 463.692 100.714 463.891 100.727C464.09 100.739 464.264 100.758 464.413 100.783L464.413 108.274L462.885 108.274L462.885 101.658L463.183 102.646C462.338 102.646 461.692 102.857 461.245 103.28C460.785 103.702 460.556 104.28 460.556 105.013C460.556 105.547 460.68 106.013 460.928 106.41C461.177 106.808 461.549 107.112 462.046 107.323C462.531 107.534 463.127 107.64 463.835 107.64C464.531 107.64 465.121 107.528 465.605 107.305C466.09 107.081 466.456 106.764 466.705 106.354C466.953 105.944 467.078 105.46 467.078 104.901C467.078 104.28 466.96 103.777 466.723 103.391C466.487 103.006 466.158 102.702 465.736 102.478L466.481 100.894C466.928 101.118 467.32 101.422 467.655 101.807C467.978 102.18 468.227 102.627 468.401 103.149C468.574 103.671 468.661 104.242 468.661 104.864ZM462.494 92.8048C461.872 92.8048 461.394 92.9788 461.059 93.3266C460.711 93.662 460.537 94.1279 460.537 94.7242C460.537 95.2832 460.667 95.7615 460.928 96.159C461.189 96.5565 461.611 96.8485 462.195 97.0348L461.487 98.7119C460.729 98.4758 460.121 98.0162 459.661 97.3329C459.201 96.6373 458.972 95.7428 458.972 94.6496C458.972 93.9043 459.096 93.2458 459.344 92.6744C459.58 92.1029 459.941 91.6557 460.425 91.3327C460.91 90.9973 461.531 90.8296 462.289 90.8296L466.444 90.8296C466.904 90.8296 467.133 90.5998 467.133 90.1401C467.133 89.9165 467.102 89.6991 467.04 89.4879L468.419 89.5997C468.556 89.8855 468.624 90.2457 468.624 90.6805C468.624 91.0781 468.556 91.4383 468.419 91.7613C468.27 92.0719 468.053 92.3203 467.767 92.5067C467.469 92.6806 467.102 92.7676 466.668 92.7676L466.537 92.7676L466.519 92.3576C467.003 92.4694 467.407 92.6992 467.73 93.0471C468.04 93.3949 468.276 93.7987 468.438 94.2583C468.587 94.7179 468.661 95.1838 468.661 95.6559C468.661 96.2397 468.568 96.7677 468.382 97.2398C468.196 97.6994 467.916 98.0659 467.543 98.3392C467.158 98.6001 466.686 98.7305 466.127 98.7305C465.432 98.7305 464.86 98.5069 464.413 98.0597C463.966 97.6 463.661 96.9541 463.5 96.1217L462.792 92.5067L464.189 92.5253L464.73 95.1527C464.829 95.6745 464.972 96.0658 465.158 96.3267C465.345 96.5876 465.618 96.718 465.978 96.718C466.326 96.718 466.605 96.5876 466.817 96.3267C467.015 96.0534 467.115 95.6931 467.115 95.2459C467.115 94.9353 467.078 94.6372 467.003 94.3515C466.928 94.0533 466.81 93.7862 466.649 93.5502C466.475 93.3142 466.258 93.134 465.997 93.0098C465.723 92.8732 465.4 92.8048 465.028 92.8048L462.494 92.8048ZM468.475 87.5628L459.158 87.5628L459.158 85.8671L460.835 85.6807C460.226 85.4323 459.767 85.0658 459.456 84.5813C459.133 84.0844 458.972 83.4757 458.972 82.7552C458.972 82.5688 458.99 82.3825 459.028 82.1961C459.052 82.0098 459.096 81.8545 459.158 81.7303L460.91 82.0098C460.86 82.1464 460.823 82.3017 460.798 82.4757C460.761 82.6372 460.742 82.8608 460.742 83.1465C460.742 83.5316 460.847 83.9105 461.059 84.2832C461.257 84.6559 461.562 84.9664 461.972 85.2149C462.382 85.4509 462.903 85.5689 463.537 85.5689L468.475 85.5689L468.475 87.5628ZM468.661 76.6159C468.661 77.5476 468.481 78.3986 468.121 79.1688C467.761 79.939 467.251 80.5477 466.593 80.995L465.4 79.616C465.91 79.3427 466.32 78.9514 466.63 78.4421C466.928 77.9203 467.078 77.2992 467.078 76.5787C467.078 76.0072 466.978 75.5538 466.779 75.2184C466.581 74.8829 466.301 74.7152 465.941 74.7152C465.705 74.7152 465.5 74.796 465.326 74.9575C465.14 75.1065 464.997 75.3985 464.897 75.8333L464.487 77.7899C464.289 78.7837 463.972 79.4918 463.537 79.9142C463.09 80.3366 462.525 80.5477 461.841 80.5477C461.332 80.5477 460.86 80.3987 460.425 80.1005C459.99 79.8024 459.642 79.3676 459.382 78.7961C459.108 78.2123 458.972 77.5166 458.972 76.7091C458.972 75.7774 459.139 74.9823 459.475 74.3239C459.798 73.6655 460.264 73.1624 460.872 72.8145L462.028 74.1935C461.531 74.4295 461.164 74.7773 460.928 75.237C460.68 75.6966 460.556 76.1749 460.556 76.6718C460.556 77.0694 460.605 77.411 460.705 77.6967C460.804 77.9824 460.941 78.1998 461.115 78.3489C461.288 78.498 461.493 78.5725 461.73 78.5725C461.978 78.5725 462.195 78.4793 462.382 78.293C462.568 78.1067 462.711 77.7712 462.81 77.2868L463.258 75.1625C463.431 74.268 463.73 73.6407 464.152 73.2804C464.562 72.9077 465.065 72.7214 465.661 72.7214C466.258 72.7214 466.786 72.8767 467.245 73.1872C467.692 73.4978 468.04 73.945 468.289 74.5289C468.537 75.1128 468.661 75.8084 468.661 76.6159ZM490.475 118.255L478.177 118.255L478.177 109.348L479.891 109.348L479.891 116.262L483.431 116.262L483.431 110.858L485.108 110.858L485.108 116.262L488.761 116.262L488.761 109.087L490.475 109.087L490.475 118.255ZM481.158 105.235L485.146 102.607L485.202 102.235L490.475 98.452L490.475 100.819L486.376 103.558L486.226 103.986L481.158 107.639L481.158 105.235ZM481.158 98.5079L486.152 102.16L486.133 102.57L490.475 105.552L490.475 107.825L485.164 103.856L485.202 103.465L481.158 100.8L481.158 98.5079ZM494.388 96.4432L481.158 96.4432L481.158 94.6729L483.767 94.5238L483.45 94.7847C482.966 94.6356 482.537 94.4058 482.164 94.0953C481.792 93.7847 481.5 93.3996 481.288 92.9399C481.077 92.4679 480.972 91.9523 480.972 91.3933C480.972 90.6355 481.164 89.946 481.549 89.3249C481.934 88.7038 482.487 88.2131 483.208 87.8528C483.916 87.4925 484.779 87.3124 485.798 87.3124C486.817 87.3124 487.692 87.4987 488.425 87.8714C489.146 88.2317 489.699 88.7286 490.084 89.3622C490.469 89.9833 490.661 90.679 490.661 91.4492C490.661 92.2443 490.456 92.9213 490.047 93.4803C489.624 94.0394 489.09 94.4369 488.444 94.6729L488.127 94.4493L494.388 94.4493L494.388 96.4432ZM489.04 91.8778C489.04 91.0703 488.755 90.4429 488.183 89.9957C487.612 89.5361 486.823 89.3063 485.817 89.3063C484.81 89.3063 484.021 89.5299 483.45 89.9771C482.866 90.4243 482.574 91.0455 482.574 91.8405C482.574 92.3623 482.711 92.8219 482.984 93.2194C483.245 93.6046 483.618 93.9089 484.102 94.1325C484.574 94.3437 485.146 94.4493 485.817 94.4493C486.475 94.4493 487.046 94.3437 487.531 94.1325C488.015 93.9213 488.388 93.6232 488.649 93.2381C488.91 92.853 489.04 92.3995 489.04 91.8778ZM490.661 80.6609C490.661 81.5926 490.469 82.4125 490.084 83.1206C489.699 83.8287 489.146 84.3815 488.425 84.779C487.692 85.1641 486.823 85.3567 485.817 85.3567C484.81 85.3567 483.947 85.1641 483.226 84.779C482.493 84.3815 481.934 83.8349 481.549 83.1392C481.164 82.4435 480.972 81.6547 480.972 80.7727C480.972 79.8658 481.158 79.0956 481.531 78.462C481.903 77.8285 482.413 77.344 483.059 77.0085C483.705 76.6731 484.438 76.5054 485.258 76.5054C485.481 76.5054 485.692 76.5116 485.891 76.5241C486.09 76.5365 486.264 76.5551 486.413 76.58L486.413 84.0709L484.885 84.0709L484.885 77.4558L485.183 78.4434C484.338 78.4434 483.692 78.6546 483.245 79.0769C482.785 79.4993 482.556 80.077 482.556 80.8099C482.556 81.3441 482.68 81.81 482.928 82.2075C483.177 82.605 483.549 82.9094 484.046 83.1206C484.531 83.3318 485.127 83.4374 485.835 83.4374C486.531 83.4374 487.121 83.3255 487.605 83.1019C488.09 82.8783 488.456 82.5615 488.705 82.1516C488.953 81.7416 489.078 81.2572 489.078 80.6981C489.078 80.077 488.96 79.5739 488.723 79.1888C488.487 78.8036 488.158 78.4993 487.736 78.2757L488.481 76.6918C488.928 76.9154 489.32 77.2197 489.655 77.6048C489.978 77.9775 490.227 78.4248 490.401 78.9465C490.574 79.4683 490.661 80.0397 490.661 80.6609ZM490.475 73.9875L481.158 73.9875L481.158 72.2918L482.835 72.1054C482.226 71.857 481.767 71.4905 481.456 71.006C481.133 70.5091 480.972 69.9004 480.972 69.1798C480.972 68.9935 480.99 68.8072 481.028 68.6208C481.052 68.4345 481.096 68.2792 481.158 68.155L482.91 68.4345C482.86 68.5711 482.823 68.7264 482.798 68.9003C482.761 69.0618 482.742 69.2854 482.742 69.5712C482.742 69.9563 482.847 70.3352 483.059 70.7079C483.257 71.0805 483.562 71.3911 483.972 71.6396C484.382 71.8756 484.903 71.9936 485.537 71.9936L490.475 71.9936L490.475 73.9875ZM479.593 65.2655C479.593 65.7003 479.487 66.0357 479.276 66.2717C479.052 66.4954 478.742 66.6072 478.344 66.6072C477.947 66.6072 477.642 66.4954 477.431 66.2717C477.22 66.0357 477.114 65.7003 477.114 65.2655C477.114 64.8431 477.22 64.5201 477.431 64.2965C477.642 64.0605 477.947 63.9425 478.344 63.9425C478.742 63.9425 479.052 64.0605 479.276 64.2965C479.487 64.5201 479.593 64.8431 479.593 65.2655ZM481.158 64.2779L490.475 64.2779L490.475 66.2717L481.158 66.2717L481.158 64.2779ZM490.661 57.0587C490.661 57.9904 490.469 58.8103 490.084 59.5184C489.699 60.2265 489.146 60.7794 488.425 61.1769C487.692 61.562 486.823 61.7546 485.817 61.7546C484.81 61.7546 483.947 61.562 483.226 61.1769C482.493 60.7794 481.934 60.2328 481.549 59.5371C481.164 58.8414 480.972 58.0526 480.972 57.1705C480.972 56.2637 481.158 55.4935 481.531 54.8599C481.903 54.2263 482.413 53.7418 483.059 53.4064C483.705 53.071 484.438 52.9033 485.258 52.9033C485.481 52.9033 485.692 52.9095 485.891 52.9219C486.09 52.9344 486.264 52.953 486.413 52.9778L486.413 60.4688L484.885 60.4688L484.885 53.8536L485.183 54.8413C484.338 54.8413 483.692 55.0524 483.245 55.4748C482.785 55.8972 482.556 56.4749 482.556 57.2078C482.556 57.742 482.68 58.2078 482.928 58.6054C483.177 59.0029 483.549 59.3073 484.046 59.5184C484.531 59.7296 485.127 59.8352 485.835 59.8352C486.531 59.8352 487.121 59.7234 487.605 59.4998C488.09 59.2762 488.456 58.9594 488.705 58.5495C488.953 58.1395 489.078 57.655 489.078 57.096C489.078 56.4749 488.96 55.9717 488.723 55.5866C488.487 55.2015 488.158 54.8972 487.736 54.6735L488.481 53.0896C488.928 53.3133 489.32 53.6176 489.655 54.0027C489.978 54.3754 490.227 54.8226 490.401 55.3444C490.574 55.8661 490.661 56.4376 490.661 57.0587ZM490.475 50.3853L481.158 50.3853L481.158 48.6151L483.58 48.4847L483.32 48.7455C482.785 48.5716 482.344 48.3232 481.997 48.0002C481.636 47.6648 481.375 47.2734 481.214 46.8262C481.052 46.3666 480.972 45.8821 480.972 45.3727C480.972 44.7143 481.102 44.1243 481.363 43.6025C481.611 43.0683 481.99 42.6459 482.5 42.3354C483.009 42.0248 483.655 41.8695 484.438 41.8695L490.475 41.8695L490.475 43.8634L485.053 43.8634C484.133 43.8634 483.5 44.0559 483.152 44.441C482.792 44.8137 482.611 45.2858 482.611 45.8572C482.611 46.2672 482.711 46.6647 482.91 47.0498C483.096 47.4349 483.4 47.7579 483.823 48.0188C484.245 48.2673 484.81 48.3915 485.518 48.3915L490.475 48.3915L490.475 50.3853ZM480.972 34.8232C480.972 34.0778 481.083 33.4442 481.307 32.9225C481.518 32.3883 481.823 31.9411 482.22 31.5808C482.618 31.2205 483.071 30.9472 483.58 30.7609L484.326 32.643C483.754 32.8045 483.32 33.0653 483.021 33.4256C482.711 33.7734 482.556 34.2331 482.556 34.8045C482.556 35.3635 482.686 35.8418 482.947 36.2394C483.195 36.6369 483.562 36.9412 484.046 37.1524C484.531 37.3512 485.127 37.4506 485.835 37.4506C486.531 37.4506 487.121 37.345 487.605 37.1338C488.09 36.9226 488.456 36.6183 488.705 36.2207C488.953 35.8232 489.078 35.3511 489.078 34.8045C489.078 34.3821 489.009 34.0157 488.873 33.7051C488.723 33.3945 488.519 33.1399 488.258 32.9411C487.984 32.7299 487.655 32.5871 487.27 32.5125L487.885 30.705C488.444 30.8789 488.935 31.1522 489.357 31.5249C489.767 31.8852 490.09 32.3386 490.326 32.8852C490.55 33.4318 490.661 34.0592 490.661 34.7673C490.661 35.6865 490.469 36.5002 490.084 37.2083C489.699 37.9164 489.146 38.4693 488.425 38.8668C487.692 39.2519 486.823 39.4444 485.817 39.4444C484.81 39.4444 483.947 39.2519 483.226 38.8668C482.493 38.4693 481.934 37.9226 481.549 37.227C481.164 36.5189 480.972 35.7176 480.972 34.8232ZM490.661 24.2851C490.661 25.2168 490.469 26.0367 490.084 26.7448C489.699 27.4529 489.146 28.0057 488.425 28.4032C487.692 28.7883 486.823 28.9809 485.817 28.9809C484.81 28.9809 483.947 28.7883 483.226 28.4032C482.493 28.0057 481.934 27.4591 481.549 26.7634C481.164 26.0677 480.972 25.2789 480.972 24.3969C480.972 23.49 481.158 22.7198 481.531 22.0862C481.903 21.4527 482.413 20.9682 483.059 20.6328C483.705 20.2974 484.438 20.1296 485.258 20.1296C485.481 20.1296 485.692 20.1359 485.891 20.1483C486.09 20.1607 486.264 20.1793 486.413 20.2042L486.413 27.6951L484.885 27.6951L484.885 21.08L485.183 22.0676C484.338 22.0676 483.692 22.2788 483.245 22.7012C482.785 23.1235 482.556 23.7012 482.556 24.4341C482.556 24.9683 482.68 25.4342 482.928 25.8317C483.177 26.2292 483.549 26.5336 484.046 26.7448C484.531 26.956 485.127 27.0616 485.835 27.0616C486.531 27.0616 487.121 26.9498 487.605 26.7262C488.09 26.5025 488.456 26.1858 488.705 25.7758C488.953 25.3659 489.078 24.8814 489.078 24.3223C489.078 23.7012 488.96 23.1981 488.723 22.813C488.487 22.4279 488.158 22.1235 487.736 21.8999L488.481 20.316C488.928 20.5396 489.32 20.844 489.655 21.2291C489.978 21.6017 490.227 22.049 490.401 22.5707C490.574 23.0925 490.661 23.6639 490.661 24.2851Z" fill="black"/>
<path d="M479.69 219.55V289H466.926V219.55H479.69ZM507.004 248.099V260.314H439.475V248.099H507.004Z" fill="black"/>
</svg>
