<svg xmlns="http://www.w3.org/2000/svg" width="80" height="80" fill="none" viewBox="0 0 80 80"><path fill="#02181a" d="M0 0h80v80H0z"/><path fill="#fff" fill-rule="evenodd" d="m65.997 47.67-.094-.146c-.693-.815-1.762-.51-2.203-.34l-14.85 5.722c-.943.363-2.013.589-3.334.702-.742 1.474-2.495 2.201-4.153 1.844-1.725-.372-4.194-.997-5.695-1.143-1.58-.155-3.288.291-4.908.882-.44.158-.944-.057-1.101-.498a.86.86 0 0 1 .503-1.096c1.843-.694 3.833-1.14 5.663-.974 1.259.114 2.926.498 4.374.838.566.124 1.07.237 1.51.328 1.724.364 3.074-1.138 2.265-2.67-.22-.452-.63-.78-1.101-.915L33.906 47.5c-2.265-.69-3.995.18-6.009 1.188-1.07.531-2.202 1.097-3.492 1.447-1.07.295-2.171.567-3.272.815v11.084c4.279-.046 8.18 0 11.987.543 2.855.411 5.887 1.488 8.652 1.267 3.366-.272 6.984-2.353 10.382-4.558L63.7 51.81c.792-.51 1.44-1.218 2.171-1.9.63-.589.692-1.584.126-2.24m-46.563 2.036c0-.34-.283-.622-.598-.622H14.4c-.314 0-.598.283-.598.622v14.69c0 .34.284.624.598.624h4.436c.315 0 .598-.284.598-.623zm14.976-3.834c-1.7-.51-3.146-.35-4.468.067a12.8 12.8 0 0 1-2.422-7.51c0-7.113 5.788-12.893 12.899-12.893s12.899 5.78 12.899 12.893c0 5.192-3.115 9.864-7.834 11.864a3.63 3.63 0 0 0-2.14-1.718zm-11.578-2.477a.84.84 0 0 0-.535-.588L17.61 41.29a.65.65 0 0 1-.472-.622V36.19a.65.65 0 0 1 .472-.623l4.688-1.526a.82.82 0 0 0 .535-.578 20 20 0 0 1 1.636-3.958.81.81 0 0 0 .031-.803l-2.233-4.389c-.126-.259-.095-.554.126-.756l3.177-3.168c.189-.204.472-.25.755-.124l4.373 2.24a.9.9 0 0 0 .818-.012 17.6 17.6 0 0 1 3.964-1.651.89.89 0 0 0 .567-.555l1.51-4.682a.67.67 0 0 1 .629-.452h4.468c.314 0 .534.18.629.452l1.51 4.682a.87.87 0 0 0 .598.555c1.384.395 2.705.939 3.964 1.651.22.136.535.136.786.011l4.405-2.239c.252-.136.535-.08.755.124l3.178 3.168c.188.202.251.497.094.756l-2.234 4.389c-.126.26-.094.554.032.803a18.4 18.4 0 0 1 1.636 3.958.8.8 0 0 0 .566.578l4.656 1.526a.65.65 0 0 1 .472.623v4.478a.65.65 0 0 1-.472.622l-4.656 1.516c-.283.09-.503.306-.566.576a18.2 18.2 0 0 1-1.636 3.97c-.125.236-.17.651 0 .838l-8.117 3.133c-.598.225-1.259.384-2.014.497a14.63 14.63 0 0 0 8.778-13.392c0-8.052-6.544-14.589-14.598-14.589s-14.6 6.538-14.6 14.591c0 2.952.88 5.746 2.516 8.154a44 44 0 0 0-1.195.577c-.88.452-1.793.906-2.737 1.21.153-.35.3-.617.063-1.017a20 20 0 0 1-1.636-3.959m44.203 7.748a6 6 0 0 1-.44.418c-.598.588-1.227 1.199-1.95 1.673L53.097 60.71c-3.817 2.47-8.042 4.863-12.113 4.863-2.786 0-5.405-.916-8.117-1.322-3.68-.532-7.52-.565-11.735-.52v.666c0 1.278-1.038 2.319-2.297 2.319H14.4c-1.258 0-2.296-1.04-2.296-2.32v-14.69c0-1.278 1.038-2.319 2.296-2.319h4.436c1.101 0 2.014.792 2.266 1.832.346-.09.723-.17 1.07-.26l.597-1.176a23.4 23.4 0 0 1-1.447-3.494l-4.248-1.38a2.32 2.32 0 0 1-1.604-2.24v-4.478c0-1.03.63-1.923 1.604-2.24l4.248-1.38c.377-1.21.88-2.375 1.447-3.494l-2.014-3.993c-.471-.905-.283-2.002.44-2.726l3.147-3.167c.755-.735 1.825-.905 2.737-.429l3.996 2.024a21.4 21.4 0 0 1 3.492-1.448l1.384-4.252a2.33 2.33 0 0 1 2.234-1.629h4.468c1.038 0 1.919.656 2.233 1.629l1.416 4.252c1.197.373 2.355.858 3.461 1.448l3.996-2.024c.943-.476 2.013-.306 2.737.429l3.177 3.167c.724.724.881 1.821.41 2.726l-2.014 3.993a20 20 0 0 1 1.447 3.495l4.247 1.379a2.35 2.35 0 0 1 1.637 2.24v4.478a2.36 2.36 0 0 1-1.637 2.24l-4.247 1.38a22.6 22.6 0 0 1-1.29 3.189l4.845-1.878c1.636-.622 3.178-.305 4.122.848l.126.136c1.1 1.357.975 3.36-.284 4.559m-30.58-11.197 2.642 2.623c.315.328.85.328 1.196 0l8.023-8.008v1.652c0 .463.346.848.818.848a.85.85 0 0 0 .85-.848v-3.698c0-.197-.097-.476-.221-.612-.191-.209-.63-.262-.63-.237h-3.68a.844.844 0 0 0-.85.85.85.85 0 0 0 .85.847h1.636l-7.394 7.409-2.643-2.626a.83.83 0 0 0-1.195 0l-4.94 4.921a.88.88 0 0 0 0 1.198c.345.322.856.34 1.196 0z" clip-rule="evenodd"/></svg>