<svg width="35" height="35" viewBox="0 0 35 35" fill="none" xmlns="http://www.w3.org/2000/svg">
<path fill-rule="evenodd" clip-rule="evenodd" d="M31.4488 21.7075C31.4488 21.5174 31.4113 21.3292 31.3386 21.1536C31.2659 20.978 31.1593 20.8184 31.0248 20.684C30.8904 20.5496 30.7308 20.4429 30.5552 20.3702C30.3796 20.2975 30.1914 20.26 30.0013 20.26H22.7451C22.6046 20.26 22.4694 20.2062 22.3674 20.1095L18.4261 16.3737C17.9953 15.9807 17.4335 15.762 16.8503 15.7604L5.55445 15.7706C5.21585 15.7697 4.8862 15.8793 4.61559 16.0829C4.34497 16.2864 4.14819 16.5727 4.05515 16.8983C4.03003 16.9869 1.21638 26.8966 1.14837 27.1366C0.936856 27.9413 1.41533 28.7665 2.21991 28.9821C3.02684 29.1983 3.85634 28.7195 4.07258 27.9125L5.93417 20.9651C5.96867 20.8364 6.04874 20.7247 6.15949 20.6507C6.27023 20.5768 6.40409 20.5456 6.53613 20.5629C6.66817 20.5803 6.78939 20.6451 6.87721 20.7452C6.96503 20.8454 7.01346 20.974 7.01347 21.1072V33.4903C7.01347 33.7933 6.76744 34.0393 6.46445 34.0393C6.16146 34.0393 5.91543 33.7933 5.91543 33.4903V25.2774L5.13322 28.1967C4.76002 29.5894 3.32845 30.4159 1.93573 30.0427C0.543003 29.6696 -0.283546 28.238 0.0895811 26.8453L0.0917772 26.8374L2.99904 16.5977L2.99925 16.5969C3.32516 15.4559 4.36912 14.6701 5.55562 14.6726V14.6697L16.8525 14.6623C17.7155 14.6646 18.5462 14.9905 19.1805 15.5757L22.9639 19.162H30.0013C30.6764 19.162 31.3238 19.4302 31.8012 19.9076C32.2786 20.385 32.5468 21.0324 32.5468 21.7075V21.7077M32.5468 21.7077C32.5468 22.3829 32.2786 23.0303 31.8012 23.5077C31.3238 23.9851 30.6764 24.2533 30.0013 24.2533H21.5219C21.385 24.2533 21.2531 24.2021 21.152 24.1099L19.2238 22.3518V33.4903C19.2238 33.7933 18.9778 34.0393 18.6748 34.0393C18.3718 34.0393 18.1258 33.7933 18.1258 33.4903V21.6067C18.1258 21.4761 18.163 21.3483 18.2331 21.2382C18.3032 21.1281 18.4032 21.0402 18.5215 20.9849C18.6397 20.9297 18.7713 20.9093 18.9007 20.9261C19.0301 20.943 19.1521 20.9964 19.2522 21.0801L21.7346 23.1552H30.0013C30.1914 23.1552 30.3796 23.1178 30.5552 23.0451C30.7308 22.9723 30.8904 22.8657 31.0248 22.7313C31.1592 22.5969 31.2658 22.4373 31.3386 22.2617C31.4113 22.0861 31.4488 21.8978 31.4488 21.7077M29.5101 1.95635C28.7999 1.57897 28.0068 1.32896 27.158 1.23975C23.6102 0.866137 20.4315 3.43926 20.0579 6.98709C19.9088 8.40534 20.2306 9.76382 20.8965 10.9082C20.9696 11.034 20.9899 11.1838 20.9527 11.3246C20.9155 11.4653 20.8239 11.5856 20.6981 11.6588C20.5723 11.732 20.4225 11.7522 20.2817 11.715C20.1409 11.6778 20.0207 11.5862 19.9474 11.4604C19.1681 10.1214 18.7914 8.53176 18.9659 6.87214C19.403 2.72128 23.122 -0.289412 27.2728 0.147745C28.3497 0.260912 29.3497 0.595333 30.2326 1.10091L30.1181 0.699853C30.035 0.408461 30.204 0.104373 30.4954 0.0211962C30.7868 -0.0619803 31.0909 0.107049 31.174 0.398441L31.7153 2.29469C31.7382 2.37479 31.7425 2.45905 31.728 2.54107C31.7134 2.6231 31.6805 2.70075 31.6315 2.76815C31.5825 2.83552 31.5189 2.89087 31.4453 2.93001C31.3718 2.96915 31.2903 2.99106 31.2071 2.99407L29.2363 3.06489C29.0908 3.07006 28.9492 3.01726 28.8426 2.91808C28.736 2.8189 28.6732 2.68147 28.6679 2.53598C28.6627 2.39049 28.7155 2.24889 28.8147 2.14232C28.9139 2.03574 29.0513 1.9729 29.1968 1.96761L29.5101 1.95635ZM22.7305 14.2258L22.8451 14.627C22.9282 14.9184 22.7591 15.2225 22.4678 15.3056C22.3278 15.3455 22.1777 15.3282 22.0504 15.2575C21.9232 15.1867 21.8292 15.0684 21.7892 14.9284L21.2479 13.0321C21.225 12.952 21.2207 12.8678 21.2352 12.7858C21.2497 12.7037 21.2827 12.6261 21.3317 12.5587C21.3806 12.4913 21.4443 12.4359 21.5178 12.3968C21.5914 12.3576 21.6728 12.3358 21.7561 12.3328L23.7269 12.2619C24.0297 12.251 24.2844 12.4881 24.2953 12.7908C24.3005 12.9363 24.2477 13.0779 24.1485 13.1845C24.0493 13.2911 23.9119 13.3539 23.7664 13.3592L23.4532 13.3705C24.1635 13.7478 24.9567 13.9978 25.8052 14.0871C29.3531 14.4608 32.5317 11.8876 32.9053 8.33974C33.0544 6.9223 32.7335 5.56321 32.0668 4.41891C31.9143 4.1571 32.0031 3.82069 32.2649 3.66813C32.5267 3.51557 32.8631 3.6043 33.0156 3.86612C33.7958 5.20531 34.1718 6.79589 33.9973 8.45469C33.5602 12.6056 29.8412 15.6162 25.6903 15.1791C24.6138 15.0658 23.6136 14.7313 22.7305 14.2258ZM22.666 8.63984L22.6648 8.63868C22.1156 8.09151 22.1158 7.20395 22.6654 6.65706C23.2117 6.1114 24.0953 6.11044 24.6446 6.65651C24.645 6.65693 24.6454 6.65732 24.6458 6.65768L25.5589 7.5709L28.3191 4.78422L28.3198 4.78353C28.8638 4.23623 29.7495 4.23314 30.2968 4.77715C30.847 5.32411 30.8468 6.2092 30.3039 6.7554C28.6774 8.39793 28.1877 8.90989 26.5512 10.5443C26.0039 11.0936 25.116 11.0932 24.5703 10.5443L22.666 8.63984ZM23.4412 7.86223L25.3467 9.7678L25.3479 9.76897C25.3758 9.79706 25.409 9.81935 25.4455 9.83457C25.4821 9.84978 25.5212 9.85761 25.5608 9.85761C25.6004 9.85761 25.6396 9.84978 25.6761 9.83457C25.7127 9.81935 25.7459 9.79706 25.7737 9.76897L25.7751 9.76753C27.4098 8.13488 27.899 7.62354 29.5236 5.98279L29.5244 5.98204C29.5523 5.95396 29.5744 5.92067 29.5894 5.88405C29.6044 5.84743 29.612 5.80822 29.6119 5.76864C29.6117 5.72907 29.6038 5.68991 29.5885 5.65342C29.5732 5.61692 29.5508 5.58379 29.5227 5.55593C29.4663 5.49996 29.3899 5.46869 29.3104 5.46898C29.2309 5.46928 29.1548 5.50112 29.0987 5.55751L25.9509 8.73551C25.9 8.78688 25.8394 8.8277 25.7727 8.85561C25.706 8.88352 25.6345 8.89797 25.5621 8.89815C25.4898 8.89832 25.4182 8.8842 25.3514 8.85661C25.2845 8.82902 25.2238 8.78849 25.1726 8.73736L23.8697 7.43447C23.7505 7.31684 23.5594 7.31595 23.4412 7.43413L23.4401 7.4353C23.4119 7.46327 23.3895 7.49657 23.3743 7.53325C23.3591 7.56994 23.3513 7.60929 23.3514 7.649C23.3515 7.68872 23.3595 7.72802 23.3749 7.76463C23.3904 7.80123 23.4129 7.83441 23.4412 7.86223ZM12.1395 3.61288C14.7146 3.61288 16.8052 5.70348 16.8052 8.27852C16.8052 10.8536 14.7146 12.9442 12.1395 12.9442C9.56449 12.9442 7.4739 10.8536 7.4739 8.27852C7.4739 5.70348 9.56449 3.61288 12.1395 3.61288ZM12.1395 4.71092C10.1705 4.71092 8.57193 6.30953 8.57193 8.27852C8.57193 10.2476 10.1705 11.8461 12.1395 11.8461C14.1085 11.8461 15.7071 10.2476 15.7071 8.27852C15.7071 6.30953 14.1085 4.71092 12.1395 4.71092Z" fill="#02181A"/>
</svg>
