<svg width="60" height="60" viewBox="0 0 60 60" fill="none" xmlns="http://www.w3.org/2000/svg">
<path d="M39.9461 25.5H38.9987C38.6062 25.5 38.2882 25.8181 38.2882 26.2105C38.2882 26.603 38.6063 26.921 38.9987 26.921H39.9461C40.3386 26.921 40.6566 26.603 40.6566 26.2105C40.6566 25.8181 40.3385 25.5 39.9461 25.5ZM34.9724 30.0001C34.9725 29.9068 34.9541 29.8144 34.9184 29.7282C34.8827 29.642 34.8304 29.5636 34.7644 29.4976C34.6984 29.4317 34.6201 29.3793 34.5338 29.3436C34.4476 29.3079 34.3552 29.2896 34.2619 29.2896H19.1036C19.0103 29.2896 18.9179 29.3079 18.8317 29.3436C18.7455 29.3793 18.6671 29.4317 18.6011 29.4977C18.5352 29.5636 18.4828 29.642 18.4471 29.7282C18.4114 29.8144 18.3931 29.9068 18.3931 30.0001C18.393 30.0934 18.4114 30.1858 18.4471 30.272C18.4828 30.3583 18.5351 30.4366 18.6011 30.5026C18.6671 30.5686 18.7454 30.6209 18.8317 30.6566C18.9179 30.6923 19.0103 30.7107 19.1036 30.7106H34.2618C34.3551 30.7106 34.4475 30.6923 34.5338 30.6566C34.62 30.6209 34.6983 30.5685 34.7643 30.5026C34.8303 30.4366 34.8826 30.3582 34.9183 30.272C34.9541 30.1858 34.9724 30.0934 34.9724 30.0001ZM19.1036 43.5004C18.7111 43.5004 18.3931 43.8185 18.3931 44.2109C18.3931 44.6034 18.7111 44.9215 19.1036 44.9215H22.8932C23.2857 44.9215 23.6037 44.6034 23.6037 44.2109C23.6037 43.8185 23.2857 43.5004 22.8932 43.5004H19.1036Z" fill="#02181A"/>
<path d="M37.8624 45.774C38.3517 46.4267 39.1308 46.8163 39.9466 46.8163C40.7623 46.8163 41.5415 46.4267 42.0309 45.7741L51.9785 32.5107C52.8404 31.3615 52.6066 29.7253 51.4573 28.8631C50.308 28.0014 48.6717 28.2351 47.8099 29.3843L47.2887 30.0792V10.1048C47.2888 8.66831 46.12 7.49951 44.6835 7.49951H14.3672C12.9305 7.49951 11.7618 8.66831 11.7618 10.1048V10.3417H10.1038C8.66724 10.3417 7.49854 11.5105 7.49854 12.947V47.0531C7.49854 48.4896 8.66724 49.6584 10.1038 49.6584H11.7618V49.8952C11.7618 51.3318 12.9305 52.5006 14.3671 52.5006H44.6834C46.1199 52.5006 47.2887 51.3318 47.2887 49.8952V42.3161C47.2887 42.2228 47.2703 42.1304 47.2346 42.0441C47.199 41.9579 47.1466 41.8796 47.0806 41.8136C47.0146 41.7476 46.9363 41.6953 46.8501 41.6596C46.7639 41.6239 46.6715 41.6055 46.5782 41.6056C46.4848 41.6055 46.3924 41.6239 46.3062 41.6596C46.22 41.6953 46.1417 41.7476 46.0757 41.8136C46.0097 41.8796 45.9574 41.9579 45.9217 42.0441C45.886 42.1304 45.8676 42.2228 45.8676 42.3161V49.8952C45.8676 50.5483 45.3364 51.0795 44.6834 51.0795H14.3672C13.7141 51.0795 13.1829 50.5483 13.1829 49.8952V19.5788C13.1829 19.1862 12.8648 18.8683 12.4724 18.8683C12.0799 18.8683 11.7619 19.1863 11.7619 19.5788V48.2373H10.1038C9.45081 48.2373 8.91958 47.7061 8.91958 47.0531V12.947C8.91958 12.294 9.45081 11.7627 10.1038 11.7627H11.7618V16.7365C11.7618 17.129 12.0799 17.447 12.4723 17.447C12.8647 17.447 13.1828 17.1289 13.1828 16.7365V10.1048C13.1828 9.45178 13.714 8.92056 14.3671 8.92056H44.6834C45.3364 8.92056 45.8676 9.45178 45.8676 10.1048V31.8948C45.8676 31.9199 45.869 31.9445 45.8714 31.9689L39.9466 39.8688L37.7677 36.9634C37.3502 36.4066 36.7408 36.0458 36.0519 35.9475C35.3626 35.849 34.6768 36.0249 34.1203 36.4424C33.5635 36.8599 33.2027 37.4693 33.1043 38.1582C33.0059 38.8472 33.1817 39.5331 33.5992 40.0898L37.8624 45.774ZM34.511 38.3592C34.5327 38.2051 34.5847 38.0568 34.664 37.9229C34.7432 37.7891 34.8483 37.6722 34.973 37.5792C35.1769 37.4253 35.4254 37.3421 35.6809 37.3421C35.7372 37.3421 35.794 37.3462 35.8509 37.3543C36.0049 37.3759 36.1532 37.4279 36.2871 37.5071C36.4209 37.5864 36.5378 37.6915 36.6308 37.8162L39.3782 41.4794C39.4444 41.5677 39.5302 41.6393 39.6288 41.6886C39.7275 41.7379 39.8363 41.7636 39.9466 41.7636C40.0569 41.7636 40.1657 41.7379 40.2643 41.6886C40.363 41.6393 40.4488 41.5677 40.515 41.4794L48.9468 30.237C49.3385 29.7145 50.0824 29.6084 50.6047 30.0001C51.127 30.3919 51.2333 31.1357 50.8416 31.658L40.894 44.9216V44.9217C40.7833 45.0684 40.6402 45.1875 40.4759 45.2697C40.3115 45.3518 40.1303 45.3948 39.9466 45.3952C39.7628 45.3948 39.5817 45.3518 39.4173 45.2696C39.253 45.1874 39.1099 45.0683 38.9993 44.9216L34.736 39.2372C34.6423 39.113 34.5742 38.9714 34.5356 38.8207C34.4969 38.67 34.4886 38.5131 34.511 38.3592Z" fill="#02181A"/>
<path d="M30.2355 40.4201C30.2355 40.3268 30.2171 40.2344 30.1814 40.1482C30.1457 40.062 30.0934 39.9836 30.0274 39.9177C29.9614 39.8517 29.8831 39.7993 29.7969 39.7636C29.7107 39.7279 29.6182 39.7096 29.5249 39.7096H19.1036C18.7111 39.7096 18.3931 40.0277 18.3931 40.4201C18.3931 40.8126 18.7111 41.1306 19.1036 41.1306H29.5248C29.6182 41.1307 29.7106 41.1123 29.7968 41.0766C29.883 41.0409 29.9614 40.9886 30.0273 40.9226C30.0933 40.8566 30.1457 40.7783 30.1814 40.6921C30.2171 40.6058 30.2355 40.5134 30.2355 40.4201ZM24.3142 19.8144C24.2209 19.8144 24.1285 19.8327 24.0423 19.8684C23.9561 19.9041 23.8777 19.9565 23.8118 20.0225C23.7458 20.0884 23.6934 20.1668 23.6577 20.253C23.622 20.3392 23.6037 20.4316 23.6037 20.5249C23.6037 20.6182 23.622 20.7106 23.6577 20.7969C23.6934 20.8831 23.7458 20.9614 23.8118 21.0274C23.8777 21.0934 23.9561 21.1457 24.0423 21.1814C24.1285 21.2171 24.2209 21.2355 24.3142 21.2354H34.7356C34.8289 21.2355 34.9213 21.2171 35.0075 21.1814C35.0937 21.1457 35.1721 21.0934 35.238 21.0274C35.304 20.9614 35.3564 20.8831 35.392 20.7969C35.4277 20.7106 35.4461 20.6182 35.4461 20.5249C35.4461 20.4316 35.4277 20.3392 35.392 20.253C35.3564 20.1668 35.304 20.0884 35.238 20.0225C35.1721 19.9565 35.0937 19.9041 35.0075 19.8684C34.9213 19.8327 34.8289 19.8144 34.7356 19.8144H24.3142ZM19.1036 26.9198H34.2618C34.6544 26.9198 34.9723 26.6017 34.9723 26.2093C34.9723 25.8168 34.6544 25.4988 34.2618 25.4988H19.1036C18.7111 25.4988 18.3931 25.8168 18.3931 26.2093C18.3931 26.6017 18.7111 26.9198 19.1036 26.9198ZM39.9461 16.0249H19.1036C19.0103 16.0249 18.9179 16.0432 18.8317 16.0789C18.7454 16.1146 18.6671 16.167 18.6011 16.233C18.5351 16.2989 18.4828 16.3773 18.4471 16.4635C18.4114 16.5497 18.393 16.6421 18.3931 16.7354C18.393 16.8287 18.4114 16.9211 18.4471 17.0074C18.4828 17.0936 18.5351 17.1719 18.6011 17.2379C18.6671 17.3039 18.7454 17.3562 18.8317 17.3919C18.9179 17.4276 19.0103 17.446 19.1036 17.446H39.9461C40.0394 17.446 40.1318 17.4276 40.218 17.3919C40.3043 17.3562 40.3826 17.3039 40.4486 17.2379C40.5146 17.1719 40.5669 17.0936 40.6026 17.0074C40.6383 16.9211 40.6567 16.8287 40.6566 16.7354C40.6566 16.6421 40.6383 16.5497 40.6026 16.4635C40.5669 16.3773 40.5145 16.299 40.4485 16.233C40.3826 16.167 40.3042 16.1147 40.218 16.079C40.1318 16.0433 40.0394 16.0249 39.9461 16.0249ZM39.9461 29.2883H38.9987C38.9054 29.2883 38.813 29.3067 38.7268 29.3424C38.6406 29.3781 38.5623 29.4304 38.4963 29.4964C38.4303 29.5624 38.378 29.6407 38.3422 29.7269C38.3065 29.8132 38.2882 29.9056 38.2882 29.9989C38.2882 30.0922 38.3065 30.1846 38.3422 30.2708C38.378 30.357 38.4303 30.4353 38.4963 30.5013C38.5623 30.5673 38.6406 30.6196 38.7268 30.6553C38.813 30.691 38.9054 30.7094 38.9987 30.7094H39.9461C40.0394 30.7094 40.1318 30.691 40.218 30.6553C40.3042 30.6196 40.3826 30.5673 40.4485 30.5013C40.5145 30.4353 40.5669 30.357 40.6026 30.2708C40.6383 30.1846 40.6566 30.0922 40.6566 29.9989C40.6566 29.9056 40.6383 29.8132 40.6026 29.7269C40.5669 29.6407 40.5145 29.5624 40.4485 29.4964C40.3826 29.4304 40.3042 29.3781 40.218 29.3424C40.1318 29.3067 40.0394 29.2883 39.9461 29.2883Z" fill="#02181A"/>
</svg>
