<svg xmlns="http://www.w3.org/2000/svg" width="60" height="60" fill="none" viewBox="0 0 60 60"><path fill="#02181a" fill-rule="evenodd" d="M25.077 13.919v17.47a.646.646 0 0 1-1.29 0V13.274c0-.172.067-.336.188-.457l5.4-5.4a.65.65 0 0 1 .457-.189h20.83a.645.645 0 0 1 .645.645v26.26a.646.646 0 0 1-1.291 0V8.52H30.477v4.755a.646.646 0 0 1-.645.645zm4.11-4.487-3.197 3.196h3.196zM19.49 47.857l.355.855q.314.76.003 1.525v.003c-.21.502-.57.864-1.078 1.077l-.002.001-3.156 1.309a1.995 1.995 0 0 1-2.604-1.074L7.663 38.716a1.9 1.9 0 0 1-.003-1.526 1.93 1.93 0 0 1 1.076-1.08l3.16-1.311c1.011-.42 2.18.06 2.603 1.073l.314.753a390 390 0 0 0 4.707-2.256c1.821-.891 3.301-1.523 4.925-1.488 1.433.03 2.992.571 4.993 1.975l5.844 1.565a3.44 3.44 0 0 1 2.193 1.807l8.221-2.412c2.542-.746 4.242-.558 5.28.023 1.108.62 1.568 1.686 1.524 2.82-.062 1.577-1.156 3.28-2.756 3.897l-12.325 4.75c-2.056.79-4.802 1.904-7.009 1.264l-6.566-1.905h-.001a3.1 3.1 0 0 0-2.303.195zm-.838 1.349L13.31 36.37a.704.704 0 0 0-.917-.378l-3.159 1.31a.68.68 0 0 0-.38.382.67.67 0 0 0 .002.533v.002l5.346 12.838a.7.7 0 0 0 .916.377l3.156-1.308a.7.7 0 0 0 .383-.382.7.7 0 0 0-.003-.538m.34-2.543 1.982-.964a4.34 4.34 0 0 1 3.23-.274l6.566 1.905c.935.271 1.98.141 3.012-.123 1.121-.287 2.225-.742 3.173-1.106l12.325-4.75c.939-.362 1.621-1.264 1.85-2.196.208-.843.033-1.731-.785-2.19-.842-.471-2.222-.515-4.285.09l-8.24 2.417a3.4 3.4 0 0 1-.412 1.927 3.45 3.45 0 0 1-3.906 1.666l-7.913-2.119a.646.646 0 0 1 .334-1.247l7.913 2.119h.001A2.155 2.155 0 0 0 36.47 40.3a2.156 2.156 0 0 0-1.52-2.632l-5.955-1.595a.7.7 0 0 1-.206-.097c-1.766-1.253-3.115-1.777-4.37-1.804-1.432-.031-2.724.571-4.33 1.357a393 393 0 0 1-4.777 2.29zm9.005-23.79a.646.646 0 0 1 0-1.29h19.097a.646.646 0 0 1 0 1.29zm0-4.503a.646.646 0 0 1 0-1.291h19.097a.646.646 0 0 1 0 1.29zm0 9.009a.646.646 0 0 1 0-1.291h19.097a.646.646 0 0 1 0 1.29zm5.957 4.493a.646.646 0 0 1 .834-.986l2.11 1.785 3.393-3.012a.646.646 0 0 1 .857.966l-3.812 3.383a.646.646 0 0 1-.846.01z" clip-rule="evenodd"/></svg>