<svg width="80" height="80" viewBox="0 0 80 80" fill="none" xmlns="http://www.w3.org/2000/svg">
<rect width="80" height="80" fill="#02181A"/>
<path fill-rule="evenodd" clip-rule="evenodd" d="M65.997 47.6696L65.9026 47.5236C65.2105 46.7087 64.1407 47.0146 63.7003 47.1841L48.8505 52.9063C47.9067 53.2688 46.8369 53.4949 45.5156 53.6079C44.7735 55.0818 43.021 55.8091 41.3627 55.4515C39.6379 55.0796 37.1687 54.4553 35.6681 54.3085C34.0887 54.154 32.3796 54.6005 30.7601 55.1909C30.3197 55.3495 29.8163 55.1343 29.659 54.6932C29.5828 54.481 29.5928 54.2473 29.6869 54.0423C29.781 53.8373 29.9517 53.6774 30.1624 53.5969C32.0049 52.9028 33.9954 52.4561 35.8254 52.6235C37.0838 52.7368 38.7513 53.1212 40.1985 53.4608C40.7648 53.5847 41.2682 53.6979 41.7086 53.7888C43.4333 54.1531 44.7826 52.6511 43.9739 51.1193C43.7537 50.6672 43.3447 50.3391 42.8728 50.2038L33.9063 47.5C31.641 46.8106 29.9107 47.6809 27.8971 48.6885C26.8274 49.2192 25.6948 49.7846 24.4048 50.1348C23.3352 50.4299 22.2339 50.7015 21.1328 50.9497V62.0339C25.4116 61.9883 29.3128 62.0339 33.1196 62.577C35.9745 62.988 39.0071 64.0646 41.7715 63.8442C45.1379 63.5724 48.756 61.4906 52.1538 59.2858L63.7001 51.8103C64.492 51.2991 65.1404 50.5922 65.871 49.9091C66.5004 49.3212 66.5633 48.3258 65.997 47.6696ZM19.4341 49.706C19.4341 49.3669 19.1509 49.084 18.8363 49.084H14.4003C14.0857 49.084 13.8025 49.3669 13.8025 49.706V64.3969C13.8025 64.7361 14.0857 65.0202 14.4003 65.0202H18.8363C19.1509 65.0202 19.4341 64.7362 19.4341 64.3969V49.706ZM34.4096 45.8718C32.7108 45.3628 31.2635 45.5214 29.9421 45.9391C28.3691 43.7456 27.5195 41.1548 27.5195 38.4289C27.5195 31.3158 33.3084 25.536 40.4187 25.536C47.5291 25.536 53.3179 31.3158 53.3179 38.4289C53.3179 43.6213 50.2032 48.2928 45.484 50.2934C45.0121 49.4565 44.257 48.8458 43.3447 48.5753L34.4096 45.8718ZM22.8319 43.3952C22.769 43.1127 22.5488 42.8975 22.2971 42.8066L17.6094 41.2913C17.3262 41.2004 17.1375 40.9632 17.1375 40.6693V36.1911C17.1375 35.896 17.3262 35.6591 17.6094 35.5682L22.2971 34.0417C22.5488 33.9618 22.769 33.7355 22.8319 33.4641C23.2409 32.0961 23.7757 30.7616 24.4679 29.5056C24.6252 29.2574 24.6252 28.9636 24.4993 28.703L22.2656 24.3145C22.1398 24.0552 22.1713 23.7601 22.3915 23.5575L25.5691 20.3903C25.7579 20.1863 26.041 20.1408 26.3242 20.2663L30.6973 22.5054C30.949 22.6297 31.2636 22.6297 31.5153 22.4944C32.7737 21.7815 34.0952 21.2271 35.4794 20.8426C35.7311 20.7639 35.9513 20.5598 36.0457 20.2883L37.5558 15.6059C37.6502 15.3345 37.9019 15.1538 38.185 15.1538H42.6526C42.9672 15.1538 43.1874 15.3344 43.2818 15.6059L44.7919 20.2883C44.8862 20.5598 45.1065 20.7641 45.3896 20.8426C46.7739 21.2384 48.0953 21.7815 49.3538 22.4944C49.574 22.6296 49.8886 22.6296 50.1403 22.5054L54.5449 20.2663C54.7966 20.1298 55.0797 20.1865 55.2999 20.3903L58.4776 23.5575C58.6663 23.7601 58.7293 24.0552 58.5719 24.3145L56.3381 28.703C56.2123 28.9636 56.2437 29.2574 56.3696 29.5056C57.0617 30.7616 57.628 32.0961 58.0057 33.4641C58.0686 33.7355 58.2888 33.9618 58.5719 34.0417L63.2282 35.5682C63.5114 35.6591 63.7001 35.896 63.7001 36.1911V40.6693C63.7001 40.9631 63.5114 41.2003 63.2282 41.2913L58.5719 42.8066C58.2888 42.8975 58.0686 43.1127 58.0057 43.383C57.6281 44.7633 57.0618 46.0978 56.3696 47.3537C56.2453 47.5888 56.2001 48.0042 56.3696 48.1909L48.2525 51.3235C47.6548 51.5494 46.9941 51.708 46.239 51.8212C51.5245 49.5255 55.0168 44.2654 55.0168 38.4291C55.0168 30.3771 48.4729 23.8401 40.4187 23.8401C32.3646 23.8401 25.8205 30.3772 25.8205 38.4291C25.8205 41.3824 26.7014 44.1758 28.3375 46.5845C27.9285 46.7765 27.5195 46.9694 27.142 47.1609C26.2611 47.6133 25.3488 48.0668 24.4048 48.3716C24.5583 48.0216 24.7044 47.7539 24.4677 47.3538C23.7757 46.0977 23.2409 44.7631 22.8319 43.3952ZM67.0352 51.1426C66.9094 51.2779 66.7521 51.4254 66.5948 51.5607C65.997 52.1493 65.3678 52.76 64.6442 53.2344L53.0978 60.7103C49.2808 63.18 45.056 65.5733 40.9851 65.5733C38.1989 65.5733 35.5798 64.6567 32.8681 64.2507C29.1871 63.7187 25.3488 63.6857 21.1329 63.7309V64.3969C21.1329 65.6753 20.0947 66.7159 18.8363 66.7159H14.4003C13.1417 66.7159 12.1035 65.6751 12.1035 64.3969V49.706C12.1035 48.4281 13.1417 47.3871 14.4003 47.3871H18.8363C19.9374 47.3871 20.8498 48.1795 21.1015 49.2194C21.4475 49.1285 21.8251 49.0499 22.1711 48.9588L22.7689 47.7828C22.2026 46.6631 21.6992 45.4871 21.3217 44.2887L17.0744 42.9088C16.0991 42.5806 15.4699 41.7092 15.4699 40.6693V36.1911C15.4699 35.1614 16.0991 34.2679 17.0744 33.9508L21.3217 32.5718C21.6992 31.3611 22.2026 30.1962 22.7689 29.0767L20.7554 25.0836C20.2835 24.1791 20.4723 23.0817 21.1959 22.3579L24.342 19.1909C25.0971 18.456 26.1667 18.2864 27.0792 18.762L31.0748 20.7859C32.2074 20.1973 33.3715 19.7117 34.5671 19.3383L35.9513 15.086C36.2659 14.1127 37.1468 13.4575 38.1852 13.4575H42.6527C43.6909 13.4575 44.5719 14.1125 44.8865 15.086L46.3022 19.3383C47.4986 19.7114 48.6573 20.196 49.763 20.7859L53.7586 18.762C54.7024 18.2863 55.7721 18.4559 56.4958 19.1909L59.6735 22.3579C60.397 23.0817 60.5543 24.1791 60.0824 25.0836L58.069 29.0767C58.6667 30.196 59.1386 31.3611 59.5161 32.5718L63.7634 33.9508C64.7387 34.2679 65.3995 35.1614 65.3995 36.1911V40.6693C65.3995 41.6871 64.7388 42.5916 63.7634 42.9088L59.5161 44.2887C59.1701 45.385 58.7296 46.4592 58.2263 47.4779L63.0713 45.5999C64.7073 44.9782 66.249 45.295 67.1928 46.4481L67.3186 46.5844C68.4195 47.9413 68.2936 49.9432 67.0352 51.1426ZM36.4547 39.9457L39.0975 42.5693C39.4121 42.8973 39.947 42.8973 40.293 42.5693L48.3157 34.5613V36.2131C48.3157 36.6765 48.6618 37.0612 49.1337 37.0612C49.6056 37.0612 49.9831 36.6765 49.9831 36.2131V32.5151C49.9831 32.3179 49.8874 32.0395 49.7629 31.9033C49.5715 31.6941 49.1337 31.6413 49.1337 31.6661H45.4527C44.9808 31.6661 44.6032 32.0399 44.6032 32.5153C44.6032 32.9787 44.9808 33.3634 45.4527 33.3634H47.0886L39.6951 40.7716L37.0523 38.1464C36.7063 37.8073 36.2029 37.8073 35.8568 38.1464L30.9174 43.067C30.6028 43.3951 30.6028 43.9385 30.9174 44.2653C31.2615 44.587 31.773 44.6057 32.1129 44.2653L36.4547 39.9457Z" fill="white"/>
</svg>
