<svg width="80" height="80" viewBox="0 0 80 80" fill="none" xmlns="http://www.w3.org/2000/svg">
<rect width="80" height="80" fill="#02181A"/>
<path d="M70.0677 58.7965H67.151V42.0256C67.151 41.6173 66.8302 41.2965 66.4219 41.2965H13.9219C13.5135 41.2965 13.1927 41.6173 13.1927 42.0256V58.7965H10.276C9.86771 58.7965 9.54688 59.1173 9.54688 59.5256V62.4423C9.54688 62.8506 9.86771 63.1715 10.276 63.1715V66.8173C10.276 67.2256 10.5969 67.5465 11.0052 67.5465H13.9219C14.3302 67.5465 14.651 67.2256 14.651 66.8173V63.1715H37.9844V66.8173C37.9844 67.2256 38.3052 67.5465 38.7135 67.5465H41.6302C42.0385 67.5465 42.3594 67.2256 42.3594 66.8173V63.1715H65.6927V66.8173C65.6927 67.2256 66.0135 67.5465 66.4219 67.5465H69.3385C69.7469 67.5465 70.0677 67.2256 70.0677 66.8173V63.1715C70.476 63.1715 70.7969 62.8506 70.7969 62.4423V59.5256C70.7969 59.1173 70.476 58.7965 70.0677 58.7965ZM56.9427 42.7548H58.401V48.5881H56.9427V42.7548ZM49.651 42.7548H55.4844V49.3173C55.4844 49.7256 55.8052 50.0465 56.2135 50.0465H59.1302C59.5385 50.0465 59.8594 49.7256 59.8594 49.3173V42.7548H65.6927V58.7965H49.651V42.7548ZM41.324 42.7548C41.076 42.8715 40.901 43.1194 40.901 43.411V48.5881H39.4427V43.411C39.4427 43.1194 39.2677 42.8715 39.0198 42.7548H41.324ZM32.151 42.7548H38.4073C38.1594 42.8715 37.9844 43.1194 37.9844 43.411V49.3173C37.9844 49.7256 38.3052 50.0465 38.7135 50.0465H41.6302C42.0385 50.0465 42.3594 49.7256 42.3594 49.3173V43.411C42.3594 43.1194 42.1844 42.8715 41.9365 42.7548H48.1927V58.7965H32.151V42.7548ZM21.9427 42.7548H23.401V48.5881H21.9427V42.7548ZM14.651 42.7548H20.4844V49.3173C20.4844 49.7256 20.8052 50.0465 21.2135 50.0465H24.1302C24.5385 50.0465 24.8594 49.7256 24.8594 49.3173V42.7548H30.6927V58.7965H14.651V42.7548ZM13.1927 66.0881H11.7344V63.1715H13.1927V66.0881ZM40.901 66.0881H39.4427V63.1715H40.901V66.0881ZM68.6094 66.0881H67.151V63.1715H68.6094V66.0881ZM69.3385 61.7131H11.0052V60.2548H69.3385V61.7131ZM28.7969 17.7298C28.5052 17.7735 28.2719 17.9923 28.2135 18.284C28.1552 18.5756 28.2719 18.8673 28.5052 19.0423L37.5615 25.2985L37.6781 37.5485C37.6777 37.6437 37.6964 37.738 37.7331 37.8259C37.7698 37.9137 37.8237 37.9933 37.8917 38.0599C37.9597 38.1266 38.0403 38.1789 38.1289 38.2138C38.2175 38.2487 38.3121 38.2655 38.4073 38.2631C38.6115 38.2631 38.8156 38.1756 38.9469 38.0152L60.4135 13.8506C60.6177 13.6173 60.6615 13.2819 60.501 13.0194C60.4307 12.8851 60.3189 12.7771 60.1823 12.7114C60.0457 12.6457 59.8915 12.6259 59.7427 12.6548L28.7969 17.7298ZM39.1219 35.6527L39.0198 25.3715L46.1948 21.8277C46.281 21.7856 46.358 21.7269 46.4215 21.655C46.485 21.5831 46.5337 21.4994 46.5649 21.4086C46.596 21.3179 46.609 21.2219 46.603 21.1262C46.5971 21.0304 46.5723 20.9368 46.5302 20.8506C46.4881 20.7644 46.4294 20.6874 46.3575 20.6239C46.2856 20.5604 46.2019 20.5117 46.1111 20.4805C46.0204 20.4494 45.9244 20.4364 45.8287 20.4424C45.7329 20.4483 45.6393 20.4731 45.5531 20.5152L38.349 24.059L30.824 18.8527L57.9635 14.4194L39.1219 35.6527Z" fill="white"/>
</svg>
