<svg xmlns="http://www.w3.org/2000/svg" width="34" height="34" fill="none" viewBox="0 0 34 34"><path fill="#02181a" fill-rule="evenodd" d="M26.487 10.45a.316.316 0 0 0 0 .632.32.32 0 0 0 .318-.316.32.32 0 0 0-.318-.317m0-1.094a1.41 1.41 0 1 1-.002 2.82 1.41 1.41 0 0 1 .002-2.82m-3.578 2.613a.544.544 0 0 1-.125-.763L26.4 6.171a.547.547 0 0 1 .888.638l-3.616 5.036a.55.55 0 0 1-.763.124m.328-4.717a.316.316 0 1 0 .633 0 .316.316 0 0 0-.633 0m-1.093 0a1.41 1.41 0 1 0 2.82 0 1.41 1.41 0 0 0-2.82 0M20.77 9.008a4.256 4.256 0 0 1 4.25-4.25 4.254 4.254 0 0 1 4.25 4.25 4.254 4.254 0 0 1-4.25 4.252 4.256 4.256 0 0 1-4.25-4.252m-1.094 0a5.35 5.35 0 0 1 5.344-5.344 5.35 5.35 0 0 1 5.343 5.344 5.35 5.35 0 0 1-5.343 5.345 5.35 5.35 0 0 1-5.344-5.345M5.369 6.272l.54 2.01.142-.039-.537-2.01a.544.544 0 0 1 .386-.67l.486-.13-1.75-2.184-.422 2.767.486-.13a.54.54 0 0 1 .67.387M5.525 9.5a.55.55 0 0 1-.531-.406l-.537-2.01-.766.205a.55.55 0 0 1-.508-.12.55.55 0 0 1-.174-.49l.737-4.826a.546.546 0 0 1 .968-.26l3.05 3.811a.545.545 0 0 1-.283.87l-.769.205.54 2.01a.56.56 0 0 1-.054.416.55.55 0 0 1-.335.254l-1.197.321a.6.6 0 0 1-.141.02m-.08.293c-2.4 0-4.35-1.95-4.35-4.35a4.353 4.353 0 0 1 4.35-4.348A4.35 4.35 0 0 1 9.79 5.443c0 2.399-1.95 4.35-4.347 4.35m0 1.094A5.45 5.45 0 0 1 0 5.443 5.45 5.45 0 0 1 5.443 0a5.45 5.45 0 0 1 5.44 5.443 5.45 5.45 0 0 1-5.44 5.443m23.018 16.825a.754.754 0 0 0-.753.752.754.754 0 0 0 1.506 0 .754.754 0 0 0-.753-.751m3.092.752a4.08 4.08 0 0 1-3.092 1.426 4.07 4.07 0 0 1-3.089-1.426 4.07 4.07 0 0 1 3.089-1.425 4.08 4.08 0 0 1 3.092 1.425m1.103.363a5.17 5.17 0 0 1-4.195 2.157 5.18 5.18 0 0 1-4.195-2.157.63.63 0 0 1 0-.725 5.18 5.18 0 0 1 4.195-2.157 5.17 5.17 0 0 1 4.195 2.157.63.63 0 0 1 0 .726m.155-.363a4.353 4.353 0 0 1-4.35 4.35 4.355 4.355 0 0 1-4.35-4.35 4.355 4.355 0 0 1 4.35-4.349c2.4 0 4.35 1.951 4.35 4.35m-7.619 4.35a5 5 0 0 1-.617-.545H6.26a.547.547 0 0 1-.546-.547V12.97H5.17v19.843zm-16.629-1.64V26.81h1.702v4.365zm5.19 0V23.35h1.701v7.825zm5.188 0v-6.659h1.7v6.66zm5.186-5.998a5.5 5.5 0 0 1 1.702-1.473v-4.017H24.13zm9.777 3.288a5.45 5.45 0 0 0-5.443-5.442 5.4 5.4 0 0 0-1.538.223v-4.106a.55.55 0 0 0-.547-.547H23.58a.547.547 0 0 0-.546.547v8.93q-.015.197-.017.395.001.201.017.396v2.315h-1.3v-7.206a.545.545 0 0 0-.547-.547h-2.793a.547.547 0 0 0-.546.547v7.206h-1.3v-8.371a.55.55 0 0 0-.547-.547h-2.796a.547.547 0 0 0-.547.547v8.37h-1.3v-4.91a.547.547 0 0 0-.546-.548H8.017a.55.55 0 0 0-.547.547v4.912h-.663V12.423a.546.546 0 0 0-.547-.547H4.623a.545.545 0 0 0-.547.547v20.936a.547.547 0 0 0 .547.547h23.839a5.45 5.45 0 0 0 5.443-5.443M9.08 22.936l5.189-4.04a.55.55 0 0 1 .505-.088l4.868 1.577 3.899-3.933-.203.018a.547.547 0 1 1-.093-1.09l1.689-.148a.552.552 0 0 1 .592.606l-.19 1.685a.548.548 0 0 1-1.088-.122l.013-.123-4.079 4.116a.55.55 0 0 1-.556.135l-4.913-1.592L9.75 23.8a.54.54 0 0 1-.576.06.55.55 0 0 1-.096-.923" clip-rule="evenodd"/></svg>