<svg width="50" height="49" viewBox="0 0 50 49" fill="none" xmlns="http://www.w3.org/2000/svg">
<g clip-path="url(#clip0_73_285)">
<path d="M24.0964 4.81934C34.0774 4.81934 42.1687 13.45 42.1687 24.0964C42.1687 34.7429 34.0774 43.3736 24.0964 43.3736" stroke="#00DF9C" stroke-width="1.20482" stroke-linecap="round"/>
<path d="M24.0964 4.81934C30.7504 4.81934 36.1446 13.45 36.1446 24.0964C36.1446 34.7429 30.7504 43.3736 24.0964 43.3736" stroke="#00DF9C" stroke-width="1.20482" stroke-linecap="round"/>
<path d="M24.0964 4.81934C27.0907 4.81934 29.5181 13.45 29.5181 24.0964C29.5181 34.7429 27.0907 43.3736 24.0964 43.3736" stroke="black" stroke-width="1.20482" stroke-linecap="round"/>
<path d="M1.4106 17.2792C0.208979 14.876 1.95655 12.0483 4.64347 12.0483H41.1396C42.5087 12.0483 43.7602 12.8218 44.3725 14.0464L48.5894 22.4801C49.0981 23.4977 49.0981 24.6954 48.5894 25.713L44.3725 34.1467C43.7602 35.3712 42.5087 36.1447 41.1396 36.1447H4.64348C1.95655 36.1447 0.208977 33.3171 1.4106 30.9138L4.01104 25.713C4.51982 24.6954 4.51982 23.4977 4.01104 22.4801L1.4106 17.2792Z" fill="#E1E1E1" stroke="#02181A" stroke-opacity="0.5" stroke-width="1.20482" stroke-linecap="round"/>
<path d="M24.0964 43.3736C14.1154 43.3736 6.02411 34.7429 6.02411 24.0964C6.02411 13.45 14.1154 4.81934 24.0964 4.81934" stroke="#00DF9C" stroke-width="1.20482" stroke-linecap="round"/>
<path d="M24.0964 43.3736C17.4424 43.3736 12.0482 34.7429 12.0482 24.0964C12.0482 13.45 17.4424 4.81934 24.0964 4.81934" stroke="#00DF9C" stroke-width="1.20482" stroke-linecap="round"/>
<path d="M31.2112 17.3238C31.2783 17.0556 31.5192 16.8674 31.7957 16.8674H38.9875C39.3794 16.8674 39.667 17.2357 39.5719 17.6159L38.6683 21.2304C38.6013 21.4986 38.3603 21.6867 38.0839 21.6867H30.892C30.5001 21.6867 30.2125 21.3184 30.3076 20.9382L31.2112 17.3238Z" stroke="black" stroke-width="1.20482" stroke-linecap="round"/>
<path d="M33.1325 31.3254C34.796 31.3254 36.1446 29.9768 36.1446 28.3133C36.1446 26.6498 34.796 25.3013 33.1325 25.3013C31.469 25.3013 30.1205 26.6498 30.1205 28.3133C30.1205 29.9768 31.469 31.3254 33.1325 31.3254Z" stroke="black" stroke-width="1.20482" stroke-linecap="round"/>
<path d="M36.747 31.3254C38.4105 31.3254 39.759 29.9768 39.759 28.3133C39.759 26.6498 38.4105 25.3013 36.747 25.3013C35.0835 25.3013 33.7349 26.6498 33.7349 28.3133C33.7349 29.9768 35.0835 31.3254 36.747 31.3254Z" stroke="black" stroke-width="1.20482" stroke-linecap="round"/>
<path d="M24.0964 43.3736C21.102 43.3736 18.6747 34.7429 18.6747 24.0964C18.6747 13.45 21.102 4.81934 24.0964 4.81934" stroke="#00DF9C" stroke-width="1.20482" stroke-linecap="round"/>
<path d="M24.0964 43.3736C21.102 43.3736 18.6747 34.7429 18.6747 24.0964C18.6747 13.45 21.102 4.81934 24.0964 4.81934" stroke="black" stroke-width="1.20482" stroke-linecap="round"/>
</g>
<defs>
<clipPath id="clip0_73_285">
<rect width="50" height="48.1928" fill="white"/>
</clipPath>
</defs>
</svg>
