<svg width="60" height="60" viewBox="0 0 60 60" fill="none" xmlns="http://www.w3.org/2000/svg">
<path d="M54.0258 26.6238C54.0827 26.5209 54.1175 26.4072 54.128 26.2901C54.1346 26.2284 54.1349 26.1662 54.1289 26.1045C54.1308 26.0745 54.1311 26.0445 54.1298 26.0145C53.0395 20.6125 50.1547 15.7379 45.9441 12.1825C41.7334 8.62714 36.4444 6.59989 30.9361 6.43009V4.74634C30.9361 4.4977 30.8373 4.25924 30.6615 4.08343C30.4857 3.90761 30.2472 3.80884 29.9986 3.80884C29.7499 3.80884 29.5115 3.90761 29.3357 4.08343C29.1599 4.25924 29.0611 4.4977 29.0611 4.74634V6.42821C23.5528 6.59801 18.2637 8.62526 14.0531 12.1806C9.84248 15.736 6.95768 20.6106 5.86734 26.0126C5.86265 26.0342 5.87015 26.0548 5.86734 26.0754C5.8469 26.32 5.91475 26.5637 6.05859 26.7626C6.07078 26.7785 6.07452 26.7991 6.08859 26.8151C6.11655 26.8388 6.14598 26.8607 6.17671 26.8807C6.26926 26.9704 6.38317 27.0349 6.50765 27.0682C6.54108 27.0848 6.57552 27.0992 6.61077 27.1113C6.6314 27.1151 6.65109 27.1085 6.67265 27.1113C6.73567 27.1173 6.79914 27.1166 6.86203 27.1095C6.92269 27.1073 6.98298 27.0992 7.04203 27.0851C7.15715 27.0428 7.26645 26.9861 7.36734 26.9163C7.3814 26.906 7.39828 26.9023 7.4114 26.891C8.88046 25.5813 11.1998 24.8895 14.1192 24.8895C17.1342 24.8895 19.6148 25.7126 21.1027 27.2079L21.1045 27.2098C21.1612 27.2586 21.2235 27.3004 21.2902 27.3345C21.3189 27.3565 21.349 27.3769 21.3801 27.3954C21.3905 27.4001 21.3989 27.4076 21.4083 27.4123C21.5221 27.4597 21.6441 27.4842 21.7673 27.4845H21.7748C21.7823 27.4845 21.788 27.4798 21.7955 27.4798C21.8967 27.4767 21.9968 27.4571 22.0917 27.4216L22.1273 27.4104C22.1564 27.3948 22.1845 27.3775 22.2117 27.3588C22.2546 27.3402 22.296 27.3183 22.3355 27.2932C24.3134 25.9125 26.6501 25.1366 29.0611 25.0601V27.6879C28.9297 27.7936 28.8174 27.921 28.7292 28.0648L19.5642 43.5213C19.4313 43.7455 19.3602 44.0009 19.3579 44.2615C19.3557 44.5222 19.4225 44.7787 19.5515 45.0052C19.6806 45.2316 19.8672 45.4199 20.0926 45.5508C20.3179 45.6818 20.5739 45.7507 20.8345 45.7507H29.0611V50.2788C29.0692 50.8143 28.9708 51.3461 28.7715 51.8432C28.5723 52.3403 28.2761 52.7928 27.9003 53.1744C27.5245 53.5559 27.0766 53.8589 26.5826 54.0658C26.0886 54.2726 25.5584 54.3791 25.0228 54.3791C24.4873 54.3791 23.957 54.2726 23.463 54.0658C22.969 53.8589 22.5211 53.5559 22.1453 53.1744C21.7695 52.7928 21.4734 52.3403 21.2741 51.8432C21.0748 51.3461 20.9764 50.8143 20.9845 50.2788V48.4545C20.9845 48.2058 20.8858 47.9674 20.7099 47.7915C20.5341 47.6157 20.2957 47.517 20.047 47.517C19.7984 47.517 19.5599 47.6157 19.3841 47.7915C19.2083 47.9674 19.1095 48.2058 19.1095 48.4545V50.2788C19.0997 51.0616 19.2453 51.8386 19.5381 52.5647C19.8308 53.2908 20.2648 53.9515 20.8149 54.5085C21.365 55.0656 22.0202 55.5079 22.7425 55.8097C23.4649 56.1116 24.2399 56.267 25.0228 56.267C25.8057 56.267 26.5808 56.1116 27.3031 55.8097C28.0254 55.5079 28.6806 55.0656 29.2307 54.5085C29.7808 53.9515 30.2148 53.2908 30.5075 52.5647C30.8003 51.8386 30.9459 51.0616 30.9361 50.2788V45.7507H39.1617C39.4223 45.7507 39.6783 45.6818 39.9037 45.5508C40.129 45.4199 40.3157 45.2316 40.4447 45.0052C40.5737 44.7787 40.6405 44.5222 40.6383 44.2615C40.6361 44.0009 40.5649 43.7455 40.432 43.5213L31.268 28.0657C31.1798 27.9219 31.0676 27.7945 30.9361 27.6888V25.0573C33.3909 25.0588 35.7862 25.8134 37.7986 27.2192C37.8321 27.2389 37.8668 27.2565 37.9026 27.2717C37.9271 27.2904 37.9524 27.3079 37.9786 27.3242C37.9898 27.3298 37.9973 27.3401 38.0086 27.3448C38.0283 27.3542 38.0526 27.3523 38.0742 27.3598C38.1351 27.3796 38.198 27.3928 38.2617 27.3992C38.2993 27.4095 38.3375 27.4173 38.3761 27.4226H38.3826C38.4014 27.4226 38.4201 27.4142 38.4389 27.4132C38.5364 27.3979 38.633 27.3779 38.7286 27.3532C38.7492 27.3457 38.7661 27.3326 38.7858 27.3232C38.828 27.3008 38.8685 27.2751 38.9067 27.2463C38.9411 27.2282 38.9743 27.2079 39.0061 27.1854C40.8933 25.6387 43.2747 24.8239 45.7139 24.8904C49.0889 24.8904 51.1945 25.4951 52.5445 26.8526C52.5548 26.8638 52.5698 26.8666 52.5802 26.877C52.7443 27.0331 52.9611 27.1218 53.1876 27.1254C53.1942 27.1254 53.2008 27.1292 53.2064 27.1292H53.2083C53.268 27.1291 53.3277 27.1234 53.3864 27.1123C53.4164 27.1067 53.4389 27.087 53.468 27.0785C53.5886 27.042 53.7009 26.9825 53.7989 26.9032C53.8214 26.8845 53.8486 26.877 53.8702 26.8563C53.8917 26.8348 53.8992 26.8067 53.918 26.7842C53.9595 26.735 53.9956 26.6806 54.0258 26.6238ZM29.9986 23.1532C27.4953 23.127 25.0216 23.6964 22.7817 24.8145C23.0983 21.5254 23.9383 18.308 25.2698 15.2838C26.3909 12.7061 27.9374 10.3352 29.8448 8.2704C29.8964 8.2704 29.947 8.26384 29.9986 8.26384C30.0483 8.26384 30.0961 8.26946 30.1448 8.26946C32.1119 10.3547 33.7126 12.7572 34.8792 15.3757C36.2016 18.3426 37.041 21.5018 37.3655 24.7338C35.0685 23.6344 32.5444 23.0928 29.9986 23.1532ZM8.27015 24.1479C9.57051 19.9813 12.051 16.281 15.4113 13.4953C18.7716 10.7095 22.8675 8.95783 27.203 8.45228C25.7244 10.3097 24.4969 12.3539 23.5523 14.532C22.1346 17.7579 21.243 21.1901 20.9114 24.6982C18.8436 23.5263 16.494 22.9443 14.1183 23.0154C12.1102 22.9687 10.1156 23.3549 8.27015 24.1479ZM38.4623 43.8757H21.5348L29.9986 29.6004L38.4623 43.8757ZM39.2442 24.7113C38.9136 21.228 38.0195 17.8215 36.5967 14.6248C35.617 12.4025 34.3363 10.3255 32.7905 8.45228C37.1059 8.95534 41.1844 10.6931 44.5366 13.4569C47.8887 16.2207 50.3721 19.8932 51.6886 24.0335C49.7916 23.2747 47.7551 22.9276 45.7139 23.0154C43.4446 22.9928 41.2106 23.5784 39.2442 24.7113Z" fill="#02181A"/>
<path d="M29.0615 33.3635V38.9107C29.0615 39.1594 29.1603 39.3978 29.3361 39.5736C29.5119 39.7494 29.7504 39.8482 29.999 39.8482C30.2477 39.8482 30.4861 39.7494 30.6619 39.5736C30.8378 39.3978 30.9365 39.1594 30.9365 38.9107V33.3635C30.9365 33.1149 30.8378 32.8764 30.6619 32.7006C30.4861 32.5248 30.2477 32.426 29.999 32.426C29.7504 32.426 29.5119 32.5248 29.3361 32.7006C29.1603 32.8764 29.0615 33.1149 29.0615 33.3635Z" fill="#02181A"/>
<path d="M29.999 42.3694C30.5168 42.3694 30.9365 41.9497 30.9365 41.4319C30.9365 40.9141 30.5168 40.4944 29.999 40.4944C29.4813 40.4944 29.0615 40.9141 29.0615 41.4319C29.0615 41.9497 29.4813 42.3694 29.999 42.3694Z" fill="#02181A"/>
</svg>
