<svg width="50" height="50" viewBox="0 0 50 50" fill="none" xmlns="http://www.w3.org/2000/svg">
<path d="M44.375 10H5.625C3.55393 10 1.875 11.6789 1.875 13.75V36.25C1.875 38.3211 3.55393 40 5.625 40H44.375C46.4461 40 48.125 38.3211 48.125 36.25V13.75C48.125 11.6789 46.4461 10 44.375 10Z" stroke="#00DF9C" stroke-width="1.25" stroke-linecap="round"/>
<path d="M26.25 5H23.75C23.4048 5 23.125 5.27982 23.125 5.625V11.875C23.125 12.2202 23.4048 12.5 23.75 12.5H26.25C26.5952 12.5 26.875 12.2202 26.875 11.875V5.625C26.875 5.27982 26.5952 5 26.25 5Z" fill="#E1E1E1" stroke="black" stroke-width="1.25" stroke-linecap="round"/>
<path d="M36.0825 8.30444L33.9175 7.05444C33.6185 6.88185 33.2363 6.98428 33.0637 7.28321L29.9387 12.6959C29.7661 12.9948 29.8685 13.377 30.1675 13.5496L32.3325 14.7996C32.6315 14.9722 33.0137 14.8698 33.1863 14.5709L36.3113 9.15821C36.4839 8.85928 36.3815 8.47703 36.0825 8.30444Z" fill="#E1E1E1" stroke="#02181A" stroke-opacity="0.5" stroke-width="1.25" stroke-linecap="round"/>
<path d="M42.9457 16.083L41.6957 13.918C41.5231 13.619 41.1408 13.5166 40.8419 13.6892L35.4293 16.8142C35.1303 16.9868 35.0279 17.369 35.2005 17.668L36.4505 19.833C36.6231 20.132 37.0053 20.2344 37.3043 20.0618L42.7169 16.9368C43.0158 16.7642 43.1183 16.382 42.9457 16.083Z" fill="#E1E1E1" stroke="#00DF9C" stroke-width="1.25" stroke-linecap="round"/>
<path d="M45 26.25V23.75C45 23.4048 44.7202 23.125 44.375 23.125H38.125C37.7798 23.125 37.5 23.4048 37.5 23.75V26.25C37.5 26.5952 37.7798 26.875 38.125 26.875H44.375C44.7202 26.875 45 26.5952 45 26.25Z" fill="#E1E1E1" stroke="#00DF9C" stroke-opacity="0.2" stroke-width="1.25" stroke-linecap="round"/>
<path d="M41.6956 36.0826L42.9456 33.9175C43.1181 33.6186 43.0157 33.2363 42.7168 33.0637L37.3041 29.9387C37.0052 29.7661 36.623 29.8686 36.4504 30.1675L35.2004 32.3326C35.0278 32.6315 35.1302 33.0137 35.4291 33.1863L40.8418 36.3113C41.1407 36.4839 41.523 36.3815 41.6956 36.0826Z" fill="#E1E1E1" stroke="#00DF9C" stroke-width="1.25" stroke-linecap="round"/>
<path d="M33.9164 42.9453L36.0815 41.6953C36.3804 41.5227 36.4828 41.1405 36.3102 40.8415L33.1852 35.4289C33.0127 35.13 32.6304 35.0275 32.3315 35.2001L30.1664 36.4501C29.8675 36.6227 29.7651 37.005 29.9376 37.3039L33.0626 42.7165C33.2352 43.0155 33.6175 43.1179 33.9164 42.9453Z" fill="#E1E1E1" stroke="black" stroke-width="1.25" stroke-linecap="round"/>
<path d="M26.25 37.5H23.75C23.4048 37.5 23.125 37.7798 23.125 38.125V44.375C23.125 44.7202 23.4048 45 23.75 45H26.25C26.5952 45 26.875 44.7202 26.875 44.375V38.125C26.875 37.7798 26.5952 37.5 26.25 37.5Z" fill="#E1E1E1" stroke="black" stroke-width="1.25" stroke-linecap="round"/>
<path d="M19.8325 36.4504L17.6675 35.2004C17.3685 35.0279 16.9863 35.1303 16.8137 35.4292L13.6887 40.8419C13.5161 41.1408 13.6185 41.523 13.9175 41.6956L16.0825 42.9456C16.3815 43.1182 16.7637 43.0158 16.9363 42.7169L20.0613 37.3042C20.2339 37.0053 20.1315 36.623 19.8325 36.4504Z" fill="#E1E1E1" stroke="#02181A" stroke-opacity="0.5" stroke-width="1.25" stroke-linecap="round"/>
<path d="M14.7998 32.333L13.5498 30.168C13.3772 29.869 12.995 29.7666 12.696 29.9392L7.28338 33.0642C6.98445 33.2368 6.88203 33.619 7.05461 33.918L8.30461 36.083C8.4772 36.382 8.85945 36.4844 9.15838 36.3118L14.571 33.1868C14.87 33.0142 14.9724 32.632 14.7998 32.333Z" fill="#E1E1E1" stroke="#00DF9C" stroke-width="1.25" stroke-linecap="round"/>
<path d="M12.5 26.25V23.75C12.5 23.4048 12.2202 23.125 11.875 23.125H5.625C5.27982 23.125 5 23.4048 5 23.75V26.25C5 26.5952 5.27982 26.875 5.625 26.875H11.875C12.2202 26.875 12.5 26.5952 12.5 26.25Z" fill="#E1E1E1" stroke="#00DF9C" stroke-opacity="0.2" stroke-width="1.25" stroke-linecap="round"/>
<path d="M13.5496 19.8326L14.7996 17.6675C14.9722 17.3686 14.8698 16.9863 14.5709 16.8137L9.1582 13.6887C8.85926 13.5161 8.47702 13.6186 8.30443 13.9175L7.05443 16.0826C6.88184 16.3815 6.98426 16.7637 7.2832 16.9363L12.6959 20.0613C12.9948 20.2339 13.377 20.1315 13.5496 19.8326Z" fill="#E1E1E1" stroke="#00DF9C" stroke-width="1.25" stroke-linecap="round"/>
<path d="M17.6675 14.8L19.8325 13.55C20.1315 13.3775 20.2339 12.9952 20.0613 12.6963L16.9363 7.28362C16.7637 6.98469 16.3815 6.88227 16.0825 7.05486L13.9175 8.30486C13.6185 8.47745 13.5161 8.85969 13.6887 9.15862L16.8137 14.5713C16.9863 14.8702 17.3685 14.9726 17.6675 14.8Z" fill="#E1E1E1" stroke="black" stroke-width="1.25" stroke-linecap="round"/>
</svg>
