<svg width="28" height="34" viewBox="0 0 28 34" fill="none" xmlns="http://www.w3.org/2000/svg">
<path fill-rule="evenodd" clip-rule="evenodd" d="M15.7193 7.23092C15.7193 8.29657 15.4481 9.32812 14.9304 10.2442L10.1294 6.94388V1.1185C13.2582 1.39583 15.7193 4.03102 15.7193 7.23092ZM9.27315 7.68236L14.7807 11.4685C14.8717 11.5315 14.9797 11.5652 15.0903 11.565C15.179 11.5651 15.2665 11.5437 15.3452 11.5025C15.4238 11.4613 15.4913 11.4016 15.5417 11.3285C16.3734 10.1207 16.813 8.70331 16.813 7.23092C16.813 3.24434 13.5693 6.87533e-08 9.58275 6.87533e-08C9.51087 -3.59835e-05 9.43968 0.0141069 9.37326 0.0416191C9.30685 0.0691313 9.24651 0.109472 9.19571 0.160333C9.14491 0.211194 9.10463 0.271575 9.07719 0.338021C9.04976 0.404466 9.03569 0.475671 9.03581 0.547559V7.23181C9.03578 7.32054 9.05738 7.40794 9.09874 7.48645C9.14009 7.56496 9.19996 7.6322 9.27315 7.68236ZM6.68432 2.68577C3.55489 2.96345 1.09375 5.59932 1.09375 8.79922C1.09375 12.1828 3.84672 14.9358 7.23099 14.9358C9.06664 14.9358 10.7967 14.1141 11.958 12.7128L6.92145 9.25032C6.84834 9.20011 6.78855 9.13286 6.74724 9.05437C6.70592 8.97589 6.68433 8.88853 6.68432 8.79983V2.68577ZM7.23099 16.0295C9.6101 16.0295 11.8379 14.8586 13.1893 12.8959C13.2713 12.7763 13.3028 12.6292 13.2768 12.4866C13.2503 12.3438 13.1681 12.2174 13.0484 12.1352L7.77793 8.5119V2.11497C7.77793 1.81282 7.53238 1.5683 7.23092 1.5683C3.24365 1.5683 0 4.81161 0 8.79922C6.83594e-05 12.7858 3.24372 16.0295 7.23099 16.0295ZM26.3512 8.67692L26.1282 10.2053C26.0854 10.5039 26.2916 10.7822 26.5912 10.8253C26.6172 10.8295 26.643 10.8315 26.6719 10.8315C26.8029 10.8313 26.9293 10.7838 27.028 10.6978C27.1268 10.6118 27.1911 10.493 27.2092 10.3634L27.6532 7.32751C27.6758 7.16468 27.6275 7.00062 27.5149 6.87962C27.4055 6.75862 27.2446 6.69368 27.0805 6.70264L24.0186 6.86868C23.7171 6.88509 23.4855 7.1428 23.5019 7.44434C23.5183 7.7458 23.776 7.97747 24.0775 7.96045L25.6033 7.87773C18.7799 13.9342 10.6307 18.6383 1.3598 21.8668C1.29203 21.8904 1.22956 21.9271 1.17597 21.9748C1.12238 22.0225 1.07871 22.0803 1.04746 22.1449C1.01621 22.2095 0.99799 22.2796 0.993839 22.3513C0.989689 22.4229 0.99969 22.4946 1.02327 22.5624C1.06053 22.6698 1.13031 22.7629 1.22291 22.8288C1.31551 22.8947 1.42634 22.9302 1.54 22.9302C1.59981 22.9302 1.66065 22.9202 1.71985 22.8996C6.2959 21.3062 10.6374 19.3455 14.6247 17.0736C18.8446 14.6684 22.7829 11.8459 26.3512 8.67692ZM5.22676 32.8124H2.48985V26.5574H5.22676V32.8124ZM5.7737 25.4637H1.94284C1.64131 25.4637 1.39583 25.7086 1.39583 26.0107V33.3591C1.39587 33.5042 1.45351 33.6433 1.55609 33.7459C1.65866 33.8484 1.79778 33.9061 1.94284 33.9061H5.7737C5.84553 33.9061 5.91665 33.892 5.98301 33.8645C6.04937 33.837 6.10966 33.7967 6.16044 33.7459C6.21121 33.6951 6.25147 33.6348 6.27891 33.5684C6.30635 33.5021 6.32044 33.4309 6.32037 33.3591V26.0107C6.32042 25.9389 6.30631 25.8678 6.27886 25.8014C6.2514 25.7351 6.21114 25.6748 6.16038 25.624C6.10961 25.5732 6.04933 25.5329 5.98298 25.5054C5.91663 25.4779 5.84552 25.4637 5.7737 25.4637ZM26.5645 32.8124H23.828V15.0706H26.5645V32.8124ZM27.1128 13.9766C27.412 13.9766 27.6598 14.2215 27.6598 14.5236V33.3591C27.6598 33.6616 27.412 33.9061 27.1128 33.9061H23.2809C23.2091 33.9061 23.138 33.892 23.0716 33.8645C23.0053 33.837 22.945 33.7967 22.8942 33.7459C22.8434 33.6951 22.8032 33.6348 22.7757 33.5684C22.7483 33.5021 22.7342 33.4309 22.7343 33.3591V14.5236C22.7342 14.4518 22.7483 14.3807 22.7758 14.3143C22.8032 14.248 22.8435 14.1877 22.8943 14.1369C22.945 14.0861 23.0053 14.0458 23.0717 14.0183C23.138 13.9908 23.2091 13.9766 23.2809 13.9766H27.1128ZM12.3396 32.8124H9.60237V22.7075H12.3396V32.8124ZM12.8865 21.6139C12.9583 21.6138 13.0294 21.6279 13.0957 21.6554C13.1621 21.6829 13.2224 21.7231 13.2731 21.7739C13.3239 21.8247 13.3642 21.885 13.3916 21.9513C13.4191 22.0176 13.4332 22.0887 13.4332 22.1605V33.359C13.4332 33.4309 13.4191 33.502 13.3917 33.5684C13.3643 33.6347 13.324 33.6951 13.2732 33.7459C13.2225 33.7967 13.1622 33.837 13.0958 33.8645C13.0294 33.8919 12.9583 33.9061 12.8865 33.906H9.05563C8.98379 33.9061 8.91264 33.892 8.84626 33.8645C8.77988 33.837 8.71956 33.7967 8.66876 33.7459C8.61796 33.6951 8.57767 33.6348 8.55019 33.5684C8.52271 33.502 8.50859 33.4309 8.50862 33.359V22.1605C8.50862 22.0887 8.52277 22.0176 8.55027 21.9513C8.57776 21.8849 8.61806 21.8246 8.66886 21.7739C8.71966 21.7231 8.77996 21.6828 8.84633 21.6554C8.91269 21.6279 8.98382 21.6138 9.05563 21.6139H12.8865ZM19.4523 32.8124H16.7151V18.6875H19.4523V32.8124ZM19.999 17.5935C20.1441 17.5935 20.2832 17.6512 20.3858 17.7538C20.4883 17.8563 20.546 17.9955 20.546 18.1405V33.3591C20.546 33.4309 20.5319 33.5021 20.5044 33.5685C20.4769 33.6348 20.4366 33.6951 20.3859 33.7459C20.3351 33.7967 20.2747 33.837 20.2084 33.8645C20.142 33.892 20.0709 33.9061 19.999 33.9061H16.1685C16.0967 33.9061 16.0255 33.892 15.9591 33.8645C15.8927 33.8371 15.8324 33.7968 15.7816 33.746C15.7308 33.6952 15.6905 33.6349 15.663 33.5685C15.6356 33.5021 15.6214 33.4309 15.6215 33.3591V18.1405C15.6215 18.0687 15.6356 17.9976 15.6631 17.9312C15.6906 17.8648 15.7309 17.8045 15.7817 17.7537C15.8325 17.7029 15.8928 17.6626 15.9592 17.6351C16.0255 17.6076 16.0967 17.5935 16.1685 17.5935H19.999Z" fill="#00DF9C"/>
</svg>
