<svg xmlns="http://www.w3.org/2000/svg" width="60" height="60" fill="none" viewBox="0 0 60 60"><path stroke="#fff" stroke-width="1.481" d="M30 38.519a8.889 8.889 0 1 0 0-17.778 8.889 8.889 0 0 0 0 17.778Z"/><path stroke="#fff" stroke-opacity=".5" stroke-width="1.481" d="M43.166 27.516a.8.8 0 0 0 .714.67 14.08 14.08 0 0 1 8.105 3.551.77.77 0 0 0 1.061-.014l4.19-4.19a.72.72 0 0 0-.009-1.038 21.48 21.48 0 0 0-15.78-5.748c-.594.031-.874.736-.532 1.223a13.26 13.26 0 0 1 2.251 5.546Z"/><path stroke="#fff" stroke-width="1.481" d="M32.305 16.495c-.587-.103-.887-.8-.489-1.242q.375-.418.773-.814A21.48 21.48 0 0 1 47.038 8.16a.72.72 0 0 1 .74.728v5.926c0 .41-.332.739-.74.76a14.07 14.07 0 0 0-8.243 3.22.8.8 0 0 1-.979.032 13.3 13.3 0 0 0-5.51-2.331Zm-4.419-.032a.8.8 0 0 0 .67-.715 14.07 14.07 0 0 1 3.552-8.105.77.77 0 0 0-.014-1.06l-4.19-4.19a.72.72 0 0 0-1.039.008 21.48 21.48 0 0 0-5.748 15.78c.031.594.736.874 1.224.532a13.26 13.26 0 0 1 5.545-2.25Zm-8.69 5.351a.8.8 0 0 0-.031-.98 14.08 14.08 0 0 1-3.22-8.242.77.77 0 0 0-.76-.74H9.258a.72.72 0 0 0-.728.74 21.48 21.48 0 0 0 7.092 15.221c.442.399 1.14.098 1.241-.489a13.3 13.3 0 0 1 2.332-5.51Z"/><path stroke="#fff" stroke-opacity=".5" stroke-width="1.481" d="M16.832 31.74a.8.8 0 0 0-.714-.67 14.08 14.08 0 0 1-8.104-3.551.77.77 0 0 0-1.061.014l-4.19 4.19c-.29.29-.29.76.008 1.039A21.48 21.48 0 0 0 18.55 38.51c.595-.032.875-.736.533-1.224a13.26 13.26 0 0 1-2.25-5.545Z"/><path stroke="#fff" stroke-width="1.481" d="M22.183 40.433a.8.8 0 0 0-.978.03 14.08 14.08 0 0 1-8.242 3.22.77.77 0 0 0-.74.76v5.927a.72.72 0 0 0 .74.727 21.48 21.48 0 0 0 15.22-7.091c.399-.443.098-1.14-.489-1.242a13.3 13.3 0 0 1-5.51-2.332Zm9.928 2.362a.8.8 0 0 0-.67.715 14.08 14.08 0 0 1-3.552 8.104.77.77 0 0 0 .014 1.06l4.19 4.191c.29.29.76.29 1.039-.009a21.48 21.48 0 0 0 5.748-15.779c-.031-.594-.736-.875-1.224-.532a13.26 13.26 0 0 1-5.545 2.25Zm8.692-5.349a.8.8 0 0 0 .031.979 14.07 14.07 0 0 1 3.22 8.242c.022.409.351.74.76.74h5.926a.72.72 0 0 0 .728-.74 21.48 21.48 0 0 0-7.092-15.22c-.443-.4-1.14-.099-1.242.488a13.3 13.3 0 0 1-2.331 5.511Z"/></svg>