<svg width="1185" height="180" viewBox="0 0 1185 180" fill="none" xmlns="http://www.w3.org/2000/svg">
<path d="M0 141.828V6.107H91.7873V31.9929H33.9075V55.7832H87.2301V81.6697H33.9075V115.941H91.7873V141.828H0ZM206.088 179.381H174.186V131.802C171.937 133.624 169.598 135.417 167.167 137.179C164.737 138.881 162.428 140.218 160.24 141.19C157.506 142.466 155.014 143.348 152.766 143.833C150.518 144.38 147.479 144.654 143.651 144.654C132.045 144.654 122.809 139.823 115.941 130.161C109.136 120.5 105.733 107.587 105.733 91.4226C105.733 82.4903 106.888 74.7426 109.197 68.1794C111.506 61.617 114.696 55.9048 118.767 51.0435C122.474 46.6078 126.971 43.1135 132.258 40.5613C137.544 37.9483 143.135 36.6423 149.029 36.6423C154.072 36.6423 158.447 37.2797 162.154 38.5562C165.922 39.8318 169.872 41.6554 174.003 44.0253L175.189 39.4671H206.088V179.381ZM174.186 113.572V63.3485C172.606 62.5583 170.54 61.9209 167.988 61.4346C165.436 60.8875 163.248 60.614 161.425 60.614C153.768 60.614 147.996 63.2878 144.107 68.6353C140.279 73.9828 138.364 81.457 138.364 91.0578C138.364 101.145 139.884 108.437 142.922 112.934C146.021 117.431 151.003 119.679 157.871 119.679C160.666 119.679 163.491 119.132 166.347 118.039C169.203 116.944 171.816 115.456 174.186 113.572ZM325.676 141.828H293.774V130.526C288.244 135.144 283.17 138.668 278.552 141.098C273.934 143.468 268.434 144.654 262.054 144.654C251.906 144.654 243.976 141.463 238.264 135.083C232.612 128.641 229.787 118.98 229.787 106.097V39.4671H261.872V90.2372C261.872 95.5239 261.993 99.8389 262.236 103.18C262.539 106.523 263.208 109.349 264.242 111.658C265.213 113.784 266.703 115.395 268.708 116.488C270.773 117.583 273.63 118.129 277.276 118.129C279.524 118.129 282.168 117.583 285.205 116.488C288.304 115.395 291.161 113.906 293.774 112.022V39.4671H325.676V141.828ZM382.097 141.828H350.195V39.4671H382.097V141.828ZM383.009 24.8836H349.283V0H383.009V24.8836ZM445.719 143.833C432.715 143.833 423.236 141.159 417.28 135.812C411.387 130.465 408.439 121.714 408.439 109.561V61.7082H396.226V39.4671H408.439V10.2086H440.341V39.4671H471.059V61.7082H440.341V97.9849C440.341 101.57 440.372 104.7 440.432 107.374C440.493 110.048 440.979 112.448 441.891 114.575C442.741 116.701 444.231 118.402 446.357 119.679C448.545 120.894 451.705 121.502 455.837 121.502C457.539 121.502 459.757 121.137 462.491 120.408C465.286 119.679 467.231 119.01 468.324 118.402H471.059V140.916C467.595 141.828 463.919 142.527 460.03 143.013C456.141 143.559 451.371 143.833 445.719 143.833ZM579.708 39.4671L528.027 179.381H493.755L509.25 139.367L471.697 39.4671H505.24L526.751 103.636L546.895 39.4671H579.708ZM698.02 48.9473C698.02 55.2665 697.017 61.2827 695.012 66.9949C693.007 72.7063 690.121 77.4772 686.353 81.305C684.044 83.6748 681.492 85.8623 678.696 87.8674C675.962 89.8733 672.924 91.5745 669.582 92.9717C666.239 94.3698 662.594 95.4631 658.643 96.2534C654.755 97.0436 650.379 97.4387 645.518 97.4387H627.653V141.828H593.563V6.107H646.247C654.086 6.107 660.831 6.83618 666.482 8.29455C672.195 9.69213 677.36 11.9405 681.978 15.0395C687.082 18.4425 691.032 22.9999 693.827 28.7122C696.622 34.3636 698.02 41.1084 698.02 48.9473ZM663.018 49.767C663.018 45.9392 662.107 42.6576 660.285 39.923C658.461 37.1277 656.274 35.2138 653.721 34.1813C650.501 32.7832 647.402 31.9929 644.425 31.8114C641.508 31.5683 637.527 31.4467 632.483 31.4467H627.653V72.0993H630.022C633.243 72.0993 636.282 72.0689 639.138 72.0081C641.994 71.9473 644.485 71.7345 646.612 71.3698C648.435 71.0659 650.349 70.4884 652.355 69.6383C654.42 68.7265 656 67.7235 657.094 66.6302C659.403 64.3819 660.952 62.0425 661.743 59.6119C662.594 57.1813 663.018 53.8997 663.018 49.767ZM770.848 115.122V93.7924C765.44 94.3394 761.065 94.8257 757.723 95.2504C754.38 95.6151 751.099 96.3749 747.879 97.5299C745.083 98.5016 742.896 99.9909 741.316 101.996C739.797 103.94 739.037 106.553 739.037 109.835C739.037 114.635 740.313 117.947 742.865 119.77C745.478 121.532 749.306 122.413 754.35 122.413C757.145 122.413 760.001 121.775 762.918 120.5C765.835 119.223 768.478 117.431 770.848 115.122ZM770.848 130.981C768.661 132.805 766.686 134.445 764.923 135.903C763.222 137.362 760.913 138.82 757.996 140.279C755.14 141.676 752.345 142.74 749.61 143.468C746.936 144.198 743.169 144.562 738.308 144.562C729.254 144.562 721.719 141.524 715.703 135.448C709.748 129.371 706.77 121.714 706.77 112.478C706.77 104.883 708.29 98.7448 711.327 94.0659C714.366 89.3871 718.742 85.6799 724.453 82.9454C730.226 80.1501 737.123 78.2057 745.144 77.1124C753.165 76.0183 761.794 75.1673 771.031 74.5603V74.0132C771.031 68.3617 768.934 64.4731 764.741 62.3456C760.609 60.1581 754.38 59.0648 746.056 59.0648C742.288 59.0648 737.883 59.763 732.839 61.1611C727.795 62.4975 722.873 64.23 718.073 66.3566H715.338V41.6554C718.499 40.7436 723.603 39.6799 730.652 38.465C737.7 37.1885 744.81 36.5511 751.98 36.5511C769.602 36.5511 782.424 39.4975 790.445 45.3921C798.527 51.2259 802.568 60.1581 802.568 72.1904V141.828H770.848V130.981ZM922.067 141.828H889.98V91.0578C889.98 86.9261 889.798 82.8238 889.433 78.7528C889.129 74.621 888.521 71.5826 887.609 69.6383C886.515 67.3292 884.935 65.688 882.868 64.7163C880.801 63.6829 878.04 63.1662 874.575 63.1662C871.961 63.1662 869.321 63.6525 866.647 64.6251C863.972 65.5968 861.115 67.1469 858.076 69.2735V141.828H826.176V39.4671H858.076V50.77C863.303 46.3343 868.375 42.8703 873.298 40.3789C878.283 37.8875 883.78 36.6423 889.798 36.6423C900.253 36.6423 908.242 39.9534 913.774 46.5774C919.297 53.1398 922.067 62.6799 922.067 75.1977V141.828ZM1038.83 141.828H1006.93V131.163C1004.86 132.865 1002.49 134.688 999.813 136.632C997.2 138.577 994.89 140.036 992.884 141.007C990.339 142.223 987.812 143.135 985.32 143.742C982.828 144.35 979.849 144.654 976.393 144.654C964.722 144.654 955.482 139.823 948.683 130.161C941.875 120.5 938.471 107.587 938.471 91.4226C938.471 82.4903 939.626 74.7426 941.936 68.1794C944.245 61.617 947.432 55.9048 951.505 51.0435C955.213 46.6078 959.711 43.1135 965 40.5613C970.28 37.9483 975.872 36.6423 981.768 36.6423C987.118 36.6423 991.486 37.2189 994.89 38.3738C998.354 39.4671 1002.37 41.1995 1006.93 43.5694V0H1038.83V141.828ZM1006.93 113.572V63.3485C1005.34 62.5583 1003.28 61.9209 1000.73 61.4346C998.172 60.8875 995.984 60.614 994.16 60.614C986.51 60.614 980.735 63.2878 976.845 68.6353C973.015 73.9828 971.105 81.457 971.105 91.0578C971.105 101.145 972.624 108.437 975.664 112.934C978.755 117.431 983.74 119.679 990.609 119.679C993.405 119.679 996.227 119.132 999.084 118.039C1001.94 116.944 1004.55 115.456 1006.93 113.572ZM1095.25 141.828H1063.34V39.4671H1095.25V141.828ZM1096.16 24.8836H1062.43V0H1096.16V24.8836ZM1158.87 143.833C1145.87 143.833 1136.38 141.159 1130.44 135.812C1124.54 130.465 1121.59 121.714 1121.59 109.561V61.7082H1109.38V39.4671H1121.59V10.2086H1153.49V39.4671H1184.21V61.7082H1153.49V97.9849C1153.49 101.57 1153.53 104.7 1153.59 107.374C1153.65 110.048 1154.13 112.448 1155.05 114.575C1155.9 116.701 1157.38 118.402 1159.51 119.679C1161.7 120.894 1164.86 121.502 1168.98 121.502C1170.69 121.502 1172.91 121.137 1175.64 120.408C1178.44 119.679 1180.39 119.01 1181.47 118.402H1184.21V140.916C1180.75 141.828 1177.07 142.527 1173.18 143.013C1169.29 143.559 1164.52 143.833 1158.87 143.833Z" fill="url(#paint0_linear_1_1180)" fill-opacity="0.5"/>
<defs>
<linearGradient id="paint0_linear_1_1180" x1="597.874" y1="16.6629" x2="600.4" y2="150.601" gradientUnits="userSpaceOnUse">
<stop stop-color="white" stop-opacity="0.75"/>
<stop offset="0.5" stop-color="white" stop-opacity="0.4"/>
<stop offset="0.949438" stop-color="white" stop-opacity="0"/>
</linearGradient>
</defs>
</svg>
