<svg xmlns="http://www.w3.org/2000/svg" width="50" height="49" fill="none" viewBox="0 0 50 49"><g stroke-linecap="round" stroke-width="1.205" clip-path="url(#a)"><path stroke="#00df9c" d="M24.096 4.82c9.981 0 18.073 8.63 18.073 19.276 0 10.647-8.092 19.278-18.073 19.278"/><path stroke="#00df9c" d="M24.096 4.82c6.654 0 12.049 8.63 12.049 19.276 0 10.647-5.395 19.278-12.049 19.278"/><path stroke="#000" d="M24.096 4.82c2.995 0 5.422 8.63 5.422 19.276 0 10.647-2.427 19.278-5.422 19.278"/><path fill="#e1e1e1" stroke="#02181a" stroke-opacity=".5" d="M1.41 17.28c-1.201-2.404.547-5.232 3.233-5.232H41.14c1.369 0 2.62.774 3.233 1.998l4.216 8.434a3.62 3.62 0 0 1 0 3.233l-4.216 8.434a3.62 3.62 0 0 1-3.233 1.998H4.643c-2.686 0-4.434-2.828-3.232-5.231l2.6-5.201a3.62 3.62 0 0 0 0-3.233z"/><path stroke="#00df9c" d="M24.096 43.374c-9.98 0-18.072-8.631-18.072-19.278S14.115 4.82 24.096 4.82"/><path stroke="#00df9c" d="M24.096 43.374c-6.654 0-12.048-8.631-12.048-19.278S17.442 4.82 24.096 4.82"/><path stroke="#000" d="M31.211 17.324a.6.6 0 0 1 .585-.457h7.191c.392 0 .68.369.585.749l-.904 3.614a.6.6 0 0 1-.584.457h-7.192a.602.602 0 0 1-.584-.749zm1.922 14.001a3.012 3.012 0 1 0 0-6.024 3.012 3.012 0 0 0 0 6.024Z"/><path stroke="#000" d="M36.747 31.325a3.012 3.012 0 1 0 0-6.024 3.012 3.012 0 0 0 0 6.024Z"/><path stroke="#00df9c" d="M24.096 43.374c-2.994 0-5.421-8.631-5.421-19.278S21.102 4.82 24.096 4.82"/><path stroke="#000" d="M24.096 43.374c-2.994 0-5.421-8.631-5.421-19.278S21.102 4.82 24.096 4.82"/></g><defs><clipPath id="a"><path fill="#fff" d="M0 0h50v48.193H0z"/></clipPath></defs></svg>