<svg xmlns="http://www.w3.org/2000/svg" width="60" height="60" fill="none" viewBox="0 0 60 60"><path fill="#02181a" d="M39.946 25.5H39a.71.71 0 1 0 0 1.421h.947a.71.71 0 1 0 0-1.421M34.972 30a.71.71 0 0 0-.71-.71H19.104a.71.71 0 1 0 0 1.42h15.158a.71.71 0 0 0 .71-.71M19.104 43.5a.71.71 0 1 0 0 1.422h3.79a.71.71 0 1 0 0-1.422z"/><path fill="#02181a" d="M37.862 45.774a2.62 2.62 0 0 0 2.085 1.042 2.62 2.62 0 0 0 2.084-1.042l9.947-13.263a2.61 2.61 0 0 0-.52-3.648 2.61 2.61 0 0 0-3.648.521l-.521.695V10.105A2.61 2.61 0 0 0 44.684 7.5H14.367a2.61 2.61 0 0 0-2.605 2.605v.237h-1.658a2.61 2.61 0 0 0-2.605 2.605v34.106a2.61 2.61 0 0 0 2.605 2.605h1.658v.237a2.61 2.61 0 0 0 2.605 2.606h30.316a2.61 2.61 0 0 0 2.606-2.606v-7.579a.712.712 0 0 0-1.421 0v7.58c0 .652-.532 1.184-1.185 1.184H14.367a1.186 1.186 0 0 1-1.184-1.185V19.58a.71.71 0 1 0-1.421 0v28.658h-1.658a1.186 1.186 0 0 1-1.184-1.184V12.947c0-.653.53-1.184 1.184-1.184h1.658v4.974a.71.71 0 1 0 1.42 0v-6.632c0-.653.532-1.184 1.185-1.184h30.316c.653 0 1.185.53 1.185 1.184v21.79q0 .038.003.074l-5.924 7.9-2.18-2.906a2.6 2.6 0 0 0-1.715-1.016 2.6 2.6 0 0 0-1.932.495 2.6 2.6 0 0 0-1.016 1.716 2.6 2.6 0 0 0 .495 1.932zm-3.351-7.415a1.18 1.18 0 0 1 .462-.78 1.18 1.18 0 0 1 .878-.225 1.18 1.18 0 0 1 .78.462l2.747 3.663a.71.71 0 0 0 1.137 0l8.432-11.242A1.186 1.186 0 0 1 50.605 30c.522.392.628 1.136.237 1.658l-9.948 13.264a1.2 1.2 0 0 1-.947.473 1.19 1.19 0 0 1-.948-.473l-4.263-5.685a1.18 1.18 0 0 1-.225-.878"/><path fill="#02181a" d="M30.236 40.42a.71.71 0 0 0-.711-.71H19.104a.71.71 0 1 0 0 1.42h10.42a.71.71 0 0 0 .711-.71m-5.922-20.606a.71.71 0 1 0 0 1.421h10.422a.71.71 0 0 0 .656-.982.71.71 0 0 0-.656-.439zm-5.21 7.106h15.158a.71.71 0 1 0 0-1.421H19.104a.71.71 0 1 0 0 1.42m20.842-10.895H19.104a.71.71 0 1 0 0 1.421h20.842a.71.71 0 0 0 0-1.421m0 13.263H39a.71.71 0 0 0 0 1.421h.947a.71.71 0 0 0 0-1.42"/></svg>