<svg xmlns="http://www.w3.org/2000/svg" width="60" height="60" fill="none" viewBox="0 0 60 60"><g stroke="#fff" stroke-width="1.481" clip-path="url(#a)"><path d="M30.002 50.37c13.909 0 25.185-11.275 25.185-25.185S43.91 0 30.002 0C16.092 0 4.816 11.276 4.816 25.185c0 13.91 11.276 25.185 25.186 25.185Z"/><path d="M24.814 42.222c10.636 0 19.26-8.623 19.26-19.26 0-10.636-8.623-19.259-19.26-19.259s-19.26 8.623-19.26 19.26c0 10.636 8.623 19.259 19.26 19.259Z"/><path stroke-opacity=".5" d="M27.037 31.112c7.363 0 13.333-5.97 13.333-13.333S34.4 4.445 27.037 4.445s-13.334 5.97-13.334 13.334 5.97 13.333 13.334 13.333Z"/><path d="M32.224 27.405a7.407 7.407 0 1 0 0-14.815 7.407 7.407 0 0 0 0 14.815Z"/></g><defs><clipPath id="a"><path fill="#fff" d="M0 0h60v59.259H0z"/></clipPath></defs></svg>