<svg width="50" height="50" viewBox="0 0 50 50" fill="none" xmlns="http://www.w3.org/2000/svg">
<path d="M28.3028 21.603C27.555 18.8122 25.9072 16.3461 23.615 14.5872C21.3228 12.8284 18.5143 11.875 15.625 11.875C12.7358 11.875 9.92719 12.8284 7.63501 14.5872C5.34281 16.3461 3.69502 18.8122 2.94723 21.603C2.19943 24.3938 2.39341 27.3534 3.49909 30.0227C4.60476 32.6921 6.56032 34.9219 9.06251 36.3666C11.5647 37.8112 14.4736 38.3898 17.3381 38.0127C20.2027 37.6356 22.8628 36.3238 24.9058 34.2808" stroke="#02181A" stroke-opacity="0.5" stroke-width="1.25" stroke-linecap="round"/>
<path d="M21.603 21.6973C18.8122 22.445 16.3461 24.0928 14.5872 26.385C12.8284 28.6772 11.875 31.4858 11.875 34.375C11.875 37.2643 12.8284 40.0728 14.5872 42.365C16.3461 44.6572 18.8122 46.305 21.603 47.0528C24.3938 47.8006 27.3534 47.6066 30.0227 46.501C32.6921 45.3953 34.9219 43.4397 36.3666 40.9375C37.8112 38.4353 38.3898 35.5264 38.0127 32.6619C37.6356 29.7973 36.3238 27.1373 34.2808 25.0943" stroke="#00DF9C" stroke-opacity="0.75" stroke-width="1.25" stroke-linecap="round"/>
<path d="M21.6973 28.397C22.445 31.1878 24.0928 33.6539 26.385 35.4127C28.6772 37.1716 31.4858 38.125 34.375 38.125C37.2643 38.125 40.0728 37.1716 42.365 35.4127C44.6572 33.6539 46.305 31.1878 47.0528 28.397C47.8006 25.6062 47.6066 22.6466 46.501 19.9772C45.3953 17.3079 43.4397 15.0781 40.9375 13.6334C38.4353 12.1888 35.5264 11.6102 32.6618 11.9873C29.7973 12.3644 27.1373 13.6762 25.0943 15.7192" stroke="black" stroke-width="1.25" stroke-linecap="round"/>
<path d="M28.397 28.3028C31.1878 27.555 33.6539 25.9072 35.4127 23.615C37.1716 21.3228 38.125 18.5143 38.125 15.625C38.125 12.7358 37.1716 9.92719 35.4127 7.63501C33.6539 5.34281 31.1878 3.69502 28.397 2.94723C25.6062 2.19943 22.6466 2.39341 19.9772 3.49909C17.3079 4.60476 15.0781 6.56032 13.6334 9.06251C12.1888 11.5647 11.6102 14.4736 11.9873 17.3382C12.3644 20.2027 13.6762 22.8628 15.7192 24.9058" stroke="#00DF9C" stroke-width="1.25" stroke-linecap="round"/>
</svg>
