<svg xmlns="http://www.w3.org/2000/svg" width="50" height="50" fill="none" viewBox="0 0 50 50"><path stroke="#00df9c" stroke-linecap="round" stroke-width="1.25" d="M44.375 10H5.625a3.75 3.75 0 0 0-3.75 3.75v22.5A3.75 3.75 0 0 0 5.625 40h38.75a3.75 3.75 0 0 0 3.75-3.75v-22.5a3.75 3.75 0 0 0-3.75-3.75Z"/><path fill="#e1e1e1" stroke="#000" stroke-linecap="round" stroke-width="1.25" d="M26.25 5h-2.5a.625.625 0 0 0-.625.625v6.25c0 .345.28.625.625.625h2.5c.345 0 .625-.28.625-.625v-6.25A.625.625 0 0 0 26.25 5Z"/><path fill="#e1e1e1" stroke="#02181a" stroke-linecap="round" stroke-opacity=".5" stroke-width="1.25" d="m36.083 8.304-2.166-1.25a.625.625 0 0 0-.853.23l-3.125 5.412a.625.625 0 0 0 .229.854l2.165 1.25c.299.172.68.07.853-.23l3.125-5.412a.625.625 0 0 0-.228-.854Z"/><path fill="#e1e1e1" stroke="#00df9c" stroke-linecap="round" stroke-width="1.25" d="m42.946 16.083-1.25-2.165a.625.625 0 0 0-.854-.229l-5.413 3.125a.625.625 0 0 0-.229.854l1.25 2.165a.625.625 0 0 0 .854.229l5.413-3.125a.625.625 0 0 0 .229-.854Z"/><path fill="#e1e1e1" stroke="#00df9c" stroke-linecap="round" stroke-opacity=".2" stroke-width="1.25" d="M45 26.25v-2.5a.625.625 0 0 0-.625-.625h-6.25a.625.625 0 0 0-.625.625v2.5c0 .345.28.625.625.625h6.25c.345 0 .625-.28.625-.625Z"/><path fill="#e1e1e1" stroke="#00df9c" stroke-linecap="round" stroke-width="1.25" d="m41.696 36.083 1.25-2.166a.625.625 0 0 0-.23-.853l-5.412-3.125a.625.625 0 0 0-.854.229l-1.25 2.165a.625.625 0 0 0 .23.853l5.412 3.125c.299.173.681.07.854-.228Z"/><path fill="#e1e1e1" stroke="#000" stroke-linecap="round" stroke-width="1.25" d="m33.916 42.945 2.166-1.25a.625.625 0 0 0 .228-.853l-3.125-5.413a.625.625 0 0 0-.854-.229l-2.165 1.25a.625.625 0 0 0-.228.854l3.125 5.413a.625.625 0 0 0 .853.228ZM26.25 37.5h-2.5a.625.625 0 0 0-.625.625v6.25c0 .345.28.625.625.625h2.5c.345 0 .625-.28.625-.625v-6.25a.625.625 0 0 0-.625-.625Z"/><path fill="#e1e1e1" stroke="#02181a" stroke-linecap="round" stroke-opacity=".5" stroke-width="1.25" d="m19.833 36.45-2.165-1.25a.625.625 0 0 0-.854.23l-3.125 5.412a.625.625 0 0 0 .229.854l2.165 1.25c.299.172.68.07.853-.23l3.125-5.412a.625.625 0 0 0-.229-.854Z"/><path fill="#e1e1e1" stroke="#00df9c" stroke-linecap="round" stroke-width="1.25" d="m14.8 32.333-1.25-2.165a.625.625 0 0 0-.854-.229l-5.413 3.125a.625.625 0 0 0-.228.854l1.25 2.165a.625.625 0 0 0 .853.229l5.413-3.125a.625.625 0 0 0 .229-.854Z"/><path fill="#e1e1e1" stroke="#00df9c" stroke-linecap="round" stroke-opacity=".2" stroke-width="1.25" d="M12.5 26.25v-2.5a.625.625 0 0 0-.625-.625h-6.25A.625.625 0 0 0 5 23.75v2.5c0 .345.28.625.625.625h6.25c.345 0 .625-.28.625-.625Z"/><path fill="#e1e1e1" stroke="#00df9c" stroke-linecap="round" stroke-width="1.25" d="m13.55 19.833 1.25-2.165a.625.625 0 0 0-.23-.854l-5.412-3.125a.625.625 0 0 0-.854.229l-1.25 2.165a.625.625 0 0 0 .23.853l5.412 3.125c.299.173.681.07.854-.228Z"/><path fill="#e1e1e1" stroke="#000" stroke-linecap="round" stroke-width="1.25" d="m17.668 14.8 2.165-1.25a.625.625 0 0 0 .228-.854l-3.125-5.412a.625.625 0 0 0-.854-.23l-2.165 1.25a.625.625 0 0 0-.228.855l3.125 5.412a.625.625 0 0 0 .854.229Z"/></svg>