<svg xmlns="http://www.w3.org/2000/svg" width="80" height="80" fill="none" viewBox="0 0 80 80"><path fill="#02181a" d="M0 0h80v80H0z"/><path fill="#fff" d="M70.068 58.797H67.15V42.026c0-.409-.32-.73-.73-.73h-52.5a.72.72 0 0 0-.728.73v16.77h-2.917a.723.723 0 0 0-.73.73v2.916c0 .409.322.73.73.73v3.645c0 .409.32.73.73.73h2.916a.72.72 0 0 0 .729-.73v-3.645h23.333v3.645c0 .409.321.73.73.73h2.916c.408 0 .73-.321.73-.73v-3.645h23.333v3.645c0 .409.32.73.729.73h2.916c.409 0 .73-.321.73-.73v-3.645a.72.72 0 0 0 .729-.73v-2.916a.723.723 0 0 0-.73-.73M56.943 42.755H58.4v5.833h-1.458zm-7.292 0h5.833v6.562c0 .409.321.73.73.73h2.916c.408 0 .73-.321.73-.73v-6.562h5.833v16.042H49.65zm-8.327 0a.73.73 0 0 0-.423.656v5.177h-1.458v-5.177a.73.73 0 0 0-.423-.656zm-9.173 0h6.256a.73.73 0 0 0-.423.656v5.906c0 .409.321.73.73.73h2.916c.408 0 .73-.321.73-.73v-5.906a.73.73 0 0 0-.423-.656h6.256v16.042H32.15zm-10.208 0H23.4v5.833h-1.458zm-7.292 0h5.833v6.562c0 .409.321.73.73.73h2.916c.409 0 .73-.321.73-.73v-6.562h5.833v16.042H14.65zm-1.458 23.333h-1.459v-2.916h1.459zm27.708 0h-1.458v-2.916H40.9zm27.708 0h-1.458v-2.916h1.458zm.73-4.375H11.004v-1.458h58.333zM28.796 17.73a.7.7 0 0 0-.584.554.76.76 0 0 0 .292.758l9.057 6.256.116 12.25a.71.71 0 0 0 .73.715.7.7 0 0 0 .539-.248l21.466-24.164a.705.705 0 0 0 .088-.832.7.7 0 0 0-.758-.364zm10.325 17.923-.102-10.281 7.175-3.544a.73.73 0 1 0-.642-1.313L38.35 24.06l-7.525-5.206 27.14-4.434z"/></svg>