<svg xmlns="http://www.w3.org/2000/svg" width="35" height="35" fill="none" viewBox="0 0 35 35"><path fill="#02181a" fill-rule="evenodd" d="M31.449 21.708A1.45 1.45 0 0 0 30 20.26h-7.256a.55.55 0 0 1-.378-.15l-3.94-3.736a2.35 2.35 0 0 0-1.577-.614l-11.296.01a1.555 1.555 0 0 0-1.499 1.128L1.148 27.137a1.513 1.513 0 0 0 2.925.776l1.861-6.948a.549.549 0 0 1 1.08.142V33.49a.55.55 0 0 1-1.099 0v-8.213l-.782 2.92A2.61 2.61 0 0 1 .09 26.845l.002-.008 2.907-10.24a2.65 2.65 0 0 1 2.557-1.924v-.003l11.296-.008a3.45 3.45 0 0 1 2.328.914l3.784 3.586H30a2.545 2.545 0 0 1 2.546 2.546m0 0A2.545 2.545 0 0 1 30 24.253h-8.48a.55.55 0 0 1-.369-.143l-1.928-1.758V33.49a.55.55 0 0 1-1.098 0V21.607a.686.686 0 0 1 1.126-.527l2.483 2.075H30a1.45 1.45 0 0 0 1.448-1.447M29.51 1.956a6.46 6.46 0 0 0-8.614 8.952.55.55 0 0 1-.949.552A7.557 7.557 0 0 1 30.232 1.1l-.114-.4a.55.55 0 0 1 1.056-.302l.541 1.897a.55.55 0 0 1-.508.7l-1.97.07a.55.55 0 0 1-.04-1.097zm-6.78 12.27.115.401a.55.55 0 0 1-1.056.301l-.541-1.896a.548.548 0 0 1 .508-.7l1.97-.07a.55.55 0 0 1 .04 1.097l-.313.011a6.459 6.459 0 0 0 8.614-8.952.55.55 0 0 1 .949-.552 7.557 7.557 0 0 1-10.285 10.36m-.064-5.586-.001-.001a1.4 1.4 0 1 1 1.981-1.981l.913.913 2.76-2.787a1.398 1.398 0 0 1 1.985 1.971c-1.627 1.643-2.116 2.155-3.753 3.79a1.397 1.397 0 0 1-1.98 0zm.775-.778 1.906 1.906v.001a.3.3 0 0 0 .427 0l.001-.001c1.635-1.633 2.124-2.144 3.749-3.785v-.001a.3.3 0 0 0-.425-.424l-3.15 3.178a.55.55 0 0 1-.778.001L23.87 7.434a.304.304 0 0 0-.429 0v.001a.3.3 0 0 0 0 .427M12.14 3.612a4.67 4.67 0 0 1 4.665 4.667 4.67 4.67 0 0 1-4.665 4.665A4.67 4.67 0 0 1 7.474 8.28a4.67 4.67 0 0 1 4.666-4.666m0 1.099a3.57 3.57 0 0 0-3.568 3.568 3.57 3.57 0 0 0 3.568 3.567 3.57 3.57 0 0 0 3.567-3.567A3.57 3.57 0 0 0 12.14 4.71" clip-rule="evenodd"/></svg>