<svg xmlns="http://www.w3.org/2000/svg" width="60" height="60" fill="none" viewBox="0 0 60 60"><path fill="#02181a" d="M54.026 26.624a.9.9 0 0 0 .103-.52 1 1 0 0 0 0-.09A24.43 24.43 0 0 0 30.937 6.43V4.746a.938.938 0 0 0-1.875 0v1.682A24.43 24.43 0 0 0 5.867 26.013c-.004.021.003.042 0 .062-.02.245.048.489.192.688.012.015.016.036.03.052a1 1 0 0 0 .088.066c.092.09.206.154.33.187a1 1 0 0 0 .104.043c.02.004.04-.003.062 0a1 1 0 0 0 .189-.002 1 1 0 0 0 .18-.024q.173-.063.325-.169c.014-.01.031-.014.044-.025 1.47-1.31 3.789-2.001 6.708-2.001 3.015 0 5.496.823 6.984 2.318l.002.002q.085.073.185.124a1 1 0 0 0 .09.061l.028.017a.9.9 0 0 0 .36.073h.007c.007 0 .013-.005.02-.005a1 1 0 0 0 .297-.058l.035-.012a1 1 0 0 0 .085-.051 1 1 0 0 0 .123-.066 12.44 12.44 0 0 1 6.726-2.233v2.628a1.5 1.5 0 0 0-.332.377L19.564 43.52a1.477 1.477 0 0 0 1.27 2.23h8.227v4.528a4.04 4.04 0 1 1-8.076 0v-1.825a.937.937 0 1 0-1.875 0v1.825a5.914 5.914 0 1 0 11.826 0V45.75h8.226a1.477 1.477 0 0 0 1.27-2.23l-9.164-15.455a1.5 1.5 0 0 0-.332-.377v-2.632c2.455.002 4.85.756 6.863 2.162q.05.03.104.053.036.028.076.052c.01.006.018.016.03.02.02.01.044.008.065.016q.092.03.188.04.056.014.114.023h.007c.018 0 .037-.009.056-.01q.146-.023.29-.06c.02-.007.037-.02.057-.03a1 1 0 0 0 .12-.077 1 1 0 0 0 .1-.06 10.15 10.15 0 0 1 6.708-2.296c3.375 0 5.48.605 6.83 1.963.01.01.026.014.036.024a.9.9 0 0 0 .608.248l.018.004h.002q.09 0 .178-.017c.03-.005.053-.025.082-.034a1 1 0 0 0 .33-.175c.023-.018.05-.026.072-.047s.03-.05.048-.072a1 1 0 0 0 .108-.16m-24.027-3.47a15.8 15.8 0 0 0-7.217 1.66 31 31 0 0 1 2.488-9.53 25.1 25.1 0 0 1 4.575-7.014c.051 0 .102-.006.154-.006.05 0 .097.005.146.005a25.5 25.5 0 0 1 4.734 7.107 30.5 30.5 0 0 1 2.486 9.358A16.2 16.2 0 0 0 30 23.154m-21.729.994A22.57 22.57 0 0 1 27.203 8.452a27 27 0 0 0-3.65 6.08 33 33 0 0 0-2.642 10.166 13 13 0 0 0-6.793-1.683 14 14 0 0 0-5.848 1.133m30.192 19.728H21.535L29.999 29.6zm.782-19.165a32.3 32.3 0 0 0-2.647-10.086c-.98-2.222-2.26-4.3-3.806-6.173a22.57 22.57 0 0 1 18.898 15.582 14.4 14.4 0 0 0-5.975-1.019 12.7 12.7 0 0 0-6.47 1.696"/><path fill="#02181a" d="M29.062 33.364v5.547a.937.937 0 1 0 1.874 0v-5.547a.937.937 0 1 0-1.875 0m.938 9.006a.937.937 0 1 0 0-1.876.937.937 0 0 0 0 1.875"/></svg>