<svg width="35" height="31" viewBox="0 0 35 31" fill="none" xmlns="http://www.w3.org/2000/svg">
<path fill-rule="evenodd" clip-rule="evenodd" d="M3.53699 13.9888H0.54902C0.246029 13.9888 0 13.7428 0 13.4398C0 13.1367 0.246029 12.8908 0.54902 12.8908H3.353C3.30419 12.4682 3.27976 12.0431 3.27984 11.6177C3.27984 5.56479 8.18575 0.658892 14.2386 0.658892C16.4267 0.658892 18.4648 1.29994 20.1755 2.4045L22.4192 0.160794C22.4702 0.109814 22.5307 0.0693744 22.5973 0.0417853C22.6639 0.0141962 22.7353 -2.62675e-06 22.8074 3.64492e-10H30.5342C30.8372 3.64492e-10 31.0832 0.246029 31.0832 0.54902C31.0832 0.85201 30.8372 1.09804 30.5342 1.09804H23.0349L21.0784 3.05454C23.3882 4.90178 24.934 7.66418 25.1669 10.7926L29.3936 10.7528C29.3134 10.6346 29.2825 10.4898 29.3073 10.3492C29.3321 10.2086 29.4108 10.0832 29.5265 9.9995C29.6446 9.91434 29.7916 9.87953 29.9353 9.90274C30.0791 9.92594 30.2077 10.0052 30.293 10.1232L30.9048 10.9704C30.9724 11.064 31.0087 11.1765 31.0087 11.2919C31.0087 11.4073 30.9724 11.5197 30.9048 11.6133L30.293 12.4605C30.2077 12.5785 30.0791 12.6578 29.9353 12.681C29.7916 12.7042 29.6446 12.6694 29.5265 12.5842C29.4141 12.503 29.3366 12.3823 29.3096 12.2463C29.2825 12.1103 29.3078 11.9692 29.3804 11.8511L25.1941 11.8905C25.1436 13.9568 24.5213 15.8813 23.4794 17.5115L26.0551 20.0125C26.6215 19.6719 27.3744 19.7383 27.8696 20.2178L27.87 20.2183L33.5867 25.7661C34.1761 26.3369 34.1923 27.2866 33.6169 27.8807L33.6165 27.8812L31.5534 30.0065L31.5528 30.0069C30.9825 30.5955 30.0339 30.6113 29.4404 30.0412C29.4397 30.0405 29.439 30.0398 29.4382 30.0391L23.7247 24.4914C23.2262 24.0112 23.1365 23.2609 23.4611 22.6841L20.9698 20.2665C19.1123 21.7141 16.7763 22.5764 14.2386 22.5764C8.99994 22.5764 4.62041 18.9016 3.53699 13.9888ZM19.3791 3.20092C17.8823 2.28488 16.1222 1.75693 14.2386 1.75693C8.79221 1.75693 4.37788 6.17126 4.37788 11.6177C4.37788 17.0641 8.79221 21.4784 14.2386 21.4784C19.685 21.4784 24.0994 17.0641 24.0994 11.6177C24.0994 8.45518 22.611 5.6407 20.2966 3.83634L19.3478 4.78505C21.4253 6.34104 22.7696 8.82226 22.7696 11.6177C22.7696 16.3294 18.9503 20.1487 14.2386 20.1487C9.52693 20.1487 5.70761 16.3294 5.70761 11.6177C5.70761 6.90598 9.52693 3.08666 14.2386 3.08666C15.7527 3.08666 17.1746 3.48106 18.4073 4.17269L19.3791 3.20092ZM22.8347 18.416C22.5178 18.8162 22.1735 19.1938 21.8043 19.5462L24.191 21.8622L25.255 20.7661L22.8347 18.416ZM17.5958 4.98421C16.5874 4.47286 15.4467 4.1847 14.2386 4.1847C10.1334 4.1847 6.80565 7.51244 6.80565 11.6177C6.80565 12.0517 6.84284 12.4771 6.91422 12.8908H9.072L11.1701 8.40734C10.7935 8.06579 10.5568 7.57263 10.5568 7.02457C10.5568 5.9944 11.3932 5.15804 12.4234 5.15804C13.4535 5.15804 14.2899 5.9944 14.2899 7.02457C14.2899 7.72519 13.903 8.33618 13.3315 8.65536L14.4045 13.6999L14.4096 13.7003L16.5118 8.58928C16.55 8.4965 16.6129 8.41595 16.6936 8.3564C16.7744 8.29684 16.8699 8.26054 16.9698 8.25144C17.0697 8.24235 17.1702 8.2608 17.2604 8.3048C17.3506 8.3488 17.427 8.41666 17.4813 8.50102L18.9591 10.7976H21.6269C21.3907 8.64514 20.2355 6.76928 18.5621 5.5707L17.1863 6.94654C17.0833 7.04944 16.9437 7.10723 16.7981 7.10723C16.6525 7.10723 16.5129 7.04944 16.4099 6.94654C16.307 6.84357 16.2492 6.70394 16.2492 6.55835C16.2492 6.41276 16.307 6.27313 16.4099 6.17016L17.5958 4.98421ZM7.19181 13.9888C8.18149 16.9313 10.9625 19.0506 14.2386 19.0506C18.2508 19.0506 21.5203 15.872 21.6665 11.8956H18.6595C18.5676 11.8956 18.4772 11.8725 18.3965 11.8285C18.3159 11.7845 18.2475 11.7209 18.1978 11.6437L17.1271 9.97987L15.4249 14.1184C15.8402 14.4609 16.1051 14.9793 16.1051 15.5591C16.1051 16.5893 15.2688 17.4257 14.2386 17.4257C13.2085 17.4257 12.3721 16.5893 12.3721 15.5591C12.3721 14.8585 12.7589 14.2475 13.3305 13.9284L12.2575 8.88382C12.2263 8.88108 12.1952 8.87758 12.1644 8.87326L9.91852 13.6724C9.87428 13.767 9.80401 13.847 9.71593 13.903C9.62786 13.959 9.52563 13.9888 9.42124 13.9888H7.19181ZM30.765 29.2422L32.8282 27.1168C32.9811 26.9589 32.9795 26.7066 32.8229 26.555L32.8224 26.5545L27.1057 21.0066C26.9491 20.855 26.6955 20.8582 26.5439 21.0148L26.5434 21.0154L24.4798 23.1411L24.4787 23.1422C24.3266 23.298 24.3299 23.5502 24.487 23.701L24.489 23.703L30.203 29.2512C30.3614 29.4014 30.6131 29.399 30.7645 29.2426L30.765 29.2422ZM14.2386 14.7906C13.8145 14.7906 13.4701 15.135 13.4701 15.5591C13.4701 15.9833 13.8145 16.3276 14.2386 16.3276C14.6628 16.3276 15.0071 15.9833 15.0071 15.5591C15.0071 15.135 14.6628 14.7906 14.2386 14.7906ZM12.4234 6.25608C11.9992 6.25608 11.6548 6.60045 11.6548 7.02457C11.6548 7.44876 11.9992 7.79313 12.4234 7.79313C12.8475 7.79313 13.1918 7.44876 13.1918 7.02457C13.1918 6.60045 12.8475 6.25608 12.4234 6.25608ZM30.5342 1.84594C30.8372 1.84594 31.0832 2.09197 31.0832 2.39496C31.0832 2.69802 30.8372 2.94398 30.5342 2.94398H26.8685C26.5655 2.94398 26.3195 2.69802 26.3195 2.39496C26.3195 2.09197 26.5655 1.84594 26.8685 1.84594H30.5342ZM30.5342 3.6984C30.8372 3.6984 31.0832 3.94436 31.0832 4.24742C31.0832 4.55041 30.8372 4.79644 30.5342 4.79644H24.4349C24.1319 4.79644 23.8859 4.55041 23.8859 4.24742C23.8859 3.94436 24.1319 3.6984 24.4349 3.6984H30.5342Z" fill="#02181A"/>
</svg>
