<svg width="80" height="80" viewBox="0 0 80 80" fill="none" xmlns="http://www.w3.org/2000/svg">
<rect width="80" height="80" fill="#02181A"/>
<path d="M18.9743 16.9227L16.4576 19.4393C16.0673 19.8296 16.3437 20.497 16.8958 20.497H18.9392C19.0213 20.497 19.1001 20.5297 19.1582 20.5878C19.2163 20.6459 19.249 20.7246 19.249 20.8068V47.6967M34.645 28.4742V20.8068C34.645 20.7246 34.6776 20.6459 34.7357 20.5878C34.7938 20.5297 34.8726 20.497 34.9547 20.497H36.9982C37.5501 20.497 37.8265 19.8296 37.4363 19.4393L27.3851 9.388C27.2689 9.27182 27.1113 9.20654 26.947 9.20654C26.7827 9.20654 26.6251 9.27182 26.5089 9.388L21.8746 14.0223M59.7179 30.6576V20.8068C59.7179 20.7246 59.7506 20.6459 59.8087 20.5878C59.8667 20.5297 59.9455 20.497 60.0277 20.497H62.0712C62.6231 20.497 62.8996 19.8296 62.5093 19.4393L52.4581 9.388C52.3419 9.27182 52.1843 9.20654 52.02 9.20654C51.8557 9.20654 51.6981 9.27182 51.5819 9.388L41.5307 19.4392C41.1404 19.8295 41.4168 20.4969 41.9689 20.4969H44.0123C44.0944 20.4969 44.1732 20.5295 44.2313 20.5876C44.2894 20.6457 44.3221 20.7245 44.3221 20.8067V28.4741M59.7179 40.809V34.9945" stroke="white" stroke-opacity="0.75" stroke-width="1.62263" stroke-miterlimit="10" stroke-linecap="round" stroke-linejoin="round"/>
<path d="M33.8069 64.863V70.7942H45.1653V49.377C45.1653 48.615 45.4715 47.8785 46.0325 47.3627C47.957 45.594 49.163 43.0559 49.163 40.2361V30.8971C49.163 29.8218 48.2913 28.95 47.2159 28.95H46.2715C45.1962 28.95 44.3244 29.8217 44.3244 30.8971V28.4779C44.3244 27.4026 43.4527 26.5308 42.3773 26.5308H41.4329C40.3576 26.5308 39.4858 27.4025 39.4858 28.4779C39.4858 27.4026 38.6141 26.5308 37.5386 26.5308H36.5943C35.519 26.5308 34.6472 27.4025 34.6472 28.4779C34.6472 27.4026 33.7755 26.5308 32.7 26.5308H31.7557C30.6804 26.5308 29.8086 27.4025 29.8086 28.4779V32.3369L27.2062 34.9393C26.5489 35.5965 26.1797 36.488 26.1797 37.4175V40.5159C26.1797 41.4453 26.5489 42.3369 27.2062 42.9941L33.0079 48.7959C33.2611 49.049 33.4619 49.3495 33.5988 49.6802C33.7358 50.0109 33.8063 50.3654 33.8063 50.7233V60.526M44.3245 34.9982V30.8971M39.486 34.9982V28.4779M34.6475 34.9982V28.4779M29.8091 38.6271V28.95" stroke="white" stroke-width="1.62263" stroke-miterlimit="10" stroke-linecap="round" stroke-linejoin="round"/>
<path d="M25.3079 51.3521C25.3079 50.4516 26.0379 49.7217 26.9383 49.7217H27.7291C28.6296 49.7217 29.3595 50.4516 29.3595 51.3521H29.3592V59.172C29.3592 61.523 28.3581 63.64 26.7589 65.1201C26.2847 65.5591 26.0116 66.1734 26.0116 66.8197V70.7898H17.1201C16.9558 70.7898 16.7982 70.7245 16.682 70.6084C16.5658 70.4922 16.5005 70.3346 16.5005 70.1703V67.9536C16.5005 67.6539 16.4415 67.3571 16.3268 67.0802C16.2121 66.8032 16.044 66.5516 15.832 66.3397L10.9738 61.4815C10.7013 61.209 10.4851 60.8855 10.3376 60.5294C10.1902 60.1733 10.1142 59.7917 10.1143 59.4063V56.8119C10.1143 56.0335 10.4235 55.2871 10.9738 54.7367L13.1529 52.5576V49.3263C13.1529 48.4258 13.8829 47.6958 14.7834 47.6958H15.5742C16.4746 47.6958 17.2046 48.4258 17.2046 49.3263C17.2046 48.4258 17.9346 47.6958 18.835 47.6958H19.6258C20.5263 47.6958 21.2562 48.4258 21.2562 49.3263C21.2562 48.4258 21.9862 47.6958 22.8867 47.6958H23.6775C24.5779 47.6958 25.3079 48.4258 25.3079 49.3263V51.3521ZM25.3079 51.3521L25.308 54.7862M21.2565 54.7862V49.3263M17.2048 54.7862V49.3263M65.833 47.8984V44.4644M61.7813 47.8984V42.4385M57.7298 47.8984V42.4385M37.6181 47.6958H41.4672M33.809 70.7898H26.012M45.1673 70.7898H57.0259M13.1533 56.508V49.7217M53.6783 49.6203V42.8339M69.8845 44.4644C69.8845 43.5639 69.1545 42.8339 68.2541 42.8339H67.4633C66.5628 42.8339 65.8329 43.5639 65.8329 44.4644V42.4385C65.8329 41.5381 65.1029 40.8081 64.2024 40.8081H63.4116C62.5112 40.8081 61.7812 41.5381 61.7812 42.4385C61.7812 41.5381 61.0512 40.8081 60.1508 40.8081H59.36C58.4595 40.8081 57.7296 41.5381 57.7296 42.4385C57.7296 41.5381 56.9996 40.8081 56.0991 40.8081H55.3083C54.4079 40.8081 53.6779 41.5381 53.6779 42.4385V45.6699L51.4988 47.849C50.9484 48.3994 50.6392 49.1458 50.6392 49.9241V52.5186C50.6392 52.904 50.7151 53.2856 50.8626 53.6417C51.0101 53.9977 51.2263 54.3212 51.4988 54.5937L56.357 59.4519C56.5689 59.6639 56.7371 59.9155 56.8518 60.1925C56.9665 60.4694 57.0255 60.7662 57.0255 61.066V70.7898H65.917C66.0813 70.7898 66.2389 70.7245 66.3551 70.6084C66.4713 70.4922 66.5366 70.3346 66.5366 70.1703V59.9321C66.5366 59.2858 66.8096 58.6715 67.2839 58.2325C68.8831 56.7524 69.8841 54.6354 69.8841 52.2844V44.4644H69.8845Z" stroke="white" stroke-width="1.62263" stroke-miterlimit="10" stroke-linecap="round" stroke-linejoin="round"/>
</svg>
