<svg xmlns="http://www.w3.org/2000/svg" width="1185" height="180" fill="none" viewBox="0 0 1185 180"><path fill="url(#a)" fill-opacity=".5" d="M0 141.828V6.107h91.787v25.886h-57.88v23.79H87.23V81.67H33.907v34.271h57.88v25.887zm206.088 37.553h-31.902v-47.579a165 165 0 0 1-7.019 5.377q-3.645 2.553-6.927 4.011-4.101 1.915-7.474 2.643-3.373.82-9.115.821-17.409 0-27.71-14.493-10.208-14.492-10.208-38.738 0-13.399 3.464-23.244 3.463-9.843 9.57-17.135 5.56-6.654 13.491-10.483 7.93-3.92 16.771-3.919 7.565 0 13.125 1.914 5.652 1.915 11.849 5.47l1.186-4.559h30.899zm-31.902-65.809V63.349q-2.37-1.185-6.198-1.914-3.828-.82-6.563-.821-11.485 0-17.318 8.021-5.743 8.022-5.743 22.423 0 15.13 4.558 21.876 4.648 6.745 14.949 6.745 4.192 0 8.476-1.64a29.5 29.5 0 0 0 7.839-4.467m151.49 28.256h-31.902v-11.302q-8.295 6.927-15.222 10.572-6.928 3.556-16.498 3.556-15.222 0-23.79-9.571-8.478-9.662-8.477-28.986v-66.63h32.085v50.77q0 7.931.364 12.943.455 5.014 2.006 8.478 1.458 3.19 4.466 4.83 3.098 1.642 8.568 1.641 3.373 0 7.929-1.641a33.8 33.8 0 0 0 8.569-4.466V39.467h31.902zm56.421 0h-31.902V39.468h31.902zm.912-116.944h-33.726V0h33.726zm62.71 118.949q-19.505 0-28.439-8.021-8.84-8.021-8.841-26.251V61.708h-12.213v-22.24h12.213v-29.26h31.902v29.26h30.718v22.24h-30.718v36.277q0 5.378.091 9.389t1.459 7.201q1.276 3.189 4.466 5.104 3.282 1.823 9.48 1.823 2.553 0 6.654-1.094 4.193-1.094 5.833-2.006h2.735v22.514q-5.196 1.368-11.029 2.097-5.833.82-14.311.82M579.708 39.467l-51.681 139.914h-34.272l15.495-40.014-37.553-99.9h33.543l21.511 64.169 20.144-64.169zm118.312 9.48q0 9.48-3.008 18.048t-8.659 14.31a57 57 0 0 1-7.657 6.562q-4.101 3.008-9.114 5.105t-10.939 3.281q-5.833 1.186-13.125 1.186h-17.865v44.389h-34.09V6.107h52.684q11.759 0 20.235 2.188 8.57 2.096 15.496 6.745 7.656 5.104 11.849 13.672 4.193 8.477 4.193 20.235m-35.002.82q0-5.742-2.733-9.844-2.735-4.193-6.564-5.742-4.83-2.097-9.296-2.37-4.376-.364-11.942-.364h-4.83v40.652h2.369q4.832 0 9.116-.09 4.284-.093 7.474-.64 2.734-.455 5.743-1.73 3.098-1.368 4.739-3.009 3.463-3.372 4.649-7.018 1.276-3.645 1.275-9.845m107.83 65.355v-21.33q-8.112.821-13.125 1.458a42.8 42.8 0 0 0-9.844 2.28q-4.193 1.457-6.563 4.466-2.279 2.916-2.279 7.839 0 7.2 3.828 9.935 3.92 2.643 11.485 2.643 4.192 0 8.568-1.913 4.375-1.915 7.93-5.378m0 15.859a1861 1861 0 0 1-5.925 4.922q-2.552 2.188-6.927 4.376-4.284 2.096-8.386 3.189-4.01 1.094-11.302 1.094-13.581 0-22.605-9.114-8.933-9.116-8.933-22.97 0-11.393 4.557-18.412 4.559-7.019 13.126-11.12 8.66-4.193 20.691-5.834 12.032-1.641 25.887-2.552v-.547q0-8.477-6.29-11.667-6.198-3.282-18.685-3.281-5.651 0-13.217 2.096a99 99 0 0 0-14.766 5.196h-2.735V41.655q4.741-1.367 15.314-3.19a119.4 119.4 0 0 1 21.328-1.914q26.433 0 38.465 8.841 12.123 8.75 12.123 26.798v69.638h-31.72zm151.219 10.847H889.98v-50.77q0-6.198-.547-12.305-.456-6.198-1.824-9.115-1.64-3.464-4.741-4.922c-2.067-1.033-4.828-1.55-8.293-1.55-2.614 0-5.254.487-7.928 1.46q-4.012 1.456-8.571 4.647v72.555h-31.9V39.468h31.9V50.77q7.839-6.654 15.222-10.391c4.985-2.491 10.482-3.737 16.5-3.737 10.455 0 18.444 3.311 23.976 9.935 5.523 6.563 8.293 16.103 8.293 28.62zm116.763 0h-31.9v-10.665a151 151 0 0 1-7.117 5.469q-3.92 2.918-6.929 4.375c-2.545 1.216-5.072 2.128-7.564 2.735-2.492.608-5.471.912-8.927.912-11.671 0-20.911-4.831-27.71-14.493q-10.212-14.492-10.212-38.738 0-13.399 3.465-23.244 3.462-9.843 9.569-17.135Q957.067 44.39 965 40.56q7.922-3.92 16.768-3.919c5.35 0 9.718.577 13.122 1.732 3.464 1.093 7.48 2.825 12.04 5.195V0h31.9zm-31.9-28.256V63.349c-1.59-.79-3.65-1.428-6.2-1.914q-3.835-.82-6.57-.821c-7.65 0-13.425 2.674-17.315 8.021-3.83 5.348-5.74 12.822-5.74 22.423q0 15.13 4.559 21.876c3.091 4.497 8.076 6.745 14.945 6.745 2.796 0 5.618-.547 8.475-1.64a29.7 29.7 0 0 0 7.846-4.467m88.32 28.256h-31.91V39.468h31.91zm.91-116.944h-33.73V0h33.73zm62.71 118.949c-13 0-22.49-2.674-28.43-8.021q-8.85-8.021-8.85-26.251V61.708h-12.21v-22.24h12.21v-29.26h31.9v29.26h30.72v22.24h-30.72v36.277c0 3.585.04 6.715.1 9.389s.54 5.074 1.46 7.201c.85 2.126 2.33 3.827 4.46 5.104 2.19 1.215 5.35 1.823 9.47 1.823q2.565 0 6.66-1.094c2.8-.729 4.75-1.398 5.83-2.006h2.74v22.514c-3.46.912-7.14 1.611-11.03 2.097q-5.835.82-14.31.82"/><defs><linearGradient id="a" x1="597.874" x2="600.4" y1="16.663" y2="150.601" gradientUnits="userSpaceOnUse"><stop stop-color="#fff" stop-opacity=".75"/><stop offset=".5" stop-color="#fff" stop-opacity=".4"/><stop offset=".949" stop-color="#fff" stop-opacity="0"/></linearGradient></defs></svg>