<svg width="60" height="60" viewBox="0 0 60 60" fill="none" xmlns="http://www.w3.org/2000/svg">
<g clip-path="url(#clip0_27_106)">
<path d="M30.0016 50.3704C43.911 50.3704 55.1868 39.0946 55.1868 25.1852C55.1868 11.2758 43.911 0 30.0016 0C16.0922 0 4.81641 11.2758 4.81641 25.1852C4.81641 39.0946 16.0922 50.3704 30.0016 50.3704Z" stroke="white" stroke-width="1.48148"/>
<path d="M24.8139 42.2216C35.4505 42.2216 44.0732 33.599 44.0732 22.9624C44.0732 12.3258 35.4505 3.70312 24.8139 3.70312C14.1774 3.70312 5.55469 12.3258 5.55469 22.9624C5.55469 33.599 14.1774 42.2216 24.8139 42.2216Z" stroke="white" stroke-width="1.48148"/>
<path d="M27.0365 31.112C34.4003 31.112 40.3698 25.1424 40.3698 17.7786C40.3698 10.4148 34.4003 4.44531 27.0365 4.44531C19.6727 4.44531 13.7031 10.4148 13.7031 17.7786C13.7031 25.1424 19.6727 31.112 27.0365 31.112Z" stroke="white" stroke-opacity="0.5" stroke-width="1.48148"/>
<path d="M32.2238 27.4047C36.3148 27.4047 39.6312 24.0882 39.6312 19.9973C39.6312 15.9063 36.3148 12.5898 32.2238 12.5898C28.1328 12.5898 24.8164 15.9063 24.8164 19.9973C24.8164 24.0882 28.1328 27.4047 32.2238 27.4047Z" stroke="white" stroke-width="1.48148"/>
</g>
<defs>
<clipPath id="clip0_27_106">
<rect width="60" height="59.2593" fill="white"/>
</clipPath>
</defs>
</svg>
