<svg width="60" height="60" viewBox="0 0 60 60" fill="none" xmlns="http://www.w3.org/2000/svg">
<path d="M27.7208 35.0239C29.1795 34.4161 30.8205 34.416 32.2793 35.0237L55.0257 44.5005C55.6335 44.7538 55.6335 45.6148 55.0257 45.8681L32.2792 55.3467C30.8205 55.9545 29.1795 55.9545 27.7208 55.3468L4.97448 45.87C4.36668 45.6168 4.36665 44.7557 4.97443 44.5025L27.7208 35.0239Z" stroke="white" stroke-width="1.48148"/>
<path d="M27.7208 24.6536C29.1795 24.0457 30.8205 24.0456 32.2793 24.6534L55.0257 34.1302C55.6335 34.3834 55.6335 35.2445 55.0257 35.4977L32.2792 44.9763C30.8205 45.5841 29.1795 45.5842 27.7208 44.9764L4.97448 35.4997C4.36668 35.2464 4.36665 34.3854 4.97443 34.1321L27.7208 24.6536Z" stroke="white" stroke-opacity="0.5" stroke-width="1.48148"/>
<path d="M27.7208 14.2832C29.1795 13.6754 30.8205 13.6753 32.2793 14.283L55.0257 23.7598C55.6335 24.0131 55.6335 24.8741 55.0257 25.1274L32.2792 34.606C30.8205 35.2137 29.1795 35.2138 27.7208 34.606L4.97448 25.1293C4.36668 24.876 4.36665 24.015 4.97443 23.7617L27.7208 14.2832Z" stroke="white" stroke-width="1.48148"/>
<path d="M27.7208 3.91282C29.1795 3.30499 30.8205 3.30493 32.2793 3.91267L55.0257 13.3895C55.6335 13.6427 55.6335 14.5037 55.0257 14.757L32.2792 24.2356C30.8205 24.8434 29.1795 24.8434 27.7208 24.2357L4.97448 14.7589C4.36668 14.5057 4.36665 13.6446 4.97443 13.3914L27.7208 3.91282Z" stroke="white" stroke-opacity="0.5" stroke-width="1.48148"/>
</svg>
