<svg width="34" height="34" viewBox="0 0 34 34" fill="none" xmlns="http://www.w3.org/2000/svg">
<path fill-rule="evenodd" clip-rule="evenodd" d="M26.4866 10.4493C26.3128 10.4493 26.1713 10.5908 26.1713 10.7659C26.1713 10.9402 26.3129 11.0824 26.4866 11.0824C26.6603 11.0824 26.8051 10.9402 26.8051 10.7659C26.8051 10.5909 26.6603 10.4493 26.4866 10.4493ZM26.4866 9.35566C27.2651 9.35566 27.8957 9.98792 27.8957 10.7659C27.8957 11.5432 27.2651 12.1762 26.4866 12.1762C25.708 12.1762 25.0775 11.5432 25.0775 10.7659C25.0775 9.98792 25.708 9.35566 26.4866 9.35566ZM22.9091 11.969C22.6614 11.7933 22.6067 11.4516 22.7837 11.2062L26.3998 6.17073C26.5767 5.92607 26.9177 5.87002 27.1623 6.0457C27.41 6.222 27.4647 6.56387 27.2878 6.80928L23.6717 11.8446C23.5655 11.993 23.395 12.0723 23.2278 12.0723C23.115 12.0723 23.0025 12.0387 22.9091 11.969ZM23.2373 7.25163C23.2373 7.42595 23.3788 7.56807 23.5525 7.56807C23.7263 7.56807 23.871 7.42595 23.871 7.25163C23.871 7.07718 23.7262 6.93506 23.5525 6.93506C23.3788 6.93506 23.2373 7.07718 23.2373 7.25163ZM22.1435 7.25163C22.1435 8.02956 22.7741 8.66175 23.5526 8.66175C24.3312 8.66175 24.9649 8.02949 24.9649 7.25163C24.9649 6.47363 24.3312 5.84138 23.5526 5.84138C22.7741 5.84138 22.1435 6.47356 22.1435 7.25163ZM20.7698 9.00833C20.7698 6.66436 22.6775 4.75781 25.0196 4.75781C27.3649 4.75781 29.2694 6.66436 29.2694 9.00833C29.2694 11.3524 27.3649 13.2596 25.0196 13.2596C22.6775 13.2596 20.7698 11.3524 20.7698 9.00833ZM19.6759 9.00833C19.6759 6.06143 22.0727 3.66399 25.0196 3.66399C27.9665 3.66399 30.3633 6.06143 30.3633 9.00833C30.3633 11.9554 27.9665 14.3534 25.0196 14.3534C22.0727 14.3534 19.6759 11.9554 19.6759 9.00833ZM5.36936 6.27204L5.9098 8.28174L6.05138 8.24339L5.51414 6.23369C5.43375 5.9418 5.60745 5.6417 5.90017 5.56377L6.38593 5.4332L4.63586 3.24905L4.21442 6.01562L4.70019 5.88506C4.74643 5.87308 4.79399 5.86688 4.84176 5.8666C4.93828 5.8666 5.03159 5.89128 5.1152 5.93975C5.2407 6.01214 5.33395 6.13177 5.36936 6.27204ZM5.52378 9.4986C5.40307 9.49863 5.28571 9.45895 5.18978 9.38568C5.09386 9.31242 5.0247 9.20963 4.99297 9.09316L4.45573 7.08272L3.69004 7.28841C3.60193 7.31212 3.50929 7.31347 3.42053 7.29233C3.33176 7.27119 3.24968 7.22823 3.18172 7.16734C3.04657 7.0443 2.97903 6.8598 3.00795 6.67721L3.74473 1.85186C3.76082 1.74695 3.80711 1.64899 3.87796 1.56996C3.94881 1.49094 4.04114 1.43425 4.14367 1.40684C4.24639 1.37914 4.35495 1.38197 4.45608 1.41499C4.55721 1.44802 4.64653 1.50979 4.71311 1.59277L7.76296 5.40313C7.87876 5.54723 7.91417 5.73945 7.85627 5.91514C7.79837 6.09082 7.6568 6.22556 7.47988 6.27327L6.71098 6.47835L7.25143 8.4888C7.28697 8.62901 7.26739 8.77752 7.19674 8.90374C7.12297 9.02921 7.00276 9.12059 6.86212 9.15811L5.66535 9.47933C5.61921 9.49192 5.57161 9.4984 5.52378 9.4986ZM5.44339 9.79248C3.04343 9.79248 1.09382 7.8415 1.09382 5.44271C1.09382 3.04473 3.04343 1.09382 5.44339 1.09382C7.84014 1.09382 9.78975 3.04473 9.78975 5.44271C9.78975 7.8415 7.84014 9.79248 5.44339 9.79248ZM5.44339 10.8862C2.4418 10.8862 0 8.44443 0 5.44271C0 2.44173 2.4418 0 5.44339 0C8.44177 0 10.8836 2.44173 10.8836 5.44271C10.8835 8.44443 8.4417 10.8862 5.44339 10.8862ZM28.4619 27.7115C28.0469 27.7115 27.7091 28.0492 27.7091 28.4634C27.7091 28.8777 28.0469 29.2154 28.4619 29.2154C28.8769 29.2154 29.2147 28.8777 29.2147 28.4634C29.2147 28.0492 28.8769 27.7115 28.4619 27.7115ZM31.5536 28.4634C30.7847 29.3617 29.6522 29.8894 28.4619 29.8894C27.2716 29.8894 26.1391 29.3617 25.3734 28.4634C26.1391 27.5652 27.2716 27.0382 28.4619 27.0382C29.6522 27.0382 30.7847 27.5653 31.5536 28.4634ZM32.6571 28.8265C31.6887 30.1766 30.1219 30.9832 28.4619 30.9832C26.8051 30.9832 25.2351 30.1766 24.2668 28.8265C24.1914 28.7205 24.1509 28.5938 24.1509 28.4638C24.1509 28.3338 24.1914 28.207 24.2668 28.1011C25.2351 26.7504 26.8051 25.9444 28.4619 25.9444C30.1219 25.9444 31.6887 26.7504 32.6571 28.1011C32.7324 28.207 32.7729 28.3338 32.7729 28.4638C32.7729 28.5938 32.7324 28.7205 32.6571 28.8265ZM32.8115 28.4634C32.8115 30.8615 30.8619 32.8124 28.4619 32.8124C26.0652 32.8124 24.1123 30.8614 24.1123 28.4634C24.1123 26.0654 26.0651 24.1144 28.4619 24.1144C30.8619 24.1144 32.8115 26.0654 32.8115 28.4634ZM25.1933 32.8124C24.9746 32.6471 24.7654 32.4645 24.5756 32.2677H6.26049C6.18866 32.2677 6.11753 32.2536 6.05116 32.2261C5.98479 32.1987 5.92448 32.1584 5.87368 32.1076C5.82289 32.0568 5.7826 31.9965 5.75513 31.9301C5.72765 31.8638 5.71352 31.7926 5.71354 31.7208V12.9698H5.16988V32.8125H25.1933V32.8124ZM8.56399 31.1739V26.8091H10.2659V31.1739H8.56399ZM13.7532 31.1739V23.3494H15.4551V31.1739H13.7532ZM18.9425 31.1739V24.5144H20.6411V31.1739H18.9425ZM24.1285 25.1746C24.5874 24.571 25.167 24.0695 25.8303 23.7022V19.6847H24.1285V25.1746ZM33.9053 28.4634C33.9053 25.4624 31.4635 23.0207 28.4619 23.0207C27.9413 23.0207 27.4233 23.0958 26.9241 23.2435V19.1379C26.9241 19.0661 26.91 18.9949 26.8826 18.9285C26.8551 18.8622 26.8148 18.8018 26.764 18.751C26.7132 18.7002 26.6529 18.66 26.5866 18.6325C26.5202 18.605 26.4491 18.5909 26.3772 18.5909H23.5815C23.2791 18.5909 23.0346 18.8356 23.0346 19.1379V28.0677C23.0244 28.1993 23.019 28.3313 23.0185 28.4634C23.0185 28.5967 23.0249 28.7287 23.0346 28.8593V31.1739H21.7349V23.9675C21.735 23.8956 21.7209 23.8245 21.6934 23.7581C21.6659 23.6917 21.6256 23.6314 21.5748 23.5806C21.524 23.5298 21.4637 23.4895 21.3973 23.4621C21.331 23.4346 21.2598 23.4205 21.188 23.4205H18.3955C18.3237 23.4205 18.2525 23.4346 18.1861 23.4621C18.1198 23.4895 18.0595 23.5298 18.0087 23.5806C17.9579 23.6314 17.9176 23.6917 17.8901 23.7581C17.8626 23.8245 17.8485 23.8956 17.8486 23.9675V31.1739H16.5488V22.8026C16.5488 22.5012 16.3011 22.2557 16.0019 22.2557H13.2062C13.0612 22.2557 12.9221 22.3134 12.8195 22.4159C12.7169 22.5185 12.6593 22.6576 12.6593 22.8026V31.1739H11.3596V26.2623C11.3596 25.9601 11.1151 25.7154 10.8127 25.7154H8.01698C7.94515 25.7154 7.87401 25.7295 7.80763 25.7569C7.74125 25.7844 7.68094 25.8247 7.63014 25.8755C7.57934 25.9263 7.53905 25.9866 7.51158 26.053C7.48411 26.1193 7.46999 26.1905 7.47004 26.2623V31.1739H6.80729V12.4229C6.80732 12.3511 6.79319 12.2799 6.76572 12.2136C6.73825 12.1472 6.69796 12.0869 6.64718 12.0361C6.59639 11.9854 6.53609 11.9451 6.46973 11.9176C6.40336 11.8902 6.33224 11.876 6.26042 11.8761H4.62301C4.55118 11.876 4.48005 11.8901 4.41368 11.9176C4.34731 11.9451 4.287 11.9853 4.23621 12.0361C4.18541 12.0869 4.14512 12.1472 4.11765 12.2136C4.09017 12.2799 4.07604 12.3511 4.07606 12.4229V33.3594C4.07603 33.4312 4.09015 33.5023 4.11762 33.5687C4.1451 33.6351 4.18538 33.6954 4.23618 33.7462C4.28698 33.797 4.34728 33.8373 4.41366 33.8648C4.48003 33.8922 4.55117 33.9064 4.62301 33.9063H28.4619C31.4635 33.9062 33.9053 31.4651 33.9053 28.4634ZM9.07874 22.9359L14.268 18.8958C14.4095 18.7845 14.5994 18.7516 14.7731 18.8076L19.6406 20.3854L23.5398 16.4519L23.3371 16.4698C23.0379 16.4958 22.7708 16.2736 22.7451 15.9728C22.7327 15.8281 22.7783 15.6844 22.8718 15.5732C22.9653 15.4621 23.0991 15.3926 23.2438 15.3801L24.9328 15.2318C25.0936 15.2175 25.2577 15.2776 25.3703 15.3945C25.4861 15.5121 25.5408 15.6748 25.5247 15.8375L25.3349 17.5226C25.3269 17.594 25.3049 17.6632 25.2702 17.7261C25.2354 17.789 25.1886 17.8444 25.1325 17.8892C25.0763 17.934 25.0119 17.9673 24.9428 17.9872C24.8738 18.0071 24.8015 18.0132 24.7301 18.0052C24.4309 17.9717 24.2154 17.701 24.2475 17.4009L24.2604 17.2779L20.1811 21.3944C20.0331 21.5407 19.8207 21.5934 19.6245 21.5292L14.7119 19.9371L9.75105 23.7986C9.65555 23.8734 9.53779 23.9141 9.4165 23.9142C9.33288 23.9143 9.25033 23.8954 9.17509 23.8589C9.09985 23.8224 9.03387 23.7693 8.98215 23.7036C8.79881 23.4651 8.84064 23.1212 9.07874 22.9359Z" fill="#02181A"/>
</svg>
