<svg xmlns="http://www.w3.org/2000/svg" width="80" height="80" fill="none" viewBox="0 0 80 80"><path fill="#02181a" d="M0 0h80v80H0z"/><path stroke="#fff" stroke-linecap="round" stroke-linejoin="round" stroke-miterlimit="10" stroke-opacity=".75" stroke-width="1.623" d="m18.974 16.923-2.516 2.516a.62.62 0 0 0 .438 1.058h2.043a.31.31 0 0 1 .31.31v26.89m15.396-19.223v-7.667a.31.31 0 0 1 .31-.31h2.043a.62.62 0 0 0 .438-1.058L27.386 9.388a.62.62 0 0 0-.877 0l-4.634 4.634m37.843 16.636v-9.851a.31.31 0 0 1 .31-.31h2.043a.62.62 0 0 0 .438-1.058L52.46 9.388a.62.62 0 0 0-.877 0L41.53 19.439a.62.62 0 0 0 .438 1.058h2.043a.31.31 0 0 1 .31.31v7.667M59.718 40.81v-5.814"/><path stroke="#fff" stroke-linecap="round" stroke-linejoin="round" stroke-miterlimit="10" stroke-width="1.623" d="M33.807 64.863v5.931h11.358V49.377c0-.762.306-1.498.867-2.014a9.65 9.65 0 0 0 3.131-7.127v-9.339a1.947 1.947 0 0 0-1.947-1.947h-.944a1.947 1.947 0 0 0-1.948 1.947v-2.42a1.947 1.947 0 0 0-1.947-1.946h-.944a1.947 1.947 0 0 0-1.947 1.947 1.947 1.947 0 0 0-1.947-1.947h-.945a1.947 1.947 0 0 0-1.947 1.947A1.947 1.947 0 0 0 32.7 26.53h-.944a1.947 1.947 0 0 0-1.947 1.947v3.859l-2.603 2.602a3.5 3.5 0 0 0-1.026 2.478v3.099c0 .93.369 1.82 1.026 2.478l5.802 5.802a2.72 2.72 0 0 1 .798 1.927v9.803m10.519-25.528v-4.1m-4.839 4.1v-6.52m-4.838 6.52v-6.52m-4.839 10.15V28.95"/><path stroke="#fff" stroke-linecap="round" stroke-linejoin="round" stroke-miterlimit="10" stroke-width="1.623" d="M25.308 51.352c0-.9.73-1.63 1.63-1.63h.791c.9 0 1.63.73 1.63 1.63h0v7.82a8.08 8.08 0 0 1-2.6 5.948 2.32 2.32 0 0 0-.747 1.7v3.97H17.12a.62.62 0 0 1-.62-.62v-2.216a2.28 2.28 0 0 0-.668-1.614l-4.858-4.859a2.94 2.94 0 0 1-.86-2.075v-2.594c0-.779.31-1.525.86-2.075l2.179-2.18v-3.23c0-.901.73-1.631 1.63-1.631h.791c.9 0 1.63.73 1.63 1.63 0-.9.73-1.63 1.631-1.63h.79c.901 0 1.631.73 1.631 1.63 0-.9.73-1.63 1.63-1.63h.791c.9 0 1.63.73 1.63 1.63zm0 0v3.434m-4.052 0v-5.46m-4.051 5.46v-5.46m48.628-1.428v-3.434m-4.052 3.434v-5.46m-4.051 5.46v-5.46m-20.112 5.258h3.85m-7.66 23.094h-7.797m19.155 0h11.859M13.153 56.508v-6.786m40.525-.102v-6.786m16.207 1.63c0-.9-.73-1.63-1.63-1.63h-.792c-.9 0-1.63.73-1.63 1.63v-2.026c0-.9-.73-1.63-1.63-1.63h-.791c-.9 0-1.63.73-1.63 1.63 0-.9-.73-1.63-1.631-1.63h-.791c-.9 0-1.63.73-1.63 1.63 0-.9-.73-1.63-1.63-1.63h-.792c-.9 0-1.63.73-1.63 1.63v3.232l-2.18 2.179a2.94 2.94 0 0 0-.859 2.075v2.595a2.94 2.94 0 0 0 .86 2.075l4.858 4.858a2.28 2.28 0 0 1 .669 1.614v9.724h8.891a.62.62 0 0 0 .62-.62V59.932c0-.646.273-1.26.747-1.7a8.08 8.08 0 0 0 2.6-5.948z"/></svg>