<svg width="50" height="50" viewBox="0 0 50 50" fill="none" xmlns="http://www.w3.org/2000/svg">
<path d="M28.75 30.625V27.9606C28.75 26.9622 29.8627 26.3668 30.6934 26.9205L42.1899 34.5849C42.9321 35.0796 42.9321 36.1703 42.1899 36.665L30.6934 44.3294C29.8627 44.8831 28.75 44.2877 28.75 43.2893V40.625" stroke="black" stroke-width="1.25" stroke-linecap="round"/>
<path d="M28.75 9.37495V6.71058C28.75 5.71223 29.8627 5.11674 30.6934 5.67053L42.1899 13.3349C42.9321 13.8296 42.9321 14.9203 42.1899 15.415L30.6934 23.0794C29.8627 23.6331 28.75 23.0377 28.75 22.0393V19.375" stroke="black" stroke-width="1.25" stroke-linecap="round"/>
<path d="M15 30.625V27.9606C15 26.9622 16.1127 26.3668 16.9434 26.9205L28.4399 34.5849C29.1821 35.0796 29.1821 36.1703 28.4399 36.665L16.9434 44.3294C16.1127 44.8831 15 44.2877 15 43.2893V40.625" stroke="black" stroke-width="1.25" stroke-linecap="round"/>
<path d="M15 9.37495V6.71058C15 5.71223 16.1127 5.11674 16.9434 5.67053L28.4399 13.3349C29.1821 13.8296 29.1821 14.9203 28.4399 15.415L16.9434 23.0794C16.1127 23.6331 15 23.0377 15 22.0393V19.375" stroke="#00DF9C" stroke-width="1.25" stroke-linecap="round"/>
<path d="M1.25 30.625V27.9606C1.25 26.9622 2.36268 26.3668 3.19337 26.9205L14.6899 34.5849C15.4321 35.0796 15.4321 36.1703 14.6899 36.665L3.19337 44.3294C2.36268 44.8831 1.25 44.2877 1.25 43.2893V40.625" stroke="#00DF9C" stroke-width="1.25" stroke-linecap="round"/>
<path d="M1.25 9.37495V6.71058C1.25 5.71223 2.36268 5.11674 3.19337 5.67053L14.6899 13.3349C15.4321 13.8296 15.4321 14.9203 14.6899 15.415L3.19337 23.0794C2.36268 23.6331 1.25 23.0377 1.25 22.0393V19.375" stroke="#00DF9C" stroke-opacity="0.2" stroke-width="1.25" stroke-linecap="round"/>
</svg>
