<svg xmlns="http://www.w3.org/2000/svg" width="35" height="31" fill="none" viewBox="0 0 35 31"><path fill="#02181a" fill-rule="evenodd" d="M3.537 13.989H.549a.55.55 0 0 1 0-1.098h2.804a11 11 0 0 1-.073-1.273C3.28 5.565 8.186.658 14.239.658a10.9 10.9 0 0 1 5.936 1.747L22.42.16a.55.55 0 0 1 .387-.16h7.727a.55.55 0 0 1 0 1.098h-7.5l-1.956 1.957a10.94 10.94 0 0 1 4.089 7.738l4.227-.04a.549.549 0 0 1 .899-.63l.612.847a.55.55 0 0 1 0 .643l-.612.848a.55.55 0 0 1-.913-.61l-4.186.04a10.9 10.9 0 0 1-1.715 5.62l2.576 2.502a1.505 1.505 0 0 1 1.815.205l5.717 5.548c.59.57.605 1.52.03 2.115l-2.064 2.125a1.5 1.5 0 0 1-2.113.035l-.002-.002-5.713-5.548a1.5 1.5 0 0 1-.264-1.807l-2.491-2.418a10.9 10.9 0 0 1-6.731 2.31c-5.24 0-9.619-3.674-10.702-8.587M19.379 3.2a9.8 9.8 0 0 0-5.14-1.444c-5.447 0-9.861 4.414-9.861 9.86 0 5.447 4.414 9.861 9.86 9.861 5.447 0 9.861-4.414 9.861-9.86a9.84 9.84 0 0 0-3.802-7.782l-.95.95a8.53 8.53 0 0 1-5.11 15.364 8.53 8.53 0 0 1-8.53-8.532 8.53 8.53 0 0 1 12.7-7.445zm3.456 15.215q-.477.601-1.03 1.13l2.386 2.316 1.064-1.096zm-5.24-13.432A7.433 7.433 0 0 0 6.913 12.89h2.159l2.098-4.484a1.867 1.867 0 1 1 3.12-1.383c0 .701-.387 1.312-.959 1.631l1.074 5.045h.005l2.102-5.11a.55.55 0 0 1 .97-.089l1.477 2.297h2.668a7.43 7.43 0 0 0-3.065-5.227l-1.376 1.376a.55.55 0 0 1-.776-.777zM7.193 13.99a7.433 7.433 0 0 0 14.475-2.093H18.66a.55.55 0 0 1-.461-.252l-1.07-1.664-1.703 4.138a1.867 1.867 0 1 1-2.094-.19l-1.073-5.044-.094-.01-2.245 4.798a.55.55 0 0 1-.498.317zm23.573 15.253 2.063-2.125a.4.4 0 0 0-.005-.562l-5.717-5.548a.4.4 0 0 0-.562.008l-2.064 2.126-.001.001a.395.395 0 0 0 .008.559l.002.002 5.714 5.548a.4.4 0 0 0 .562-.008M14.239 14.791a.769.769 0 1 0 0 1.537.769.769 0 0 0 0-1.537m-1.816-8.535a.769.769 0 1 0 .001 1.538.769.769 0 0 0 0-1.538m18.111-4.41a.55.55 0 0 1 0 1.098H26.87a.55.55 0 0 1 0-1.098zm0 1.852a.55.55 0 0 1 0 1.098h-6.1a.55.55 0 0 1 0-1.098z" clip-rule="evenodd"/></svg>