<svg width="60" height="60" viewBox="0 0 60 60" fill="none" xmlns="http://www.w3.org/2000/svg">
<path d="M30 38.5185C34.9092 38.5185 38.8889 34.5388 38.8889 29.6296C38.8889 24.7204 34.9092 20.7407 30 20.7407C25.0908 20.7407 21.1111 24.7204 21.1111 29.6296C21.1111 34.5388 25.0908 38.5185 30 38.5185Z" stroke="white" stroke-width="1.48148"/>
<path d="M43.166 27.5156C43.2233 27.8749 43.5181 28.1522 43.8804 28.1861C45.2795 28.3169 46.6536 28.6567 47.9564 29.1963C49.4355 29.8091 50.7976 30.6689 51.985 31.7374C52.2891 32.0111 52.7568 32.0127 53.0461 31.7234L57.2364 27.5332C57.5256 27.2439 57.5265 26.7739 57.2274 26.4948C55.3487 24.7413 53.169 23.3378 50.791 22.3528C48.1848 21.2733 45.3914 20.7177 42.5704 20.7177C42.1956 20.7177 41.8213 20.7274 41.4479 20.747C40.853 20.7781 40.5727 21.4831 40.9152 21.9703C42.0541 23.5907 42.8413 25.476 43.166 27.5156Z" stroke="white" stroke-opacity="0.5" stroke-width="1.48148"/>
<path d="M32.3052 16.4947C31.7183 16.3924 31.4176 15.6955 31.8164 15.2528C32.0663 14.9753 32.3238 14.7039 32.5885 14.4393C34.5832 12.4445 36.9513 10.8621 39.5575 9.78266C41.9355 8.79763 44.4692 8.24881 47.0375 8.16022C47.4464 8.14615 47.7782 8.47911 47.7782 8.88822V14.8141C47.7782 15.2233 47.4463 15.5528 47.0378 15.5744C45.4426 15.6584 43.8714 16.0135 42.3923 16.6262C41.0892 17.1659 39.8769 17.8976 38.7949 18.7947C38.5149 19.0268 38.1107 19.0395 37.8161 18.826C36.2114 17.663 34.3373 16.8488 32.3052 16.4947Z" stroke="white" stroke-width="1.48148"/>
<path d="M27.8858 16.4626C28.2451 16.4055 28.5225 16.1106 28.5564 15.7483C28.6871 14.3491 29.027 12.9749 29.5666 11.6721C30.1794 10.1929 31.0392 8.83087 32.1077 7.64346C32.3814 7.33936 32.383 6.87162 32.0937 6.58234L27.9035 2.39208C27.6142 2.1028 27.1442 2.10194 26.8651 2.40101C25.1116 4.27975 23.7081 6.45944 22.7231 8.83738C21.6436 11.4436 21.088 14.237 21.088 17.058C21.088 17.4328 21.0977 17.807 21.1173 18.1804C21.1484 18.7752 21.8533 19.0555 22.3406 18.7131C23.9609 17.5744 25.8463 16.7873 27.8858 16.4626Z" stroke="white" stroke-width="1.48148"/>
<path d="M19.196 21.8136C19.4095 21.5191 19.3969 21.1148 19.1647 20.8348C18.2677 19.7528 17.5362 18.5407 16.9965 17.2377C16.3838 15.7585 16.0287 14.1874 15.9447 12.5923C15.9231 12.1837 15.5936 11.8518 15.1844 11.8518H9.25852C8.84941 11.8518 8.51645 12.1836 8.53052 12.5924C8.61911 15.1608 9.16793 17.6945 10.153 20.0724C11.2324 22.6787 12.8148 25.0468 14.8096 27.0415C15.0741 27.306 15.3451 27.5633 15.6225 27.8131C16.0652 28.2119 16.7621 27.9112 16.8644 27.3242C17.2187 25.2922 18.033 23.4183 19.196 21.8136Z" stroke="white" stroke-width="1.48148"/>
<path d="M16.8323 31.7408C16.7751 31.3815 16.4802 31.1041 16.118 31.0702C14.7191 30.9394 13.3451 30.5996 12.0425 30.0601C10.5634 29.4473 9.20129 28.5875 8.01388 27.519C7.70981 27.2453 7.24204 27.2437 6.95276 27.533L2.7625 31.7232C2.47322 32.0125 2.47236 32.4825 2.77144 32.7616C4.65018 34.5151 6.82987 35.9186 9.20781 36.9036C11.814 37.9831 14.6074 38.5387 17.4284 38.5387C17.8028 38.5387 18.1768 38.529 18.5499 38.5095C19.1447 38.4784 19.4251 37.7735 19.0826 37.2861C17.944 35.6658 17.1568 33.7804 16.8323 31.7408Z" stroke="white" stroke-opacity="0.5" stroke-width="1.48148"/>
<path d="M22.1834 40.4325C21.889 40.2191 21.4846 40.2317 21.2047 40.4637C20.1228 41.3605 18.9109 42.092 17.6082 42.6316C16.129 43.2442 14.5579 43.5994 12.9627 43.6834C12.5541 43.7049 12.2222 44.0345 12.2222 44.4437V50.3696C12.2222 50.7787 12.554 51.1117 12.9628 51.0975C15.5312 51.0089 18.0649 50.4601 20.4428 49.4751C23.0491 48.3956 25.4172 46.8133 27.4119 44.8185C27.6763 44.5541 27.9334 44.2832 28.1831 44.006C28.5819 43.5633 28.2813 42.8664 27.6943 42.7641C25.6622 42.4099 23.7882 41.5956 22.1834 40.4325Z" stroke="white" stroke-width="1.48148"/>
<path d="M32.1111 42.7954C31.7518 42.8527 31.4744 43.1475 31.4406 43.5098C31.3097 44.9086 30.9699 46.2825 30.4304 47.585C29.8177 49.0642 28.9578 50.4262 27.8893 51.6136C27.6156 51.9177 27.6141 52.3854 27.9033 52.6747L32.0935 56.865C32.3829 57.1542 32.8529 57.1551 33.132 56.8561C34.8855 54.9773 36.2889 52.7976 37.274 50.4196C38.3535 47.8134 38.9091 45.0201 38.9091 42.199C38.9091 41.8246 38.8993 41.4506 38.8798 41.0774C38.8487 40.4827 38.1438 40.2023 37.6565 40.5447C36.0361 41.6836 34.1507 42.4707 32.1111 42.7954Z" stroke="white" stroke-width="1.48148"/>
<path d="M40.8029 37.4461C40.5895 37.7405 40.6021 38.1448 40.8342 38.4248C41.7311 39.5066 42.4626 40.7187 43.0022 42.0216C43.6149 43.5007 43.97 45.0719 44.0541 46.6671C44.0756 47.0756 44.4052 47.4075 44.8143 47.4075H50.7402C51.1493 47.4075 51.4823 47.0758 51.4682 46.6669C51.3796 44.0986 50.8307 41.5648 49.8458 39.1869C48.7662 36.5806 47.1839 34.2125 45.1892 32.2178C44.9246 31.9532 44.6535 31.6959 44.3761 31.4461C43.9333 31.0473 43.2364 31.348 43.1342 31.9349C42.7801 33.9671 41.9659 35.8412 40.8029 37.4461Z" stroke="white" stroke-width="1.48148"/>
</svg>
