<svg xmlns="http://www.w3.org/2000/svg" width="507" height="289" fill="none" viewBox="0 0 507 289"><path fill="#000" d="M8.917 288.742v-33.12q40.34-28.875 67.515-50.955 27.6-22.08 44.16-40.763 16.56-18.684 23.779-35.244 7.644-16.985 7.643-34.394 0-22.506-14.012-36.518T98.937 43.736q-26.327 0-42.038 17.834-15.286 17.409-17.41 47.982L0 91.293Q2.973 64.542 15.711 45.01q12.738-19.533 34.394-30.148Q72.185 4.246 101.06 4.246q23.778 0 41.613 6.794 18.258 6.795 30.572 19.108 12.314 11.89 18.684 28.025 6.794 16.136 6.794 34.394 0 26.751-13.164 51.804-13.162 24.628-41.613 50.53-28.449 25.902-74.733 55.625v.849q5.095-.849 14.013-.849 8.917-.424 17.834-.424 8.917-.425 14.437-.425h88.321v39.065zm312.963 0q-50.53 0-79.405-36.517-28.449-36.942-28.449-107.854 0-70.911 28.449-107.429Q271.35 0 321.88 0q50.954 0 79.404 36.942 28.874 36.518 28.874 107.429 0 70.912-28.874 107.854-28.45 36.517-79.404 36.517m0-38.64q20.381 0 33.969-11.465 14.012-11.889 20.807-35.244 7.218-23.778 7.218-59.022t-7.218-58.598q-6.794-23.778-20.807-35.243-13.588-11.89-33.969-11.89-20.382 0-34.395 11.89-13.587 11.464-20.382 35.243-6.793 23.355-6.793 58.598 0 35.244 6.793 59.022 6.795 23.355 20.382 35.244 14.013 11.465 34.395 11.465m134.297-140.977 7.584 4.397h4.714v1.994h-4.714l-7.584 4.379v-2.217l3.969-2.199 1.826-.969-1.826-.969-3.969-2.18zm12.484-4.261q0 1.397-.577 2.459a4.1 4.1 0 0 1-1.659 1.659q-1.1.577-2.608.577-1.51 0-2.591-.577a4.1 4.1 0 0 1-1.677-1.64q-.577-1.044-.577-2.367 0-1.36.559-2.31a3.74 3.74 0 0 1 1.528-1.454q.969-.503 2.199-.503.334 0 .633.019.298.018.522.056v7.491h-1.528v-6.616l.298.988q-1.268 0-1.938.634-.69.633-.689 1.733 0 .801.372 1.397.373.597 1.118.913.727.317 1.789.317 1.044 0 1.77-.335.727-.336 1.1-.951t.373-1.453q0-.931-.355-1.51a2.5 2.5 0 0 0-.987-.913l.745-1.584q.671.336 1.174.913.485.56.746 1.342a5.4 5.4 0 0 1 .26 1.715m-6.167-12.06q-.933 0-1.435.523-.522.502-.522 1.397 0 .839.391 1.435t1.267.876l-.708 1.677q-1.137-.354-1.826-1.38-.69-1.043-.689-2.682 0-1.118.372-1.976a2.9 2.9 0 0 1 1.081-1.341q.727-.504 1.864-.503h4.155q.69 0 .689-.69 0-.335-.093-.652l1.379.112q.205.428.205 1.08 0 .597-.205 1.081-.223.466-.652.746-.448.26-1.099.26h-.131l-.018-.41q.726.168 1.211.69.465.522.708 1.211.223.69.223 1.398 0 .876-.279 1.584-.28.69-.839 1.1-.577.39-1.416.39-1.043 0-1.714-.67-.671-.69-.913-1.938l-.708-3.615 1.397.018.541 2.628q.149.782.428 1.174.28.39.82.391.522 0 .839-.391.298-.41.298-1.081 0-.466-.112-.894a2.5 2.5 0 0 0-.354-.802 1.7 1.7 0 0 0-.652-.54 2.15 2.15 0 0 0-.969-.205zm5.981-5.241h-9.317v-1.696l1.677-.186q-.913-.373-1.379-1.1-.484-.745-.484-1.826 0-.28.056-.559.036-.279.13-.466l1.752.28q-.075.204-.112.466a3 3 0 0 0-.056.67q0 .578.317 1.137.298.559.913.932.614.354 1.565.354h4.938zm.186-10.947q0 1.398-.54 2.553t-1.528 1.826l-1.193-1.379q.765-.41 1.23-1.174.447-.783.448-1.863 0-.858-.299-1.36-.298-.504-.838-.504a.87.87 0 0 0-.615.242q-.279.225-.429.876l-.41 1.957q-.297 1.491-.95 2.124-.67.634-1.696.634-.764 0-1.416-.448-.653-.447-1.043-1.304-.41-.876-.41-2.087 0-1.398.503-2.385a3.44 3.44 0 0 1 1.397-1.51l1.156 1.38a2.3 2.3 0 0 0-1.1 1.043q-.372.69-.372 1.435 0 .596.149 1.025t.41.652q.26.224.615.224a.9.9 0 0 0 .652-.28q.28-.28.428-1.006l.448-2.125q.26-1.34.894-1.882.615-.559 1.509-.559a2.76 2.76 0 0 1 1.584.466q.67.465 1.044 1.342.372.876.372 2.087m21.814 41.639h-12.298v-8.907h1.714v6.914h3.54v-5.404h1.677v5.404h3.653v-7.175h1.714zm-9.317-13.02 3.988-2.628.056-.372 5.273-3.783v2.367l-4.099 2.739-.15.428-5.068 3.653zm0-6.727 4.994 3.652-.019.41 4.342 2.982v2.273l-5.311-3.969.038-.391-4.044-2.665zm13.23-2.065h-13.23v-1.77l2.609-.15-.317.262a3.7 3.7 0 0 1-1.286-.69 3.3 3.3 0 0 1-.876-1.155 3.75 3.75 0 0 1-.316-1.547q0-1.137.577-2.068.577-.932 1.659-1.472 1.062-.54 2.59-.54t2.627.558q1.082.54 1.659 1.491a3.9 3.9 0 0 1 .577 2.087q0 1.192-.614 2.031-.634.84-1.603 1.193l-.317-.224h6.261zm-5.348-4.565q0-1.212-.857-1.882-.857-.69-2.366-.69t-2.367.671q-.876.671-.876 1.864 0 .781.41 1.378.392.579 1.118.913.708.317 1.715.317.987 0 1.714-.317.726-.316 1.118-.894.391-.577.391-1.36m1.621-11.217q0 1.397-.577 2.46a4.1 4.1 0 0 1-1.659 1.658q-1.1.578-2.608.578-1.51 0-2.591-.578a4.1 4.1 0 0 1-1.677-1.64q-.577-1.043-.577-2.366 0-1.36.559-2.311a3.74 3.74 0 0 1 1.528-1.454q.969-.503 2.199-.503.334 0 .633.02.298.017.522.055v7.49h-1.528v-6.614l.298.987q-1.268 0-1.938.634-.69.633-.689 1.733 0 .801.372 1.397.373.597 1.118.914.727.315 1.789.316 1.044 0 1.77-.335.727-.336 1.1-.95.373-.615.373-1.454 0-.931-.355-1.51a2.5 2.5 0 0 0-.987-.912l.745-1.584q.671.335 1.174.913.485.56.746 1.341a5.4 5.4 0 0 1 .26 1.715m-.186-6.674h-9.317v-1.695l1.677-.187q-.913-.373-1.379-1.099-.484-.746-.484-1.826 0-.28.056-.56.036-.278.13-.465l1.752.28q-.075.204-.112.465a3 3 0 0 0-.056.671q0 .578.317 1.137.298.559.913.932.614.354 1.565.354h4.938zm-10.882-8.721q0 .651-.317 1.006-.336.335-.932.335t-.913-.335q-.317-.354-.317-1.007 0-.633.317-.969.317-.354.913-.354t.932.354q.317.336.317.97m1.565-.988h9.317v1.994h-9.317zm9.503-7.22q0 1.398-.577 2.46a4.1 4.1 0 0 1-1.659 1.659q-1.1.578-2.608.578-1.51 0-2.591-.578a4.1 4.1 0 0 1-1.677-1.64q-.577-1.043-.577-2.367 0-1.36.559-2.31a3.74 3.74 0 0 1 1.528-1.454q.969-.503 2.199-.503.334 0 .633.019.298.018.522.056v7.49h-1.528v-6.614l.298.987q-1.268 0-1.938.634-.69.633-.689 1.733 0 .801.372 1.397.373.597 1.118.913.727.318 1.789.317 1.044 0 1.77-.335.727-.335 1.1-.95t.373-1.454q0-.931-.355-1.51a2.5 2.5 0 0 0-.987-.913l.745-1.583q.671.335 1.174.913.485.559.746 1.341.26.783.26 1.715m-.186-6.673h-9.317v-1.77l2.422-.13-.26.26q-.803-.26-1.323-.745a2.95 2.95 0 0 1-.783-1.174 4.3 4.3 0 0 1-.242-1.453q0-.989.391-1.77a2.87 2.87 0 0 1 1.137-1.268q.764-.465 1.938-.465h6.037v1.993h-5.422q-1.38 0-1.901.578-.54.56-.541 1.416 0 .615.299 1.193.279.577.913.969.633.373 1.695.373h4.957zm-9.503-15.562q0-1.118.335-1.9.317-.802.913-1.342t1.36-.82l.746 1.882q-.857.242-1.305.783-.465.521-.465 1.378 0 .84.391 1.435.373.597 1.099.913.727.3 1.789.299 1.044 0 1.77-.317.727-.317 1.1-.913t.373-1.416q0-.635-.205-1.1a2.1 2.1 0 0 0-.615-.764 2.3 2.3 0 0 0-.988-.428l.615-1.808q.839.26 1.472.82.615.54.969 1.36.335.82.335 1.882 0 1.38-.577 2.441a4.1 4.1 0 0 1-1.659 1.659q-1.1.577-2.608.577-1.51 0-2.591-.577a4.1 4.1 0 0 1-1.677-1.64q-.577-1.062-.577-2.404m9.689-10.538q0 1.398-.577 2.46a4.1 4.1 0 0 1-1.659 1.658q-1.1.578-2.608.578-1.51 0-2.591-.578a4.1 4.1 0 0 1-1.677-1.64q-.577-1.043-.577-2.366 0-1.36.559-2.31a3.74 3.74 0 0 1 1.528-1.454q.969-.504 2.199-.503.334 0 .633.018.298.019.522.056v7.491h-1.528V21.08l.298.988q-1.268 0-1.938.633-.69.633-.689 1.733 0 .801.372 1.398.373.596 1.118.913.727.317 1.789.317 1.044 0 1.77-.336.727-.335 1.1-.95t.373-1.454q0-.93-.355-1.509a2.5 2.5 0 0 0-.987-.913l.745-1.584q.671.336 1.174.913.485.56.746 1.342a5.4 5.4 0 0 1 .26 1.714M479.69 219.55V289h-12.764v-69.45zm27.314 28.549v12.215h-67.529v-12.215z"/></svg>