<svg xmlns="http://www.w3.org/2000/svg" width="28" height="34" fill="none" viewBox="0 0 28 34"><path fill="#00df9c" fill-rule="evenodd" d="M15.72 7.23a6.1 6.1 0 0 1-.79 3.014l-4.8-3.3V1.119a6.145 6.145 0 0 1 5.59 6.112m-6.447.452 5.508 3.787a.54.54 0 0 0 .564.034.55.55 0 0 0 .197-.175 7.2 7.2 0 0 0 1.271-4.097C16.813 3.244 13.569 0 9.583 0a.547.547 0 0 0-.547.548v6.684a.55.55 0 0 0 .237.45M6.684 2.686a6.146 6.146 0 0 0-5.59 6.113 6.144 6.144 0 0 0 6.137 6.137 6.14 6.14 0 0 0 4.727-2.223L6.921 9.25a.55.55 0 0 1-.237-.45zm.547 13.343a7.23 7.23 0 0 0 5.958-3.133.55.55 0 0 0-.14-.76L7.777 8.511V2.115a.547.547 0 0 0-.547-.547C3.244 1.568 0 4.812 0 8.8s3.244 7.23 7.231 7.23m19.12-7.352-.223 1.528a.547.547 0 0 0 1.081.158l.444-3.035a.547.547 0 0 0-.573-.625l-3.061.166a.547.547 0 0 0 .059 1.091l1.525-.082C18.78 13.934 10.631 18.638 1.36 21.867a.547.547 0 1 0 .36 1.033c4.576-1.594 8.917-3.554 12.905-5.826A69.5 69.5 0 0 0 26.35 8.677M5.227 32.812H2.49v-6.255h2.737zm.547-7.348H1.943a.547.547 0 0 0-.547.547v7.348a.547.547 0 0 0 .547.547h3.83a.547.547 0 0 0 .547-.547v-7.348a.547.547 0 0 0-.546-.547m20.79 7.348h-2.736V15.071h2.736zm.549-18.835a.55.55 0 0 1 .547.547v18.835a.55.55 0 0 1-.547.547H23.28a.547.547 0 0 1-.547-.547V14.524a.545.545 0 0 1 .547-.547zM12.34 32.812H9.602V22.708h2.738zm.547-11.198a.544.544 0 0 1 .546.546v11.2a.55.55 0 0 1-.546.547H9.056a.545.545 0 0 1-.547-.547v-11.2a.546.546 0 0 1 .547-.546zm6.565 11.198h-2.737V18.688h2.737zM20 17.594a.547.547 0 0 1 .547.546v15.22a.547.547 0 0 1-.547.546h-3.83a.547.547 0 0 1-.548-.547V18.14a.547.547 0 0 1 .548-.547z" clip-rule="evenodd"/></svg>