<svg width="40" height="40" viewBox="0 0 40 40" fill="none" xmlns="http://www.w3.org/2000/svg">
<mask id="mask0_822_2375" style="mask-type:luminance" maskUnits="userSpaceOnUse" x="0" y="-1" width="40" height="41">
<path d="M0 -0.0936317H39.9999V39.9062H0V-0.0936317Z" fill="white"/>
</mask>
<g mask="url(#mask0_822_2375)">
<path d="M6.60991 21.3376C6.60991 22.3382 5.79874 23.1494 4.79812 23.1494C3.7975 23.1494 2.98633 22.3382 2.98633 21.3376C2.98633 20.337 3.7975 19.5258 4.79812 19.5258C5.79874 19.5258 6.60991 20.3369 6.60991 21.3376Z" stroke="#02181A" stroke-miterlimit="10" stroke-linecap="round" stroke-linejoin="round"/>
<path d="M14.2106 17.531C14.2106 18.5317 13.3993 19.3428 12.3988 19.3428C11.3981 19.3428 10.5869 18.5317 10.5869 17.531C10.5869 16.5303 11.3981 15.7192 12.3988 15.7192C13.3993 15.7192 14.2106 16.5304 14.2106 17.531Z" stroke="#00DF9C" stroke-miterlimit="10" stroke-linecap="round" stroke-linejoin="round"/>
<path d="M21.8112 9.9177C21.8112 10.9183 21 11.7295 19.9994 11.7295C18.9987 11.7295 18.1875 10.9183 18.1875 9.9177C18.1875 8.91708 18.9987 8.10591 19.9994 8.10591C21 8.10591 21.8112 8.917 21.8112 9.9177Z" stroke="#02181A" stroke-miterlimit="10" stroke-linecap="round" stroke-linejoin="round"/>
<path d="M29.4117 13.7243C29.4117 14.725 28.6006 15.5361 27.6 15.5361C26.5993 15.5361 25.7881 14.725 25.7881 13.7243C25.7881 12.7236 26.5993 11.9126 27.6 11.9126C28.6006 11.9126 29.4117 12.7236 29.4117 13.7243Z" stroke="#00DF9C" stroke-miterlimit="10" stroke-linecap="round" stroke-linejoin="round"/>
<path d="M37.0118 2.30442C37.0118 3.30512 36.2006 4.11621 35.2001 4.11621C34.1994 4.11621 33.3882 3.30512 33.3882 2.30442C33.3882 1.30372 34.1994 0.492628 35.2001 0.492628C36.2006 0.492628 37.0118 1.30372 37.0118 2.30442Z" stroke="#00DF9C" stroke-miterlimit="10" stroke-linecap="round" stroke-linejoin="round"/>
<path d="M28.6035 12.2168L34.1966 3.81299" stroke="#02181A" stroke-miterlimit="10" stroke-linecap="round" stroke-linejoin="round"/>
<path d="M21.6191 10.729L25.9798 12.9131" stroke="#02181A" stroke-miterlimit="10" stroke-linecap="round" stroke-linejoin="round"/>
<path d="M13.6787 16.249L18.7193 11.1999" stroke="#02181A" stroke-miterlimit="10" stroke-linecap="round" stroke-linejoin="round"/>
<path d="M6.41748 20.5264L10.7782 18.3423" stroke="#02181A" stroke-miterlimit="10" stroke-linecap="round" stroke-linejoin="round"/>
<path d="M2.83814 28.0444H6.75727C6.82161 28.0444 6.88532 28.0571 6.94477 28.0817C7.00421 28.1063 7.05823 28.1424 7.10372 28.1879C7.14922 28.2334 7.1853 28.2874 7.20992 28.3468C7.23454 28.4063 7.2472 28.47 7.24719 28.5343V39.3203H2.34814V28.5343C2.34813 28.47 2.3608 28.4063 2.38542 28.3468C2.41005 28.2874 2.44614 28.2333 2.49164 28.1879C2.53715 28.1424 2.59117 28.1063 2.65062 28.0817C2.71008 28.057 2.7738 28.0444 2.83814 28.0444Z" stroke="#00DF9C" stroke-miterlimit="10" stroke-linecap="round" stroke-linejoin="round"/>
<path d="M10.4393 24.2375H14.3583C14.4883 24.2376 14.6129 24.2892 14.7048 24.3811C14.7967 24.473 14.8483 24.5976 14.8483 24.7275V39.3203H9.94922V24.7275C9.94924 24.5976 10.0009 24.4729 10.0928 24.3811C10.1847 24.2892 10.3093 24.2375 10.4393 24.2375Z" stroke="#02181A" stroke-miterlimit="10" stroke-linecap="round" stroke-linejoin="round"/>
<path d="M18.0399 16.5909H21.9589C22.0233 16.5909 22.087 16.6036 22.1465 16.6282C22.2059 16.6528 22.2599 16.6889 22.3054 16.7344C22.3509 16.7799 22.387 16.8339 22.4117 16.8933C22.4363 16.9528 22.4489 17.0165 22.4489 17.0808V39.3203H17.5498V17.0808C17.5498 16.9509 17.6015 16.8263 17.6934 16.7344C17.7853 16.6425 17.9099 16.5909 18.0399 16.5909Z" stroke="#02181A" stroke-miterlimit="10" stroke-linecap="round" stroke-linejoin="round"/>
<path d="M1.03711 39.3203H38.9609" stroke="#02181A" stroke-miterlimit="10" stroke-linecap="round" stroke-linejoin="round"/>
<path d="M26.2327 20.4308H25.6404C25.5104 20.4309 25.3858 20.4825 25.2939 20.5744C25.202 20.6663 25.1504 20.7909 25.1504 20.9208V39.3203H30.0494V20.9208C30.0494 20.7909 29.9978 20.6663 29.9059 20.5744C29.814 20.4825 29.6894 20.4309 29.5594 20.4308H28.9671" stroke="#00DF9C" stroke-miterlimit="10" stroke-linecap="round" stroke-linejoin="round"/>
<path d="M37.65 23.1245V9.44704C37.65 9.31709 37.5984 9.19247 37.5065 9.10056C37.4147 9.00866 37.2901 8.95701 37.1601 8.95697H33.241C33.111 8.95699 32.9864 9.00863 32.8945 9.10054C32.8026 9.19244 32.751 9.31708 32.751 9.44704V39.3203H37.65V25.8589" stroke="#02181A" stroke-miterlimit="10" stroke-linecap="round" stroke-linejoin="round"/>
</g>
</svg>
