<svg width="40" height="40" viewBox="0 0 40 40" fill="none" xmlns="http://www.w3.org/2000/svg">
<path d="M9.5 4.59375H30.5V5.53125H9.5V4.59375ZM12.0625 34.1563H11.125V27.625C11.125 25.9375 12.4063 24.1562 15.0625 22.1875L16.1563 21.375C16.7188 20.9688 17.0312 20.3125 17.0312 19.625C17.0312 18.9375 16.7188 18.2812 16.1563 17.875L15.0625 17.0625C12.4063 15.0625 11.125 13.2812 11.125 11.625V5.8125H12.0625V11.5937C12.0625 12.9687 13.2188 14.5 15.625 16.2812L16.7188 17.0938C17.5 17.6875 17.9688 18.5938 17.9688 19.5938C17.9688 20.5938 17.5 21.5 16.7188 22.0937L15.625 22.9375C13.2188 24.75 12.0625 26.2813 12.0625 27.625V34.1563ZM28.875 34.1563H27.9375V27.625C27.9375 26.25 26.7812 24.7188 24.375 22.9375L23.2812 22.125C22.5 21.5312 22.0312 20.625 22.0312 19.625C22.0312 18.625 22.5 17.7187 23.2812 17.125L24.375 16.3125C26.7812 14.5 27.9375 12.9688 27.9375 11.625V5.8125H28.875V11.5937C28.875 13.2812 27.5938 15.0625 24.9375 17.0312L23.8438 17.8437C23.2813 18.25 22.9688 18.9062 22.9688 19.5938C22.9688 20.2812 23.2813 20.9375 23.8438 21.3438L24.9375 22.1562C27.5938 24.1562 28.875 25.9375 28.875 27.5938V34.1563ZM9.5 34.4688H30.5V35.4063H9.5V34.4688Z" fill="#02181A"/>
<path d="M19.998 19.0625C19.5605 19.0625 19.123 18.8438 18.873 18.5C18.1073 17.5143 17.2718 16.5848 16.373 15.7187C15.7168 15.0937 14.998 14.4687 14.248 13.9375L14.1855 13.9062L14.1543 13.8437C13.9355 13.5625 13.9043 13.1562 14.0605 12.8437C14.2168 12.5 14.5605 12.3125 14.9355 12.3125H25.0605C25.4355 12.3125 25.748 12.5312 25.9355 12.8437C26.0918 13.1875 26.0605 13.5625 25.8418 13.8437L25.7793 13.9062L25.7168 13.9375C24.7793 14.5312 23.9043 15.25 23.123 16.0312C22.4043 16.7812 21.748 17.5937 21.1855 18.4375C21.0605 18.5625 20.6855 19.0625 19.998 19.0625ZM14.9043 13.2187C15.6543 13.7812 16.3418 14.375 17.0293 15.0312C17.9668 15.9375 18.8418 16.9062 19.623 17.9062C19.7168 18.0312 19.8418 18.0938 19.998 18.0938C20.2168 18.0938 20.373 17.9062 20.373 17.9062C20.9668 17 21.6543 16.1562 22.4355 15.375C23.248 14.5625 24.123 13.8437 25.0605 13.2187V13.1875L14.9043 13.2187ZM25.6855 33.5938H14.3105C13.9355 33.5938 13.623 33.4375 13.4355 33.2188C13.1855 32.9062 13.248 32.4688 13.5605 32.1875L13.5918 32.1562L13.6543 32.125C14.498 31.7188 15.2793 31.2812 16.0605 30.8125C17.0605 30.1875 18.0293 29.5312 18.873 28.8125C19.1543 28.5625 19.5605 28.4375 20.0293 28.4375C20.6855 28.4375 21.0918 28.7187 21.1855 28.8125L21.2168 28.8438C21.8418 29.4688 22.5918 30.0625 23.4043 30.5938C24.2793 31.1562 25.2793 31.6875 26.3418 32.125L26.4043 32.1562L26.4668 32.2188C26.7168 32.4375 26.8105 32.75 26.6855 33.0312C26.5293 33.375 26.1543 33.5938 25.6855 33.5938ZM14.6855 32.6562H25.1855C24.3418 32.2812 23.5605 31.8438 22.8418 31.375C21.9668 30.8125 21.1855 30.1875 20.5293 29.5312C20.498 29.5 20.3105 29.375 19.998 29.375C19.7793 29.375 19.5605 29.4375 19.4668 29.5312C18.5605 30.2812 17.5918 30.9687 16.5293 31.625C15.9355 32 15.3418 32.3438 14.6855 32.6562ZM19.5293 21.2188H20.4668V22.8437H19.5293V21.2188ZM20.623 24.4688H21.5605V26.0938H20.623V24.4688ZM16.6855 25.6875H17.623V27.3125H16.6855V25.6875Z" fill="#00DF9C"/>
</svg>
