<svg width="40" height="40" viewBox="0 0 40 40" fill="none" xmlns="http://www.w3.org/2000/svg">
<g clip-path="url(#clip0_822_2353)">
<path d="M21.0889 25.2323C21.4316 25.2057 21.7645 25.1049 22.0645 24.937C22.3644 24.769 22.6243 24.5379 22.8262 24.2596L29.0682 15.6303C29.1617 15.5019 29.2062 15.3443 29.1938 15.1859C29.1814 15.0276 29.1129 14.8789 29.0006 14.7666C28.8883 14.6542 28.7396 14.5857 28.5812 14.5733C28.4229 14.5609 28.2653 14.6055 28.1369 14.699L19.5062 20.943C18.9435 21.3523 18.5895 21.985 18.5355 22.679C18.4815 23.373 18.7329 24.0523 19.2242 24.5436C19.4665 24.7868 19.7587 24.9743 20.0807 25.0932C20.4027 25.2121 20.7467 25.2596 21.0889 25.2323ZM19.8649 22.783C19.8763 22.6329 19.9203 22.4871 19.9936 22.3557C20.0669 22.2242 20.1679 22.1102 20.2895 22.0216L25.5542 18.213L21.7469 23.4763C21.6582 23.5981 21.5442 23.6993 21.4128 23.7729C21.2813 23.8465 21.1354 23.8907 20.9852 23.9026C20.835 23.9144 20.684 23.8936 20.5427 23.8415C20.4013 23.7895 20.2728 23.7074 20.1662 23.601C20.0598 23.4945 19.9777 23.3663 19.9257 23.2251C19.8737 23.0838 19.8529 22.933 19.8649 22.783Z" fill="#00DF9C"/>
<path d="M36.0226 12.9489C36.016 12.9349 36.016 12.9202 36.0086 12.9062C36.0006 12.8929 35.988 12.8856 35.9793 12.8729C35.3075 11.7201 34.5104 10.6449 33.6026 9.66692L35.0346 8.23558L35.9773 9.17825L38.8053 6.34958L35.9773 3.52158L33.1486 6.34958L34.092 7.29292L32.66 8.72425C31.6827 7.81541 30.6075 7.01806 29.454 6.34692C29.4413 6.33825 29.434 6.32558 29.4206 6.31758C29.4073 6.30958 29.392 6.31025 29.378 6.30292C27.2732 5.08861 24.9428 4.31643 22.5293 4.03358V3.23958H23.5293C24.4486 3.23958 25.196 2.49225 25.196 1.57292C25.196 0.653583 24.448 -0.09375 23.5286 -0.09375H17.5286C16.6093 -0.09375 15.862 0.653583 15.862 1.57292C15.862 2.49225 16.6093 3.23958 17.5286 3.23958H18.5286V4.01025C17.8086 4.08692 17.09 4.20425 16.3793 4.36692C16.2925 4.38501 16.2102 4.42024 16.1372 4.47054C16.0642 4.52083 16.0019 4.58519 15.9541 4.65985C15.9062 4.7345 15.8738 4.81794 15.8586 4.9053C15.8434 4.99265 15.8457 5.08216 15.8656 5.16858C15.8854 5.25501 15.9222 5.33661 15.974 5.40861C16.0257 5.48061 16.0913 5.54157 16.1669 5.58791C16.2425 5.63425 16.3266 5.66505 16.4142 5.6785C16.5019 5.69196 16.5913 5.68779 16.6773 5.66625C17.2886 5.52546 17.9074 5.41929 18.5306 5.34825L19.246 5.29292C19.4646 5.27625 19.666 5.26425 19.862 5.25492V6.57292C19.862 6.74973 19.9322 6.9193 20.0572 7.04432C20.1823 7.16935 20.3518 7.23958 20.5286 7.23958C20.7055 7.23958 20.875 7.16935 21.0001 7.04432C21.1251 6.9193 21.1953 6.74973 21.1953 6.57292V5.25958C23.6303 5.37024 26.0106 6.01792 28.166 7.15625L27.5086 8.29425C27.4216 8.44729 27.3987 8.62853 27.4448 8.79843C27.4909 8.96832 27.6024 9.11308 27.7549 9.2011C27.9073 9.28912 28.0884 9.31327 28.2586 9.26828C28.4288 9.22328 28.5743 9.11279 28.6633 8.96092L29.3186 7.82558C31.406 9.15042 33.1751 10.9196 34.5 13.0069L33.3646 13.6623C33.2115 13.7508 33.0999 13.8966 33.0542 14.0675C33.0086 14.2384 33.0327 14.4205 33.1213 14.5736C33.2099 14.7267 33.3557 14.8384 33.5266 14.884C33.6975 14.9296 33.8795 14.9055 34.0326 14.8169L35.1706 14.1596C36.3255 16.3475 36.9745 18.7668 37.07 21.2389H35.7533C35.5765 21.2389 35.4069 21.3092 35.2819 21.4342C35.1569 21.5592 35.0866 21.7288 35.0866 21.9056C35.0866 22.0824 35.1569 22.252 35.2819 22.377C35.4069 22.502 35.5765 22.5723 35.7533 22.5723H37.07C36.9745 25.0444 36.3255 27.4636 35.1706 29.6516L34.0326 28.9943C33.8796 28.9072 33.6984 28.8843 33.5285 28.9304C33.3586 28.9765 33.2138 29.088 33.1258 29.2405C33.0378 29.3929 33.0136 29.574 33.0586 29.7442C33.1036 29.9144 33.2141 30.0599 33.366 30.1489L34.5013 30.8043C33.1765 32.8916 31.4073 34.6607 29.32 35.9856L28.6646 34.8503C28.5762 34.6971 28.4306 34.5854 28.2598 34.5396C28.0891 34.4939 27.9071 34.5178 27.754 34.6063C27.6009 34.6947 27.4891 34.8403 27.4434 35.0111C27.3976 35.1818 27.4216 35.3638 27.51 35.5169L28.1673 36.6549C26.012 37.7932 23.6316 38.4409 21.1966 38.5516V37.2396C21.1966 37.0628 21.1264 36.8932 21.0014 36.7682C20.8764 36.6432 20.7068 36.5729 20.53 36.5729C20.3532 36.5729 20.1836 36.6432 20.0586 36.7682C19.9336 36.8932 19.8633 37.0628 19.8633 37.2396V38.5569C18.7913 38.5218 17.7251 38.384 16.6793 38.1456C16.594 38.1257 16.5056 38.1228 16.4191 38.1373C16.3327 38.1517 16.25 38.1831 16.1757 38.2296C16.1015 38.2762 16.0372 38.3369 15.9865 38.4084C15.9359 38.4799 15.8999 38.5608 15.8806 38.6463C15.8412 38.8186 15.8717 38.9995 15.9656 39.1492C16.0595 39.299 16.209 39.4054 16.3813 39.4449C17.712 39.7516 19.0713 39.9062 20.42 39.9062C20.4524 39.9058 20.4846 39.9049 20.5166 39.9036C20.5213 39.9036 20.5246 39.9062 20.5286 39.9062C20.534 39.9062 20.5386 39.9029 20.544 39.9029C23.6382 39.8854 26.6749 39.0647 29.3566 37.5209C29.3773 37.5116 29.3993 37.5069 29.4193 37.4949C29.4326 37.4869 29.44 37.4743 29.4526 37.4656C32.1482 35.8932 34.3923 33.6518 35.968 30.9583C35.9806 30.9403 35.9966 30.9263 36.008 30.9062C36.016 30.8923 36.0153 30.8776 36.022 30.8636C37.5446 28.2236 38.42 25.1663 38.42 21.9062C38.42 18.6462 37.5446 15.5889 36.0226 12.9489ZM35.9766 5.40692L36.9193 6.34958L35.9766 7.29292L35.0333 6.34958L35.9766 5.40692ZM19.862 3.92025V1.90625H17.5286C17.3453 1.90625 17.1953 1.75625 17.1953 1.57292C17.1953 1.38958 17.3453 1.23958 17.5286 1.23958H23.5286C23.712 1.23958 23.862 1.38958 23.862 1.57292C23.862 1.75625 23.712 1.90625 23.5286 1.90625H21.1953V3.92025C20.9638 3.91092 20.7415 3.90625 20.5286 3.90625L20.47 3.90758L20.42 3.90625C20.3106 3.90625 20.2013 3.91358 20.092 3.91558C20.0146 3.91758 19.942 3.91692 19.862 3.92025ZM14.5286 9.23958H11.1953C11.0185 9.23958 10.8489 9.30982 10.7239 9.43485C10.5989 9.55987 10.5286 9.72944 10.5286 9.90625C10.5286 10.0831 10.5989 10.2526 10.7239 10.3777C10.8489 10.5027 11.0185 10.5729 11.1953 10.5729H14.5286C14.7055 10.5729 14.875 10.5027 15.0001 10.3777C15.1251 10.2526 15.1953 10.0831 15.1953 9.90625C15.1953 9.72944 15.1251 9.55987 15.0001 9.43485C14.875 9.30982 14.7055 9.23958 14.5286 9.23958ZM14.5286 13.9062H7.86198C7.68517 13.9062 7.5156 13.9765 7.39057 14.1015C7.26555 14.2265 7.19531 14.3961 7.19531 14.5729C7.19531 14.7497 7.26555 14.9193 7.39057 15.0443C7.5156 15.1693 7.68517 15.2396 7.86198 15.2396H14.5286C14.7055 15.2396 14.875 15.1693 15.0001 15.0443C15.1251 14.9193 15.1953 14.7497 15.1953 14.5729C15.1953 14.3961 15.1251 14.2265 15.0001 14.1015C14.875 13.9765 14.7055 13.9062 14.5286 13.9062ZM14.5286 18.5729H4.52865C4.35184 18.5729 4.18227 18.6432 4.05724 18.7682C3.93222 18.8932 3.86198 19.0628 3.86198 19.2396C3.86198 19.4164 3.93222 19.586 4.05724 19.711C4.18227 19.836 4.35184 19.9062 4.52865 19.9062H14.5286C14.7055 19.9062 14.875 19.836 15.0001 19.711C15.1251 19.586 15.1953 19.4164 15.1953 19.2396C15.1953 19.0628 15.1251 18.8932 15.0001 18.7682C14.875 18.6432 14.7055 18.5729 14.5286 18.5729ZM14.5286 23.2396H1.86198C1.68517 23.2396 1.5156 23.3098 1.39057 23.4348C1.26555 23.5599 1.19531 23.7294 1.19531 23.9062C1.19531 24.0831 1.26555 24.2526 1.39057 24.3777C1.5156 24.5027 1.68517 24.5729 1.86198 24.5729H14.5286C14.7055 24.5729 14.875 24.5027 15.0001 24.3777C15.1251 24.2526 15.1953 24.0831 15.1953 23.9062C15.1953 23.7294 15.1251 23.5599 15.0001 23.4348C14.875 23.3098 14.7055 23.2396 14.5286 23.2396ZM14.5286 27.9062H5.86198C5.68517 27.9062 5.5156 27.9765 5.39057 28.1015C5.26555 28.2265 5.19531 28.3961 5.19531 28.5729C5.19531 28.7497 5.26555 28.9193 5.39057 29.0443C5.5156 29.1693 5.68517 29.2396 5.86198 29.2396H14.5286C14.7055 29.2396 14.875 29.1693 15.0001 29.0443C15.1251 28.9193 15.1953 28.7497 15.1953 28.5729C15.1953 28.3961 15.1251 28.2265 15.0001 28.1015C14.875 27.9765 14.7055 27.9062 14.5286 27.9062ZM14.5286 32.5729H9.86198C9.68517 32.5729 9.5156 32.6432 9.39058 32.7682C9.26555 32.8932 9.19531 33.0628 9.19531 33.2396C9.19531 33.4164 9.26555 33.586 9.39058 33.711C9.5156 33.836 9.68517 33.9062 9.86198 33.9062H14.5286C14.7055 33.9062 14.875 33.836 15.0001 33.711C15.1251 33.586 15.1953 33.4164 15.1953 33.2396C15.1953 33.0628 15.1251 32.8932 15.0001 32.7682C14.875 32.6432 14.7055 32.5729 14.5286 32.5729Z" fill="#02181A"/>
</g>
<defs>
<clipPath id="clip0_822_2353">
<rect width="40" height="40" fill="white" transform="translate(0 -0.09375)"/>
</clipPath>
</defs>
</svg>
