<svg xmlns="http://www.w3.org/2000/svg" width="40" height="40" fill="none" viewBox="0 0 40 40"><mask id="a" width="40" height="41" x="0" y="-1" maskUnits="userSpaceOnUse" style="mask-type:luminance"><path fill="#fff" d="M0-.094h40v40H0z"/></mask><g stroke-linecap="round" stroke-linejoin="round" stroke-miterlimit="10" mask="url(#a)"><path stroke="#02181a" d="M6.61 21.338a1.812 1.812 0 1 1-3.624 0 1.812 1.812 0 0 1 3.624 0"/><path stroke="#00df9c" d="M14.21 17.531a1.812 1.812 0 1 1-3.623 0 1.812 1.812 0 0 1 3.624 0"/><path stroke="#02181a" d="M21.811 9.918a1.812 1.812 0 1 1-3.623 0 1.812 1.812 0 0 1 3.623 0"/><path stroke="#00df9c" d="M29.412 13.724a1.812 1.812 0 1 1-3.624 0 1.812 1.812 0 0 1 3.624 0m7.6-11.42a1.812 1.812 0 1 1-3.624 0 1.812 1.812 0 0 1 3.624 0"/><path stroke="#02181a" d="m28.604 12.217 5.593-8.404M21.62 10.729l4.36 2.184m-12.301 3.336 5.04-5.05M6.417 20.526l4.361-2.184"/><path stroke="#00df9c" d="M2.838 28.044h3.92a.49.49 0 0 1 .49.49V39.32h-4.9V28.534a.49.49 0 0 1 .49-.49"/><path stroke="#02181a" d="M10.44 24.238h3.918a.49.49 0 0 1 .49.49V39.32H9.95V24.727a.49.49 0 0 1 .49-.49m7.6-7.647h3.919a.49.49 0 0 1 .49.49v22.24h-4.9V17.08a.49.49 0 0 1 .49-.49M1.037 39.32h37.924"/><path stroke="#00df9c" d="M26.233 20.43h-.593a.49.49 0 0 0-.49.49v18.4h4.9v-18.4a.49.49 0 0 0-.49-.49h-.593"/><path stroke="#02181a" d="M37.65 23.125V9.447a.49.49 0 0 0-.49-.49h-3.919a.49.49 0 0 0-.49.49V39.32h4.899V25.86"/></g></svg>