<svg width="40" height="40" viewBox="0 0 40 40" fill="none" xmlns="http://www.w3.org/2000/svg">
<path d="M19.9963 37.5C23.0106 37.5 25.9738 36.7213 28.5988 35.2395C31.2238 33.7577 33.4215 31.623 34.979 29.0422C36.5365 26.4614 37.4009 23.5221 37.4886 20.509C37.5763 17.496 36.8842 14.5114 35.4794 11.8444C35.3999 11.7012 35.2674 11.595 35.1104 11.5485C34.9534 11.5021 34.7845 11.5191 34.6398 11.5959C34.4952 11.6727 34.3866 11.8032 34.3372 11.9593C34.2877 12.1154 34.3016 12.2846 34.3757 12.4306C35.6066 14.7637 36.2488 17.3622 36.2463 20C35.3557 41.5544 4.63691 41.5544 3.74629 20C3.59629 7.94876 16.9963 -0.128743 27.5663 5.62126C27.6388 5.65971 27.7182 5.6835 27.7999 5.69128C27.8816 5.69905 27.964 5.69066 28.0425 5.66657C28.121 5.64249 28.1939 5.60318 28.2572 5.55091C28.3205 5.49863 28.3728 5.4344 28.4113 5.36188C28.4497 5.28937 28.4735 5.20999 28.4813 5.12828C28.4891 5.04657 28.4807 4.96413 28.4566 4.88566C28.4325 4.8072 28.3932 4.73424 28.3409 4.67097C28.2887 4.60769 28.2244 4.55533 28.1519 4.51688C25.6384 3.18996 22.8386 2.49757 19.9963 2.50001C-3.21621 3.45938 -3.21621 36.5413 19.9963 37.5Z" fill="#02181A"/>
<path d="M19.9961 15C20.5371 14.9997 21.0745 15.0895 21.5861 15.2656C21.7428 15.3196 21.9145 15.3091 22.0635 15.2364C22.2125 15.1637 22.3265 15.0348 22.3804 14.8781C22.6554 13.7738 20.7086 13.8175 19.9961 13.75C11.7054 14.0925 11.7061 25.9075 19.9961 26.25C21.6531 26.2483 23.2419 25.5893 24.4136 24.4176C25.5854 23.2458 26.2444 21.6571 26.2461 20C26.1823 19.275 26.2242 17.3481 25.1236 17.6219C24.967 17.6758 24.8382 17.7897 24.7656 17.9386C24.6929 18.0874 24.6823 18.259 24.7361 18.4156C24.9097 18.9258 24.9976 19.4611 24.9961 20C24.7454 26.6231 15.2461 26.6231 14.9961 20C14.9977 18.6744 15.525 17.4036 16.4623 16.4663C17.3997 15.529 18.6705 15.0017 19.9961 15Z" fill="#00DF9C"/>
<path d="M25.9804 10.4594C26.0203 10.3876 26.0456 10.3086 26.0549 10.227C26.0642 10.1454 26.0573 10.0628 26.0347 9.98386C26.0121 9.90492 25.9741 9.83122 25.923 9.76696C25.8718 9.70271 25.8085 9.64916 25.7367 9.60938C23.9794 8.63712 22.0043 8.12641 19.9961 8.125C4.24481 8.77625 4.24481 31.2244 19.9961 31.875C22.0617 31.876 24.0919 31.338 25.8858 30.3139C27.6798 29.2899 29.1754 27.8154 30.2249 26.0362C31.2744 24.257 31.8413 22.2347 31.8697 20.1693C31.898 18.1038 31.3869 16.0667 30.3867 14.2594C30.3063 14.1143 30.1716 14.0072 30.0122 13.9615C29.8528 13.9157 29.6817 13.9352 29.5367 14.0156C29.3916 14.096 29.2845 14.2307 29.2388 14.3901C29.1931 14.5495 29.2125 14.7206 29.2929 14.8656C33.2554 21.7356 27.9336 30.7625 19.9961 30.625C17.1791 30.6217 14.4786 29.5012 12.4867 27.5094C10.4948 25.5175 9.37436 22.8169 9.37105 20C9.2348 12.0631 18.2592 6.74062 25.1304 10.7031C25.2022 10.743 25.2812 10.7683 25.3628 10.7776C25.4444 10.7869 25.527 10.78 25.6059 10.7574C25.6849 10.7348 25.7586 10.6968 25.8228 10.6457C25.8871 10.5945 25.9406 10.5312 25.9804 10.4594Z" fill="#02181A"/>
<path d="M27.1987 8.68653L27.4281 11.6847L19.5544 19.5584C19.4405 19.6763 19.3775 19.8342 19.3789 19.998C19.3804 20.1619 19.4461 20.3187 19.562 20.4345C19.6778 20.5504 19.8346 20.6162 19.9985 20.6176C20.1623 20.619 20.3202 20.556 20.4381 20.4422L28.3119 12.5684L31.31 12.7978C31.3998 12.8046 31.49 12.792 31.5745 12.7607C31.659 12.7294 31.7357 12.6802 31.7994 12.6165L36.3481 8.06778C36.4308 7.98257 36.4877 7.8757 36.5122 7.75952C36.5368 7.64335 36.5279 7.5226 36.4867 7.41123C36.4456 7.29986 36.3737 7.20241 36.2795 7.13013C36.1853 7.05786 36.0726 7.01371 35.9544 7.00278L33.2044 6.79215L32.9937 4.04215C32.9828 3.92392 32.9386 3.81119 32.8664 3.71698C32.7941 3.62277 32.6966 3.55093 32.5853 3.50976C32.4739 3.46858 32.3532 3.45975 32.237 3.48428C32.1208 3.50882 32.0139 3.56571 31.9287 3.6484L27.38 8.19715C27.3163 8.26085 27.2671 8.33755 27.2358 8.42202C27.2045 8.50649 27.1919 8.59672 27.1987 8.68653ZM31.8512 5.4934C32.1012 8.40403 31.6087 7.89153 34.5031 8.14528L31.1187 11.5297L28.6556 11.3409L28.4669 8.8784L31.8512 5.4934Z" fill="#00DF9C"/>
</svg>
