<svg xmlns="http://www.w3.org/2000/svg" width="40" height="40" fill="none" viewBox="0 0 40 40"><g clip-path="url(#a)"><path fill="#00df9c" d="M21.089 25.232a2.37 2.37 0 0 0 1.737-.972l6.242-8.63a.667.667 0 0 0-.931-.931l-8.63 6.244a2.373 2.373 0 0 0 1.583 4.29m-1.224-2.449a1.04 1.04 0 0 1 .425-.761l5.264-3.809-3.807 5.263a1.045 1.045 0 0 1-1.58.125 1.04 1.04 0 0 1-.302-.818"/><path fill="#02181a" d="M36.023 12.949c-.007-.014-.007-.029-.014-.043-.008-.013-.021-.02-.03-.033a18 18 0 0 0-2.376-3.206l1.432-1.431.942.942 2.828-2.828-2.828-2.828L33.15 6.35l.943.943-1.432 1.431a18 18 0 0 0-3.206-2.377c-.013-.009-.02-.021-.033-.03-.014-.007-.029-.007-.043-.014a17.9 17.9 0 0 0-6.849-2.27V3.24h1c.92 0 1.667-.748 1.667-1.667 0-.92-.748-1.667-1.667-1.667h-6a1.668 1.668 0 0 0 0 3.334h1v.77q-1.082.114-2.15.357a.666.666 0 1 0 .298 1.3 17 17 0 0 1 1.854-.319l.715-.055c.219-.017.42-.029.616-.038v1.318a.667.667 0 1 0 1.333 0V5.26c2.435.11 4.816.758 6.971 1.896l-.657 1.138a.667.667 0 0 0 1.154.667l.656-1.135a16.8 16.8 0 0 1 5.181 5.18l-1.135.656a.667.667 0 1 0 .668 1.155l1.138-.657a16.5 16.5 0 0 1 1.899 7.079h-1.317a.667.667 0 0 0 0 1.333h1.317a16.5 16.5 0 0 1-1.9 7.08l-1.137-.658a.666.666 0 0 0-.667 1.155l1.135.655a16.8 16.8 0 0 1-5.181 5.182l-.655-1.136a.667.667 0 1 0-1.155.667l.657 1.138a16.5 16.5 0 0 1-6.97 1.897V37.24a.667.667 0 1 0-1.334 0v1.317a17 17 0 0 1-3.184-.411.663.663 0 0 0-.798.5.667.667 0 0 0 .5.799 18 18 0 0 0 4.136.459l.012.002.015-.003a17.87 17.87 0 0 0 8.813-2.382c.02-.01.042-.014.062-.026.014-.008.021-.02.034-.03a18.13 18.13 0 0 0 6.515-6.507c.013-.018.029-.032.04-.052.008-.014.007-.028.014-.042a17.9 17.9 0 0 0 2.398-8.958c0-3.26-.875-6.317-2.397-8.957m-.046-7.542.942.943-.942.943-.944-.943zM19.862 3.92V1.906h-2.333a.334.334 0 0 1-.334-.333c0-.183.15-.333.334-.333h6c.183 0 .333.15.333.333s-.15.333-.333.333h-2.334V3.92a17 17 0 0 0-.666-.014l-.059.002-.05-.002c-.11 0-.219.008-.328.01-.077.002-.15 0-.23.004m-5.333 5.32h-3.334a.667.667 0 1 0 0 1.333h3.334a.667.667 0 1 0 0-1.333m0 4.666H7.862a.667.667 0 0 0 0 1.334h6.667a.667.667 0 0 0 0-1.334m0 4.667h-10a.667.667 0 0 0 0 1.333h10a.667.667 0 1 0 0-1.333m0 4.667H1.862a.667.667 0 1 0 0 1.333h12.667a.667.667 0 1 0 0-1.333m0 4.666H5.862a.667.667 0 0 0 0 1.334h8.667a.667.667 0 0 0 0-1.334m0 4.667H9.862a.667.667 0 0 0 0 1.333h4.667a.667.667 0 1 0 0-1.333"/></g><defs><clipPath id="a"><path fill="#fff" d="M0-.094h40v40H0z"/></clipPath></defs></svg>