<svg xmlns="http://www.w3.org/2000/svg" width="40" height="40" fill="none" viewBox="0 0 40 40"><path fill="#02181a" d="M19.996 37.5A17.5 17.5 0 0 0 35.48 11.844a.625.625 0 0 0-1.103.587A16.2 16.2 0 0 1 36.246 20c-.89 21.554-31.61 21.554-32.5 0-.15-12.051 13.25-20.129 23.82-14.379a.625.625 0 0 0 .586-1.104A17.44 17.44 0 0 0 19.996 2.5c-23.212.96-23.212 34.041 0 35"/><path fill="#00df9c" d="M19.996 15c.541 0 1.079.09 1.59.266a.625.625 0 0 0 .794-.388c.275-1.104-1.671-1.06-2.384-1.128-8.29.342-8.29 12.157 0 12.5a6.256 6.256 0 0 0 6.25-6.25c-.064-.725-.022-2.652-1.122-2.378a.624.624 0 0 0-.388.794c.174.51.262 1.045.26 1.584-.25 6.623-9.75 6.623-10 0a5.006 5.006 0 0 1 5-5"/><path fill="#02181a" d="M25.98 10.46a.624.624 0 0 0-.243-.85 11.9 11.9 0 0 0-5.74-1.485c-15.752.651-15.752 23.1 0 23.75a11.868 11.868 0 0 0 10.39-17.616.625.625 0 1 0-1.094.607c3.962 6.87-1.36 15.897-9.297 15.759A10.64 10.64 0 0 1 9.371 20c-.136-7.937 8.888-13.26 15.76-9.297a.624.624 0 0 0 .85-.244"/><path fill="#00df9c" d="m27.199 8.687.23 2.998-7.875 7.873a.625.625 0 0 0 .884.884l7.874-7.874 2.998.23a.63.63 0 0 0 .49-.181l4.548-4.55a.629.629 0 0 0-.394-1.064l-2.75-.21-.21-2.75a.63.63 0 0 0-1.065-.395l-4.549 4.55a.63.63 0 0 0-.181.489m4.652-3.194c.25 2.911-.242 2.399 2.652 2.652L31.12 11.53l-2.463-.19-.19-2.462z"/></svg>