<svg xmlns="http://www.w3.org/2000/svg" width="40" height="40" fill="none" viewBox="0 0 40 40"><path fill="#02181a" d="M9.5 4.594h21v.937h-21zm2.563 29.562h-.938v-6.531c0-1.687 1.281-3.469 3.938-5.437l1.093-.813a2.15 2.15 0 0 0 .875-1.75c0-.687-.312-1.344-.875-1.75l-1.093-.812c-2.657-2-3.938-3.782-3.938-5.438V5.813h.938v5.78c0 1.376 1.156 2.907 3.562 4.688l1.094.813a3.123 3.123 0 0 1 0 5l-1.094.843c-2.406 1.813-3.562 3.344-3.562 4.688zm16.812 0h-.937v-6.531c0-1.375-1.157-2.906-3.563-4.687l-1.094-.813a3.123 3.123 0 0 1 0-5l1.094-.812c2.406-1.813 3.563-3.344 3.563-4.688V5.813h.937v5.78c0 1.688-1.281 3.47-3.937 5.438l-1.094.813a2.15 2.15 0 0 0-.875 1.75c0 .687.312 1.343.875 1.75l1.093.812c2.657 2 3.938 3.782 3.938 5.438zM9.5 34.47h21v.937h-21z"/><path fill="#00df9c" d="M19.998 19.063a1.42 1.42 0 0 1-1.125-.563 26 26 0 0 0-2.5-2.781 19.4 19.4 0 0 0-2.125-1.781l-.062-.032-.032-.062a.96.96 0 0 1-.094-1c.157-.344.5-.531.875-.531h10.126c.375 0 .687.218.875.53.156.345.125.72-.094 1l-.063.063-.062.031a15.2 15.2 0 0 0-2.594 2.094 17.7 17.7 0 0 0-1.937 2.407c-.125.125-.5.625-1.188.625m-5.094-5.844c.75.562 1.438 1.156 2.125 1.812a28 28 0 0 1 2.594 2.875.45.45 0 0 0 .375.188c.219 0 .375-.188.375-.188a16 16 0 0 1 2.063-2.531 17 17 0 0 1 2.625-2.156v-.031zm10.782 20.375H14.31a1.15 1.15 0 0 1-.876-.375c-.25-.313-.187-.75.125-1.032l.032-.03.062-.032a30 30 0 0 0 2.407-1.312c1-.625 1.968-1.282 2.812-2 .281-.25.688-.375 1.156-.375.657 0 1.063.28 1.157.375l.03.03a13.8 13.8 0 0 0 2.188 1.75 18.6 18.6 0 0 0 2.938 1.532l.062.031.063.063c.25.218.344.531.219.812-.157.344-.532.563-1 .563m-11-.938h10.5a17 17 0 0 1-2.344-1.281 14 14 0 0 1-2.313-1.844c-.031-.031-.218-.156-.531-.156-.219 0-.437.063-.531.156a26 26 0 0 1-2.938 2.094c-.594.375-1.187.719-1.844 1.031m4.843-11.437h.938v1.625h-.938zm1.094 3.25h.938v1.625h-.938zm-3.937 1.218h.937v1.625h-.937z"/></svg>